<?xml version="1.0" encoding="utf-8"?>
<!-- Generator: Adobe Illustrator 23.0.3, SVG Export Plug-In . SVG Version: 6.00 Build 0)  -->
<svg version="1.1" id="Слой_2" xmlns="http://www.w3.org/2000/svg" xmlns:xlink="http://www.w3.org/1999/xlink" x="0px" y="0px"
	 viewBox="0 0 450 541" style="enable-background:new 0 0 450 541;" xml:space="preserve">
<style type="text/css">
	.st0{fill:#C8D3D7;}
	.st1{fill:#FFFFFF;}
	.st2{fill:#C90178;}
	.st3{fill:#5F7CEB;}
	.st4{fill:#536CE8;}
	.st5{fill:#DFDEFC;}
	.st6{fill:#AFB8D4;}
	.st7{fill:#B00177;}
	.st8{fill:#99A0D2;}
	.st9{fill:#495EE5;}
</style>
<g>
	<path class="st0" d="M158.9,200.8l-68.6,62.2v101.6l39.7-56.3c6.6-9.4,17.4-15,28.9-15l0,0L158.9,200.8L158.9,200.8z"/>
	<path class="st0" d="M234.3,40.7h-37.3L160.3,101h96.4L234.3,40.7 M243.3,24.4c0,0,0.1,0.1,0.1,0.1
		C243.4,24.5,243.4,24.4,243.3,24.4 M210.8,20.6c-1.5,1.1-2.9,2.5-4.2,4.1C207.9,23.1,209.3,21.8,210.8,20.6 M233.4,17.3
		c0.2,0.1,0.4,0.2,0.6,0.2c3.5,1.4,6.7,3.7,9.3,6.8C240.6,21,237.1,18.7,233.4,17.3"/>
	<path class="st1" d="M158.9,105.8v209.5h99v-19h-99v0v-11.5v0h99v-67.5c-8.5,8.1-20,13.1-32.7,13.1c-2.2,0-4.5-0.2-6.8-0.5
		c-20.4-2.8-37-19.2-40-39.5c-3.3-21.9,8.4-41.5,26.3-50.1c6.2-3,13.2-4.7,20.5-4.7c1.9,0,3.8,0.1,5.7,0.3
		c10.4,1.2,19.8,5.9,27.1,12.9v-43.1L158.9,105.8C158.9,105.8,158.9,105.8,158.9,105.8"/>
	<path class="st0" d="M225.1,135.7c-7.3,0-14.3,1.7-20.5,4.7c-17.9,8.6-29.6,28.2-26.3,50.1c3.1,20.4,19.6,36.7,40,39.5
		c2.3,0.3,4.6,0.5,6.8,0.5c12.7,0,24.2-5,32.7-13.1v-13.8c-0.6,0.9-1.2,1.8-1.8,2.7c-7,9.4-18.3,15.5-30.9,15.5
		c-1.5,0-3.1-0.1-4.6-0.3c-17-2-31.1-15.5-33.5-32.5c-2.6-17.8,6.9-33.7,21.5-40.7l0,0l0,0c5.1-2.4,10.7-3.8,16.7-3.8l0,0l0,0
		c1.6,0,3.3,0.1,4.9,0.3c11.6,1.4,21.8,8.2,27.8,17.8v-13.6c-7.2-7-16.7-11.7-27.1-12.9C228.9,135.8,227,135.7,225.1,135.7"/>
	<path class="st2" d="M256.7,101h-96.4h-1.4c-1.3,0-2.4,1.1-2.4,2.4c0,1.3,1.1,2.4,2.4,2.4c0,0,0,0,0,0h99v-1.7l-0.3-0.7L256.7,101
		 M291.3,101h-1.4l1.4,2.4v0v2.4c1.3,0,2.4-1.1,2.4-2.4C293.7,102.1,292.6,101,291.3,101"/>
	<path class="st2" d="M243.6,24.7l9.7,16v0L243.6,24.7 M225.1,15.8c-5,0-10.1,1.6-14.3,4.8c-1.5,1.1-2.9,2.5-4.2,4.1l0,0l-9.7,16v0
		h37.3L225,15.8v0C225,15.8,225.1,15.8,225.1,15.8c3,0,6.1,0.6,8.9,1.7c-0.2-0.1-0.4-0.2-0.6-0.2C230.7,16.3,227.9,15.8,225.1,15.8"
		/>
	<path class="st3" d="M208.4,148.2L208.4,148.2c-14.6,7-24.1,22.9-21.5,40.7c2.5,17,16.5,30.5,33.5,32.5c1.6,0.2,3.1,0.3,4.6,0.3
		c12.6,0,23.9-6.1,30.9-15.5c0.7-0.9,1.3-1.8,1.8-2.7v0c-0.6,0.9-1.2,1.8-1.8,2.7v0C209.2,183.2,208.4,148.2,208.4,148.2
		 M225.1,144.4c-6,0-11.7,1.4-16.7,3.8h0C213.5,145.8,219.1,144.4,225.1,144.4L225.1,144.4"/>
	<path class="st4" d="M225.1,144.4c-6,0-11.7,1.4-16.7,3.8h0l0,0c0,0,0.8,34.9,47.6,58v0c0.7-0.9,1.3-1.8,1.8-2.7v-41
		c-6-9.6-16.2-16.4-27.8-17.8C228.4,144.5,226.7,144.4,225.1,144.4"/>
	<path class="st0" d="M257.8,330.6h-80.3l0,0c-0.9,1.7-2,3.3-3.5,4.7c-3.2,2.9-5.4,6.8-5.4,11.2v32.7l0,0h112.8H168.7l0,0v-16.7h0
		h89.1V330.6"/>
	<polyline class="st3" points="257.8,362.5 168.7,362.5 168.7,362.5 168.7,379.2 168.7,379.2 281.5,379.2 257.8,379.2 257.8,379.2 
		257.8,362.5 	"/>
	<polyline class="st3" points="257.8,284.8 158.9,284.8 158.9,284.8 158.9,296.3 158.9,296.3 257.8,296.3 257.8,284.8 	"/>
	<path class="st3" d="M257.8,315.3h-99H154c-2.1,0-4,0.9-5.4,2.2c-1.8,1.8-2.7,4.5-2,7.4c0.9,3.4,4.3,5.7,7.8,5.7h23.2h80.3V315.3"
		/>
	<path class="st2" d="M100.7,374.2L100.7,374.2c-5.8,0-10.5-4.7-10.5-10.5V262.9l10.5-9.1v0V374.2z"/>
	<polyline class="st0" points="291.3,200.8 291.3,200.8 318.5,225.4 318.5,225.4 291.3,200.8 	"/>
	<path class="st3" d="M317.9,305.3v3c0,1.3,1.1,2.4,2.4,2.4c0.5,0,1-0.2,1.4-0.4l-1.4-2C319.5,307.3,318.7,306.2,317.9,305.3
		 M320.3,224.6c-0.7,0-1.3,0.3-1.8,0.8l0,0l1.8,1.6l2.4,2.2V227C322.7,225.7,321.6,224.6,320.3,224.6"/>
	<path class="st3" d="M130.1,310.7c-1.3,0-2.4-1.1-2.4-2.4V227c0-1.3,1.1-2.4,2.4-2.4c1.3,0,2.4,1.1,2.4,2.4v81.3
		C132.4,309.6,131.4,310.7,130.1,310.7z"/>
	<rect x="192.4" y="379.2" class="st0" width="65.5" height="95.1"/>
	<path class="st1" d="M69.9,517.2h310.9c-0.4-2.3-1.2-4.4-2.2-6.5c-0.8-2-1.5-4-2.4-6c-1.2-2.6-2.7-4.7-4.6-6.9
		c-3.3-3.9-7.8-6.7-12.7-8.2c-2-0.6-4.1-1-6.1-1.2h0c-0.6-2-1.3-3.9-2.2-5.9c-4.1-9.2-12.8-16.3-22.3-19.3
		c-7.6-2.4-16.3-2.1-24.1-1.2c-3.2,0.4-6.2,0.8-9,1.6c-2-4.7-5.1-8.8-10.1-11.7c-8-4.6-18.8-4.4-27.5-1.9c-2.7,0.8-5.5,1.9-8.1,3.3
		c-3-3.8-6.1-7.5-9.7-10.7c-5.5-4.8-11.1-8.3-17.8-11c-13-5.3-28.5-3.7-40.8,2.6c-6.4,3.3-11.6,8.2-15.5,14.1
		c-1-0.2-1.9-0.5-2.9-0.6c-11.3-2-22.4,0-32.3,5.8c-7.8,4.6-14.5,11.8-19,19.8c-8.6-0.6-17.6,1.6-24.9,5.9
		C73.4,487.2,66.9,502.1,69.9,517.2L69.9,517.2z"/>
	<path class="st5" d="M291.3,105.8L291.3,105.8v179v0v11.5v0v19h4.4c3.5,0,7,2.2,7.8,5.6c0.2,0.7,0.3,1.4,0.3,2c0-0.7-0.1-1.4-0.3-2
		c-0.9-3.4-4.3-5.6-7.8-5.6h-4.4v-22l0,0v0v-92.5h0l0,0V105.8 M243.4,24.5c0,0.1,0.1,0.1,0.1,0.2l0,0
		C243.5,24.6,243.5,24.6,243.4,24.5 M243.3,24.4C243.3,24.4,243.3,24.4,243.3,24.4C243.3,24.4,243.3,24.4,243.3,24.4"/>
	<path class="st6" d="M253.3,40.7h-19l22.4,60.3h33.2L253.3,40.7 M234,17.6c3.6,1.5,6.9,3.8,9.6,7.1c0-0.1-0.1-0.1-0.1-0.2
		c0,0-0.1-0.1-0.1-0.1c0,0,0,0,0,0C240.7,21.2,237.5,19,234,17.6"/>
	<path class="st5" d="M291.3,296.3h-33.5v19h33.5V296.3 M291.3,105.8h-33.5v43.1c8,7.7,13.4,18.2,14.4,29.7
		c1.1,12.4-2.5,23.9-9.3,32.9c-1.6,2.1-3.3,4-5.2,5.8v67.5h33.5V105.8"/>
	<path class="st6" d="M257.8,148.9v13.6c2.6,4.2,4.5,8.9,5.3,14c0.4,2.2,0.5,4.4,0.5,6.6c0,7.5-2.1,14.5-5.9,20.5v13.8
		c1.9-1.8,3.6-3.7,5.2-5.8c6.8-9,10.4-20.5,9.3-32.9C271.2,167.1,265.9,156.6,257.8,148.9"/>
	<polyline class="st7" points="289.9,101 289.9,101 256.7,101 257.6,103.4 257.8,104.1 257.8,105.8 291.3,105.8 291.3,105.8 
		291.3,103.4 291.3,103.4 289.9,101 	"/>
	<path class="st7" d="M225.1,15.8c0,0-0.1,0-0.1,0v0l9.3,24.9h19l-9.7-16l0,0c-2.7-3.3-6-5.7-9.6-7.1
		C231.2,16.4,228.1,15.8,225.1,15.8"/>
	<path class="st4" d="M263.7,183.1c0,7.5-2.1,14.5-5.9,20.5v0C261.6,197.6,263.7,190.6,263.7,183.1"/>
	<path class="st8" d="M257.8,162.5L257.8,162.5c2.6,4.2,4.5,8.9,5.3,14c0.4,2.2,0.5,4.4,0.5,6.6c0-2.1-0.2-4.3-0.5-6.6
		C262.3,171.5,260.5,166.7,257.8,162.5"/>
	<path class="st9" d="M257.8,162.5v41c3.7-5.9,5.9-12.9,5.9-20.5c0-2.1-0.2-4.3-0.5-6.6C262.3,171.5,260.5,166.7,257.8,162.5"/>
	<path class="st6" d="M272.6,330.6h-14.7v32h23.7v-16.2c0-4.3-2.2-8.2-5.4-11.1C274.6,333.9,273.4,332.3,272.6,330.6L272.6,330.6"/>
	<polyline class="st4" points="281.5,362.5 281.5,362.5 257.8,362.5 257.8,379.2 257.8,379.2 281.5,379.2 281.5,379.2 281.5,362.5 	
		"/>
	<polyline class="st4" points="291.3,284.8 291.3,284.8 257.8,284.8 257.8,296.3 291.3,296.3 291.3,296.3 291.3,284.8 291.3,284.8 	
		"/>
	<path class="st4" d="M295.8,315.3h-4.4h-33.5v15.3h14.7l0,0h23.6c2.1,0,4-0.9,5.4-2.2c1.4-1.4,2.2-3.3,2.2-5.4c0-0.7-0.1-1.4-0.3-2
		C302.7,317.4,299.3,315.3,295.8,315.3"/>
	<path class="st6" d="M291.3,200.8L291.3,200.8l0,92.5v0l0,0c10.2,0,19.9,4.4,26.5,12V227c0-0.6,0.2-1.2,0.6-1.6L291.3,200.8"/>
	<path class="st6" d="M360,363.7c0,0.3,0,0.5,0,0.8l0,0V363.7 M322.7,229.1v79.2c0,0.8-0.4,1.5-1,2l27.8,39.5v-95.9l0,0l10.5,9.1
		L322.7,229.1"/>
	<path class="st7" d="M349.5,253.9L349.5,253.9l0,95.9v24.5h0c5.5,0,10-4.3,10.4-9.7l0,0c0-0.3,0-0.5,0-0.8l0,0V262.9L349.5,253.9"
		/>
	<path class="st4" d="M318.5,225.4c-0.4,0.4-0.6,1-0.6,1.6v78.3c0.8,1,1.6,2,2.4,3l1.4,2c0.6-0.4,1-1.1,1-2v-79.2l-2.4-2.2
		L318.5,225.4"/>
</g>
</svg>
