<?xml version="1.0" encoding="utf-8"?>
<!-- Generator: Adobe Illustrator 23.0.3, SVG Export Plug-In . SVG Version: 6.00 Build 0)  -->
<svg version="1.1" id="Layer_1" xmlns="http://www.w3.org/2000/svg" xmlns:xlink="http://www.w3.org/1999/xlink" x="0px" y="0px"
	 viewBox="0 0 64.2 64.2" style="enable-background:new 0 0 64.2 64.2;" xml:space="preserve">
<style type="text/css">
	.st0{fill:url(#SVGID_1_);}
	.st1{fill:#FFFFFF;}
</style>
<title>icon</title>
<linearGradient id="SVGID_1_" gradientUnits="userSpaceOnUse" x1="44.9919" y1="-1.5552" x2="19.1781" y2="69.3852" gradientTransform="matrix(1 0 0 -1 0 66)">
	<stop  offset="0" style="stop-color:#DE47EC"/>
	<stop  offset="0.16" style="stop-color:#D550ED"/>
	<stop  offset="0.44" style="stop-color:#BB67F0"/>
	<stop  offset="0.79" style="stop-color:#928DF5"/>
	<stop  offset="1" style="stop-color:#75A8F9"/>
</linearGradient>
<path class="st0" d="M12,0h40.2c6.6,0,12,5.4,12,12v40.2c0,6.6-5.4,12-12,12H12c-6.6,0-12-5.4-12-12V12C0,5.4,5.4,0,12,0z"/>
<path class="st1" d="M51.3,31.1c-0.1-2,0-4,0-6c0-1.3,0-2.6,0-3.8c0.1-1.1,0-2.2-0.2-3.3c-0.3-1-1-1-2-1.1c-2.4-0.1-4.8,0-7.2,0
	c-5.3,0-10.6,0-16-0.1c-2.8,0-5.6,0.1-8.4,0.2c-1,0.1-2.7-0.1-3.5,0.6c-0.5,0.5-0.7,1.2-0.7,1.9c-0.2,1.5-0.3,3-0.3,4.5
	c-0.1,3.2-0.1,6.5-0.3,9.7c-0.2,2.6-0.1,5.2,0,7.9c0,1.5-0.4,3.8,0.8,5s4,0.7,5.5,0.7c2.8,0.1,5.6,0.2,8.4,0.2
	c5.3,0.1,10.5-0.1,15.8,0.1c2.1,0.1,4.2,0,6.2-0.3c1.2-0.2,1.6-0.9,1.7-2C51.6,40.5,51.6,35.8,51.3,31.1z M16.1,18.2
	c0.5,0,1-0.1,1.5-0.1c2-0.1,4.1-0.2,6.2-0.2c4.4,0,8.8,0,13.2,0l5.7,0c2-0.1,4.1-0.1,6.2,0c0.9,0.1,1,0.2,1.1,1.2
	c0.1,0.9,0.2,1.9,0.2,2.8c0,0.1,0,0.3,0,0.4c-11.9-0.4-23.9-0.5-35.8-0.1c0-0.7,0.1-1.3,0.2-2C14.7,18.9,14.9,18.3,16.1,18.2z
	 M50.2,39.8c0,1.6,0,3.2-0.1,4.8c-0.1,1.2-0.6,1.1-1.7,1.3c-1.1,0.2-2.2,0.3-3.3,0.3c-4.1,0.1-8.3-0.1-12.4-0.1
	c-4.9,0-9.8-0.1-14.7-0.3c-1.5-0.1-3.9,0.2-4-1.8c-0.1-1.1,0-2.2-0.1-3.3c-0.1-2.4-0.1-4.8,0-7.2c0.2-3.5,0.1-7.1,0.3-10.6
	c12-0.4,24-0.3,35.9,0.1c0,1.7-0.1,3.3-0.1,5C50,32.1,50.3,35.9,50.2,39.8z"/>
<path class="st1" d="M17.2,21.4c0.7-0.1,1.5-0.5,1.3-1.3c-0.1-0.7-0.7-1.3-1.4-1.3c-0.7,0.1-1.3,0.6-1.4,1.4c-0.1,0.6,0.4,1.2,1,1.3
	C16.9,21.5,17,21.5,17.2,21.4z M16.7,20.3c0.1-0.2,0.2-0.5,0.5-0.5c0.2,0,0.4,0.1,0.5,0.3c0.1,0.4-0.1,0.5-0.4,0.5
	c-0.1,0-0.3,0-0.4,0C16.6,20.4,16.6,20.4,16.7,20.3z"/>
<path class="st1" d="M20.9,21.4c0.8,0.1,1.4-0.5,1.5-1.3c0,0,0,0,0,0c0.1-0.7-0.4-1.3-1.1-1.4c-0.1,0-0.1,0-0.2,0
	c-0.8-0.1-1.4,0.5-1.5,1.2C19.5,20.7,20.1,21.4,20.9,21.4z M20.4,19.9c0.1-0.3,0.4-0.4,0.6-0.4s0.5,0.2,0.4,0.5
	c0,0.3-0.2,0.5-0.5,0.5c0,0-0.1,0-0.1,0C20.6,20.5,20.3,20.2,20.4,19.9z"/>
<path class="st1" d="M24.8,21.3c0.8,0,1.4-0.6,1.5-1.3c0-0.8-0.6-1.4-1.3-1.5c-0.1,0-0.1,0-0.2,0c-0.8,0.1-1.4,0.7-1.4,1.5
	c0,0.7,0.6,1.3,1.3,1.3C24.7,21.4,24.8,21.3,24.8,21.3z M24.8,19.5c0.3,0,0.5,0.2,0.5,0.5c0,0.3-0.2,0.5-0.4,0.5
	c-0.2,0-0.6-0.1-0.7-0.3C24.2,19.8,24.4,19.5,24.8,19.5z"/>
<path class="st1" d="M27.2,27c-1.2-1-3-0.2-4,0.6c-2.1,1.4-3.8,3.2-5.7,4.8c-3,2.6,0.6,5.4,2.7,7c1.4,1,3,2.5,4.8,3
	c1.1,0.3,2.8-0.1,2.9-1.5s-2.1-2.8-3-3.6c-0.6-0.5-1.2-1-1.8-1.4l-0.8-0.6c-0.6-0.4-0.8-0.3-0.5-0.9C22.6,32.9,30,29.3,27.2,27z
	 M20.7,35.3c0.7,0.8,2.1,1.4,2.9,2.1c0.6,0.5,1.2,1.1,1.8,1.7c0.2,0.2,1,0.7,1.1,1c0.5,1.7-0.8,1.5-1.7,1.3l0.2-0.2
	c0.2-0.1,0.3-0.4,0.2-0.6c-0.1-0.2-0.4-0.3-0.6-0.2l-0.5,0.4c-0.1,0-0.1,0.1-0.2,0.2l-0.6-0.3l0.2-0.1c0.5-0.3,0-1.1-0.4-0.8
	c-0.2,0.1-0.4,0.2-0.5,0.4c-0.2-0.2-0.4-0.3-0.7-0.5l0.4-0.2c0.5-0.3,0.1-1-0.4-0.8l-0.7,0.4l-0.4-0.3l0.2-0.1
	c0.2-0.2,0.2-0.5,0-0.6c-0.1-0.1-0.2-0.1-0.4-0.1c-0.2,0.1-0.3,0.2-0.5,0.3l-0.7-0.5c0.1-0.1,0.2-0.2,0.4-0.2
	c0.2-0.1,0.3-0.4,0.2-0.6c-0.1-0.2-0.4-0.3-0.6-0.2c-0.2,0.1-0.4,0.3-0.6,0.4l-0.5-0.5l0.4-0.3c0.5-0.3,0-1.1-0.4-0.8l-0.6,0.4
	c-0.2-0.3-0.3-0.6-0.4-0.9h0.3c0.2,0,0.4-0.2,0.4-0.4c0-0.2-0.2-0.4-0.4-0.4h-0.5c0.1-0.3,0.2-0.6,0.4-0.8c0.2,0.2,0.3,0.3,0.5,0.5
	c0.2,0.1,0.5,0.1,0.6-0.1c0,0,0,0,0,0c0.1-0.2,0.1-0.5-0.2-0.6c0.1,0-0.1-0.1-0.1-0.1L18.3,33l-0.1-0.1l0.4-0.3
	c0.2,0.2,0.3,0.3,0.5,0.5c0.2,0.2,0.4,0.2,0.6,0c0,0,0,0,0,0c0.2-0.2,0.2-0.4,0-0.6c-0.1-0.2-0.3-0.3-0.4-0.5l0.6-0.6l0.5,0.5
	c0.2,0.2,0.5,0.1,0.6-0.1c0.1-0.2,0.1-0.4,0-0.6c-0.2-0.2-0.3-0.3-0.5-0.4c0.2-0.2,0.5-0.4,0.7-0.6l0.5,0.5c0.4,0.4,1-0.2,0.6-0.6
	c-0.1-0.2-0.3-0.3-0.4-0.5l0.3-0.2l0.5-0.4l0.2,0.3c0.1,0.2,0.4,0.3,0.6,0.2c0.2-0.1,0.3-0.4,0.2-0.6l-0.3-0.4
	c0.2-0.1,0.4-0.3,0.6-0.4l0,0l0.4,0.4c0.4,0.4,1-0.2,0.6-0.6l-0.2-0.2c0.5-0.3,1.1-0.1,1.4,0.4c0,0,0,0,0,0.1c0.5,0.9,0,1.1-0.6,1.7
	c-1.5,1.5-3.3,2.5-4.8,4C20.4,34.2,20.2,34.7,20.7,35.3z"/>
<path class="st1" d="M44,29.7c-1.4-1-3-2.5-4.8-3c-1.1-0.3-2.8,0.1-2.9,1.5s2.1,2.8,3,3.6c0.6,0.5,1.2,1,1.8,1.4l0.8,0.6
	c0.6,0.4,0.8,0.3,0.5,0.9c-0.9,1.5-8.3,5-5.5,7.3c1.2,1,2.9,0.2,4-0.6c2.1-1.4,3.8-3.2,5.7-4.8C49.7,34,46,31.2,44,29.7z M46,36
	c-1.5,1.2-2.8,2.6-4.3,3.7c-0.6,0.5-1.3,1-2,1.5c-0.8,0.4-1.5,0.7-2-0.2c-0.2-0.2-0.2-0.5-0.1-0.8c0.2,0.2,0.4,0.3,0.6,0.5
	c0.2,0.1,0.5,0.1,0.6-0.1c0.1-0.2,0.1-0.5-0.1-0.6c0,0,0,0,0,0c-0.2-0.1-0.3-0.3-0.5-0.4l0.2-0.2l0.4-0.4c0.2,0.2,0.4,0.4,0.6,0.6
	c0.2,0.2,0.4,0.2,0.6,0c0.2-0.2,0.2-0.5,0-0.6c-0.2-0.2-0.4-0.3-0.5-0.5l0.6-0.5c0.2,0.2,0.4,0.5,0.6,0.7c0.4,0.4,1-0.2,0.6-0.6
	c-0.2-0.2-0.3-0.4-0.5-0.6l0.5-0.4c0.2,0.2,0.3,0.3,0.5,0.5c0.2,0.2,0.5,0.2,0.6,0c0.2-0.2,0.2-0.5,0-0.6c-0.1-0.2-0.2-0.3-0.4-0.4
	c0.2-0.2,0.5-0.4,0.7-0.6l0.3,0.3c0.4,0.4,1-0.2,0.6-0.6l-0.3-0.3c0.1-0.2,0.3-0.3,0.3-0.5h0.6c0.2,0,0.4-0.2,0.4-0.4l0,0
	c0-0.2-0.2-0.4-0.4-0.4l0,0h-0.8l0,0c-0.1-0.1-0.3-0.3-0.4-0.4l0.4-0.2c0.2-0.1,0.3-0.4,0.2-0.6c-0.1-0.2-0.4-0.3-0.6-0.2l-0.8,0.4
	l-0.4-0.3l0.4-0.2c0.2-0.1,0.3-0.4,0.2-0.6c-0.1-0.2-0.4-0.3-0.6-0.2l-0.7,0.4h-0.1c-0.1-0.1-0.3-0.2-0.4-0.3l-0.2-0.1
	c0.2-0.1,0.3-0.2,0.5-0.3c0.2-0.1,0.3-0.4,0.2-0.6c-0.1-0.2-0.4-0.3-0.6-0.2l0,0c-0.3,0.1-0.5,0.3-0.8,0.4l-0.5-0.5
	c0.1-0.1,0.2-0.1,0.3-0.2c0.2-0.1,0.4-0.3,0.3-0.5c-0.1-0.2-0.3-0.4-0.5-0.3c0,0,0,0,0,0c-0.3,0.1-0.5,0.2-0.7,0.4L38,29.5
	c0.1-0.1,0.2-0.2,0.4-0.2c0.5-0.3,0.1-1-0.4-0.8c-0.2,0.1-0.3,0.2-0.4,0.3c-0.4-1.6,1.1-1.4,1.8-1.1c1.6,0.8,3.1,1.7,4.4,2.9
	C45.3,31.8,48.4,33.9,46,36L46,36z"/>
<path class="st1" d="M33.2,26.5c-1.3,0-1.7,1.1-2,2.2c-0.8,2.4-1.4,4.9-1.9,7.4c-0.2,1.3-1.9,6.9,1.1,6.5c1.2-0.1,1.9-1.4,2.3-2.3
	c0.7-2.1,1.3-4.3,1.6-6.5c0.2-1.1,0.4-2.1,0.6-3.2c0.3-0.8,0.4-1.6,0.4-2.4C35.2,27,34.3,26.6,33.2,26.5z M33.2,34.8
	c-0.2,1-0.5,1.9-0.7,2.9c-0.3,1.2-0.6,3.7-2.1,3.6c-0.8,0-0.9-0.1-0.8-0.6c0.1,0,0.2,0.1,0.3,0.1c0.2,0.1,0.5-0.1,0.5-0.3
	s-0.1-0.5-0.3-0.5l0,0c-0.2-0.1-0.3-0.1-0.5-0.1c0-0.2,0-0.3,0.1-0.5c0.2,0,0.4,0.1,0.6,0.1c0.2,0,0.4-0.2,0.4-0.4s-0.2-0.4-0.4-0.4
	c-0.2,0-0.3,0-0.4-0.1c0-0.1,0-0.2,0-0.3V38c0.2,0,0.4,0.1,0.6,0.1c0.2,0.1,0.5,0,0.6-0.3c0.1-0.2,0-0.5-0.3-0.6
	c-0.2-0.1-0.4-0.1-0.7-0.1c0-0.3,0.1-0.5,0.1-0.8c0.3,0,0.5,0.1,0.7,0.2c0.2,0.1,0.5-0.1,0.5-0.3c0,0,0,0,0,0
	c0.1-0.2-0.1-0.5-0.3-0.5c-0.3-0.1-0.5-0.2-0.8-0.2c0-0.2,0.1-0.4,0.1-0.6L31,35c0.6,0.1,0.8-0.7,0.2-0.9L30.6,34
	c0-0.2,0.1-0.4,0.1-0.6l0.4,0.1c0.2,0.1,0.5-0.1,0.5-0.3c0.1-0.2-0.1-0.5-0.3-0.5l-0.5-0.1c0-0.1,0-0.2,0.1-0.3l0.8,0.2
	c0.2,0.1,0.5-0.1,0.5-0.3c0.1-0.2-0.1-0.5-0.3-0.5c0,0,0,0,0,0l-0.8-0.2c0-0.2,0.1-0.3,0.1-0.5c0.2,0,0.3,0.1,0.5,0.1
	c0.2,0,0.5-0.1,0.5-0.4c0-0.2-0.1-0.4-0.3-0.5L31.6,30c0-0.1,0.1-0.2,0.1-0.3c0.2,0,0.3,0.1,0.5,0.1c0.2,0.1,0.5-0.1,0.5-0.3
	c0.1-0.2-0.1-0.5-0.3-0.5c0,0,0,0,0,0c-0.1,0-0.3-0.1-0.4-0.1c0.1-0.1,0.1-0.2,0.2-0.4c0.1,0.1,0.3,0.1,0.4,0.1
	c0.2,0.1,0.5-0.1,0.6-0.3c0.1-0.2-0.1-0.5-0.3-0.5h-0.2c0.1-0.1,0.3-0.2,0.5-0.2C35.3,27.5,33.4,33.8,33.2,34.8L33.2,34.8z"/>
</svg>
