<?xml version="1.0" encoding="utf-8"?>
<!-- Generator: Adobe Illustrator 23.0.3, SVG Export Plug-In . SVG Version: 6.00 Build 0)  -->
<svg version="1.1" id="Слой_1" xmlns="http://www.w3.org/2000/svg" xmlns:xlink="http://www.w3.org/1999/xlink" x="0px" y="0px"
	 viewBox="0 0 551 551" style="enable-background:new 0 0 551 551;" xml:space="preserve">
<style type="text/css">
	.st0{fill:#4F7DF0;}
	.st1{fill:#C4D3D7;}
	.st2{fill:#FFFFFF;}
	.st3{fill:#EC007B;}
	.st4{fill:#ADB9D6;}
	.st5{fill:#E1E0FE;}
	.st6{fill:#466EEF;}
	.st7{fill:#D0007B;}
	.st8{fill:#FEC240;}
</style>
<title>sputnik-2</title>
<path class="st0" d="M216,318.5l-21.3,21.3l6.3,6.3l21.3-21.3L216,318.5 M339.8,194.6l-20.1,20.1l6.3,6.3l20.1-20.1L339.8,194.6"/>
<path class="st1" d="M201.4,114.7c-11.7,0-22.9,4.6-31.1,12.9l-41.5,41.5c-0.4,0.4-0.8,0.8-1.1,1.2c0.4-0.4,0.7-0.8,1.1-1.2
	l20.5-20.5l0,0c-0.3,0.3-22.5,22.9,20.5,69.7l0,0l76.7-76.7l-14-14C224.3,119.3,213.1,114.7,201.4,114.7"/>
<path class="st2" d="M259,154l-76.8,76.8l146.4,146.4l76.8-76.8L326,221l-6.3-6.3L259,154"/>
<polyline class="st1" points="405.4,300.5 405.4,300.5 328.6,377.3 328.6,377.3 384.3,408.3 384.5,408.5 427.7,365.4 405.4,300.5 
	"/>
<path class="st2" d="M444,442.7l36.1,36.1L444,442.7z"/>
<path class="st2" d="M480.1,481.7c1.6,0,2.8-1.3,2.8-2.9c0-0.7-0.3-1.5-0.8-2L446,440.7c-1.2-1-3-0.7-4,0.5c-0.8,1-0.8,2.5,0,3.5
	l36.1,36.1C478.6,481.4,479.4,481.7,480.1,481.7z"/>
<polyline class="st0" points="428.1,365 384.5,408.5 401.9,425.8 445,382.7 445.1,382.7 445.5,382.3 428.1,365 "/>
<path class="st1" d="M384,443.8L384,443.8l10.7,36.3L384,443.8 M444.9,382.7l-43.1,43.1l0,0l11.1,35.9l68.3-68.3L444.9,382.7
	L444.9,382.7L444.9,382.7"/>
<polyline class="st0" points="481.4,393.5 481.4,393.5 413.1,461.8 413.1,461.8 424.9,473.6 406.6,492 394.7,480.1 406.6,492 
	493.2,405.4 481.4,393.5 "/>
<path class="st3" d="M488.4,470.5c4.6,4.6,4.6,12.1,0,16.6c-4.6,4.6-12.1,4.6-16.6,0c-4.6-4.6-4.6-12,0-16.6
	C476.4,466,483.8,466,488.4,470.5C488.4,470.5,488.4,470.5,488.4,470.5z"/>
<path class="st3" d="M146,263.4L146,263.4 M152.1,261L152.1,261 M139.9,261c1.6,1.6,3.8,2.4,6.1,2.4
	C143.7,263.4,141.5,262.5,139.9,261 M152.2,261L152.2,261L152.2,261 M152.2,261L152.2,261L152.2,261 M155.2,257.9l-3,3l0,0l0,0
	L155.2,257.9L155.2,257.9 M137.1,254.7L137.1,254.7c0,2.3,0.9,4.6,2.6,6.2l0.1,0.1l-0.1-0.1C138.1,259.3,137.1,257,137.1,254.7
	 M255.8,135.9c-2.3,0-4.6,0.9-6.2,2.6l-3,3l-76.7,76.7c1.9,2.1,3.9,4.2,6.1,6.4l6.2,6.2L259,154l3-3c3.4-3.5,3.4-9,0-12.5
	C260.4,136.9,258.1,135.9,255.8,135.9"/>
<path class="st1" d="M319.9,248.5c1.6,0,2.8-1.3,2.8-2.9c0-0.7-0.3-1.5-0.8-2l-63.1-63.1c-1-1.2-2.8-1.5-4-0.5c-1.2,1-1.5,2.8-0.5,4
	c0.1,0.2,0.3,0.4,0.5,0.5l63.1,63.1C318.4,248.2,319.2,248.5,319.9,248.5z"/>
<polyline class="st4" points="149.4,148.6 149.4,148.6 149.4,148.6 "/>
<path class="st5" d="M127.7,170.3c-16,17.3-15.6,44.1,1,60.9C112.1,214.4,111.6,187.6,127.7,170.3"/>
<path class="st4" d="M149.4,148.6l-20.5,20.5c-0.4,0.4-0.8,0.8-1.1,1.2c-16,17.3-15.6,44.1,1,60.9l0.2,0.1l14,14l27-27l0,0
	C126.9,171.5,149.1,148.9,149.4,148.6"/>
<path class="st5" d="M366.7,426.4l-0.5,0.5l17.4,17.4l0.4-0.4v-0.1L366.7,426.4 M384.5,408.5l-17.9,17.9L384.5,408.5L384.5,408.5
	 M222.2,324.7L222.2,324.7l79.4,79.5L222.2,324.7 M155.2,257.7L155.2,257.7l60.8,60.8l0,0L155.2,257.7"/>
<polyline class="st6" points="216,318.4 216,318.4 222.2,324.7 222.2,324.7 216,318.4 "/>
<path class="st5" d="M182.2,230.9l-26.9,26.9l60.7,60.7l6.3,6.3l79.4,79.4l26.9-26.9L182.2,230.9"/>
<polyline class="st4" points="328.6,377.3 301.7,404.2 366.6,426.4 384.5,408.5 384.3,408.3 328.6,377.3 328.6,377.3 "/>
<polyline class="st6" points="384.5,408.5 366.6,426.4 384,443.8 401.9,425.8 384.5,408.5 "/>
<polyline class="st4" points="401.9,425.8 384,443.8 384,443.8 384,443.8 394.7,480.1 413.1,461.8 401.9,425.9 401.9,425.8 "/>
<polyline class="st6" points="413.1,461.8 394.7,480.1 406.6,492 424.9,473.6 413.1,461.8 "/>
<path class="st5" d="M146,263.4L146,263.4 M152.1,261c-1.6,1.6-3.8,2.4-6.1,2.4C148.3,263.4,150.4,262.5,152.1,261 M152.1,260.9
	L152.1,260.9L152.1,260.9 M152.1,260.9L152.1,260.9 M139.8,260.9L139.8,260.9L139.8,260.9 M152.2,260.9L152.2,260.9"/>
<path class="st7" d="M169.8,218.2l-27,27l-3,3c-3.4,3.4-3.5,9,0,12.5c0,0,0,0,0,0l0.1,0.1l0.1,0.1c1.6,1.6,3.8,2.4,6.1,2.4l0,0
	c2.3,0,4.4-0.9,6.1-2.4l0,0l0,0l0,0l0,0l0,0l0,0l0,0l3-3l0,0L182,231l-6.2-6.2c-2.2-2.2-4.2-4.3-6.1-6.4"/>
<rect x="346.9" y="120.1" transform="matrix(0.7071 -0.7071 0.7071 0.7071 -38.8958 306.4502)" class="st0" width="7.2" height="160.2"/>
<rect x="370.3" y="96.6" transform="matrix(0.7071 -0.7071 0.7071 0.7071 -15.4059 316.1801)" class="st0" width="7.2" height="160.2"/>
<rect x="393.8" y="73.1" transform="matrix(0.7071 -0.7071 0.7071 0.7071 8.0941 325.9201)" class="st0" width="7.2" height="160.2"/>
<rect x="417.4" y="49.6" transform="matrix(0.7071 -0.7071 0.7071 0.7071 31.5504 335.6746)" class="st0" width="7.2" height="160.2"/>
<rect x="440.8" y="26" transform="matrix(0.7071 -0.7071 0.7071 0.7071 55.1063 345.3499)" class="st0" width="7.2" height="160.2"/>
<rect x="464.3" y="2.6" transform="matrix(0.7072 -0.707 0.707 0.7072 78.5089 355.0576)" class="st0" width="7.2" height="160.2"/>
<rect x="487.8" y="-20.9" transform="matrix(0.7071 -0.7071 0.7071 0.7071 102.0696 364.8415)" class="st0" width="7.2" height="160.2"/>
<rect x="263.6" y="72" transform="matrix(0.7071 -0.7071 0.7071 0.7071 53.9862 281.5595)" class="st0" width="206.6" height="7.2"/>
<rect x="285.3" y="93.7" transform="matrix(0.7071 -0.7071 0.7071 0.7071 45.0044 303.2614)" class="st0" width="206.6" height="7.2"/>
<rect x="306.9" y="115.4" transform="matrix(0.7071 -0.7071 0.7071 0.7071 36.0321 324.9344)" class="st0" width="206.6" height="7.2"/>
<rect x="328.7" y="137" transform="matrix(0.7071 -0.7071 0.7071 0.7071 27.0502 346.6362)" class="st0" width="206.6" height="7.2"/>
<rect x="350.4" y="158.8" transform="matrix(0.7071 -0.7071 0.7071 0.7071 18.0584 368.348)" class="st0" width="206.6" height="7.2"/>
<rect x="372.1" y="180.5" transform="matrix(0.7071 -0.7071 0.7071 0.7071 9.04 390.0757)" class="st0" width="206.6" height="7.2"/>
<rect x="55.6" y="411.3" transform="matrix(0.7071 -0.7071 0.7071 0.7071 -330.1231 185.7929)" class="st0" width="7.2" height="160.2"/>
<rect x="79.1" y="387.8" transform="matrix(0.7071 -0.7071 0.7071 0.7071 -306.6615 195.5403)" class="st0" width="7.2" height="160.2"/>
<rect x="102.6" y="364.3" transform="matrix(0.7071 -0.7071 0.7071 0.7071 -283.1657 205.2703)" class="st0" width="7.2" height="160.2"/>
<rect x="126.1" y="340.8" transform="matrix(0.7071 -0.7071 0.7071 0.7071 -259.6758 215.0002)" class="st0" width="7.2" height="160.2"/>
<rect x="149.6" y="317.3" transform="matrix(0.7071 -0.7071 0.7071 0.7071 -236.1476 224.7143)" class="st0" width="7.2" height="160.2"/>
<rect x="173.1" y="293.8" transform="matrix(0.7071 -0.7071 0.7071 0.7071 -212.6547 234.4512)" class="st0" width="7.2" height="160.2"/>
<rect x="196.6" y="270.3" transform="matrix(0.7071 -0.7071 0.7071 0.7071 -189.1578 244.1841)" class="st0" width="7.2" height="160.2"/>
<rect x="-27.7" y="363.2" transform="matrix(0.7071 -0.7071 0.7071 0.7071 -237.2595 160.9097)" class="st0" width="206.6" height="7.2"/>
<rect x="-6" y="384.9" transform="matrix(0.7071 -0.7071 0.7071 0.7071 -246.2583 182.6186)" class="st0" width="206.6" height="7.2"/>
<rect x="15.7" y="406.7" transform="matrix(0.7072 -0.707 0.707 0.7072 -255.2678 204.2863)" class="st0" width="206.6" height="7.2"/>
<rect x="37.4" y="428.4" transform="matrix(0.7071 -0.7071 0.7071 0.7071 -264.2391 226.0293)" class="st0" width="206.6" height="7.2"/>
<rect x="59.1" y="450.1" transform="matrix(0.7071 -0.7071 0.7071 0.7071 -273.2592 247.7529)" class="st0" width="206.6" height="7.2"/>
<rect x="80.8" y="471.7" transform="matrix(0.7071 -0.7071 0.7071 0.7071 -282.1874 269.4183)" class="st0" width="206.6" height="7.2"/>
<path class="st0" d="M82.4,86.8c0,3.3,2.7,6,6,5.9c3.3,0,6-2.7,5.9-6c0-3.3-2.7-5.9-6-6C85,80.8,82.4,83.5,82.4,86.8
	C82.4,86.8,82.4,86.8,82.4,86.8z"/>
<path class="st0" d="M507.2,235.9c0,3.3,2.7,6,6,6s6-2.7,6-6s-2.7-6-6-6S507.2,232.6,507.2,235.9L507.2,235.9z"/>
<path class="st8" d="M528.9,361.8c0,3.3,2.7,6,6,6s6-2.7,6-6s-2.7-6-6-6S528.9,358.4,528.9,361.8z"/>
<path class="st8" d="M86.5,291.3c0,3.3,2.7,6,6,6c3.3,0,6-2.7,6-6c0-3.3-2.7-6-6-6C89.2,285.2,86.5,287.9,86.5,291.3
	C86.5,291.2,86.5,291.2,86.5,291.3z"/>
<path class="st8" d="M280.5,67.2c0.6,0,1.1-0.5,1.1-1.2c0-0.3-0.1-0.6-0.3-0.8l-9-9c-0.4-0.4-1.2-0.4-1.6,0c0,0,0,0,0,0
	c-0.4,0.4-0.4,1.2,0,1.6l9,9C279.9,67.1,280.2,67.2,280.5,67.2z"/>
<path class="st8" d="M271.6,67.2c0.3,0,0.6-0.1,0.8-0.3l9-9c0.4-0.5,0.4-1.2,0-1.6c-0.5-0.4-1.2-0.4-1.6,0l-9,9
	c-0.4,0.4-0.4,1.2,0,1.6C271,67.1,271.3,67.2,271.6,67.2z"/>
<path class="st0" d="M301.4,509.3c0.6,0,1.1-0.5,1.1-1.2c0-0.3-0.1-0.6-0.3-0.8l-9-9c-0.5-0.4-1.2-0.4-1.6,0.1
	c-0.4,0.4-0.4,1.1,0,1.5l9,9C300.9,509.1,301.1,509.3,301.4,509.3z"/>
<path class="st0" d="M292.5,509.3c0.3,0,0.6-0.1,0.8-0.3l9-9c0.4-0.4,0.4-1.2,0-1.6c0,0,0,0,0,0c-0.4-0.4-1.2-0.4-1.6,0l-9,9
	c-0.4,0.4-0.4,1.2,0,1.6C291.8,509.2,292.2,509.3,292.5,509.3z"/>
</svg>
