<svg id="Слой_1" xmlns="http://www.w3.org/2000/svg" viewBox="0 0 551 551"><style>.st0{fill:#4f7df0}.st1{fill:#c4d3d7}.st2{fill:#fff}.st3{fill:#ec007b}.st4{fill:#adb9d6}.st5{fill:#e1e0fe}.st6{fill:#466eef}.st7{fill:#d0007b}.st8{fill:#fec240}</style><title>sputnik-2</title><path class="st0" d="M216 318.5l-21.3 21.3 6.3 6.3 21.3-21.3-6.3-6.3m123.8-123.9l-20.1 20.1 6.3 6.3 20.1-20.1-6.3-6.3"/><path class="st1" d="M201.4 114.7c-11.7 0-22.9 4.6-31.1 12.9l-41.5 41.5c-.4.4-.8.8-1.1 1.2.4-.4.7-.8 1.1-1.2l20.5-20.5c-.3.3-22.5 22.9 20.5 69.7l76.7-76.7-14-14c-8.2-8.3-19.4-12.9-31.1-12.9"/><path class="st2" d="M259 154l-76.8 76.8 146.4 146.4 76.8-76.8L326 221l-6.3-6.3L259 154"/><path class="st1" d="M405.4 300.5l-76.8 76.8 55.7 31 .2.2 43.2-43.1-22.3-64.9"/><path class="st2" d="M444 442.7l36.1 36.1-36.1-36.1zm36.1 39c1.6 0 2.8-1.3 2.8-2.9 0-.7-.3-1.5-.8-2L446 440.7c-1.2-1-3-.7-4 .5-.8 1-.8 2.5 0 3.5l36.1 36.1c.5.6 1.3.9 2 .9z"/><path class="st0" d="M428.1 365l-43.6 43.5 17.4 17.3 43.1-43.1h.1l.4-.4-17.4-17.3"/><path class="st1" d="M384 443.8l10.7 36.3-10.7-36.3m60.9-61.1l-43.1 43.1 11.1 35.9 68.3-68.3-36.3-10.7"/><path class="st0" d="M481.4 393.5l-68.3 68.3 11.8 11.8-18.3 18.4-11.9-11.9 11.9 11.9 86.6-86.6-11.8-11.9"/><path class="st3" d="M488.4 470.5c4.6 4.6 4.6 12.1 0 16.6-4.6 4.6-12.1 4.6-16.6 0-4.6-4.6-4.6-12 0-16.6 4.6-4.5 12-4.5 16.6 0zM139.9 261c1.6 1.6 3.8 2.4 6.1 2.4-2.3 0-4.5-.9-6.1-2.4m15.3-3.1l-3 3 3-3m-18.1-3.2c0 2.3.9 4.6 2.6 6.2l.1.1-.1-.1c-1.6-1.6-2.6-3.9-2.6-6.2m118.7-118.8c-2.3 0-4.6.9-6.2 2.6l-3 3-76.7 76.7c1.9 2.1 3.9 4.2 6.1 6.4l6.2 6.2L259 154l3-3c3.4-3.5 3.4-9 0-12.5-1.6-1.6-3.9-2.6-6.2-2.6"/><path class="st1" d="M319.9 248.5c1.6 0 2.8-1.3 2.8-2.9 0-.7-.3-1.5-.8-2l-63.1-63.1c-1-1.2-2.8-1.5-4-.5-1.2 1-1.5 2.8-.5 4 .1.2.3.4.5.5l63.1 63.1c.5.6 1.3.9 2 .9z"/><path class="st5" d="M127.7 170.3c-16 17.3-15.6 44.1 1 60.9-16.6-16.8-17.1-43.6-1-60.9"/><path class="st4" d="M149.4 148.6l-20.5 20.5c-.4.4-.8.8-1.1 1.2-16 17.3-15.6 44.1 1 60.9l.2.1 14 14 27-27c-43.1-46.8-20.9-69.4-20.6-69.7"/><path class="st5" d="M366.7 426.4l-.5.5 17.4 17.4.4-.4v-.1l-17.3-17.4m17.8-17.9l-17.9 17.9 17.9-17.9m-162.3-83.8l79.4 79.5-79.4-79.5m-67-67l60.8 60.8-60.8-60.8"/><path class="st6" d="M216 318.4l6.2 6.3-6.2-6.3"/><path class="st5" d="M182.2 230.9l-26.9 26.9 60.7 60.7 6.3 6.3 79.4 79.4 26.9-26.9-146.4-146.4"/><path class="st4" d="M328.6 377.3l-26.9 26.9 64.9 22.2 17.9-17.9-.2-.2-55.7-31"/><path class="st6" d="M384.5 408.5l-17.9 17.9 17.4 17.4 17.9-18-17.4-17.3"/><path class="st4" d="M401.9 425.8l-17.9 18 10.7 36.3 18.4-18.3-11.2-35.9v-.1"/><path class="st6" d="M413.1 461.8l-18.4 18.3 11.9 11.9 18.3-18.4-11.8-11.8"/><path class="st5" d="M152.1 261c-1.6 1.6-3.8 2.4-6.1 2.4 2.3 0 4.4-.9 6.1-2.4m.1-.1"/><path class="st7" d="M169.8 218.2l-27 27-3 3c-3.4 3.4-3.5 9 0 12.5l.1.1.1.1c1.6 1.6 3.8 2.4 6.1 2.4s4.4-.9 6.1-2.4l3-3L182 231l-6.2-6.2c-2.2-2.2-4.2-4.3-6.1-6.4"/><path transform="rotate(-45.001 350.47 200.182)" class="st0" d="M346.9 120.1h7.2v160.2h-7.2z"/><path transform="rotate(-45.001 373.96 176.692)" class="st0" d="M370.3 96.6h7.2v160.2h-7.2z"/><path transform="rotate(-45.001 397.468 153.195)" class="st0" d="M393.8 73.1h7.2v160.2h-7.2z"/><path transform="rotate(-45.001 420.97 129.758)" class="st0" d="M417.4 49.6h7.2v160.2h-7.2z"/><path transform="rotate(-45.001 444.428 106.161)" class="st0" d="M440.8 26h7.2v160.2h-7.2z"/><path transform="rotate(-44.992 467.934 82.747)" class="st0" d="M464.3 2.6h7.2v160.2h-7.2z"/><path transform="rotate(-45.001 491.44 59.218)" class="st0" d="M487.8-20.9h7.2v160.2h-7.2z"/><path transform="rotate(-45.001 366.866 75.617)" class="st0" d="M263.6 72h206.6v7.2H263.6z"/><path transform="rotate(-45.001 388.572 97.31)" class="st0" d="M285.3 93.7h206.6v7.2H285.3z"/><path transform="rotate(-45.001 410.247 118.978)" class="st0" d="M306.9 115.4h206.6v7.2H306.9z"/><path transform="rotate(-45.001 431.952 140.671)" class="st0" d="M328.7 137h206.6v7.2H328.7z"/><path transform="rotate(-45.001 453.665 162.382)" class="st0" d="M350.4 158.8H557v7.2H350.4z"/><path transform="rotate(-45.001 475.383 184.132)" class="st0" d="M372.1 180.5h206.6v7.2H372.1z"/><path transform="rotate(-45.001 59.205 491.393)" class="st0" d="M55.6 411.3h7.2v160.2h-7.2z"/><path transform="rotate(-45.001 82.702 467.947)" class="st0" d="M79.1 387.8h7.2V548h-7.2z"/><path transform="rotate(-45.001 106.196 444.45)" class="st0" d="M102.6 364.3h7.2v160.2h-7.2z"/><path transform="rotate(-45.001 129.686 420.96)" class="st0" d="M126.1 340.8h7.2V501h-7.2z"/><path transform="rotate(-45.001 153.176 397.416)" class="st0" d="M149.6 317.3h7.2v160.2h-7.2z"/><path transform="rotate(-45.001 176.677 373.926)" class="st0" d="M173.1 293.8h7.2V454h-7.2z"/><path transform="rotate(-45.001 200.174 350.43)" class="st0" d="M196.6 270.3h7.2v160.2h-7.2z"/><path transform="rotate(-45.001 75.602 366.855)" class="st0" d="M-27.7 363.2h206.6v7.2H-27.7z"/><path transform="rotate(-45.001 97.307 388.572)" class="st0" d="M-6 384.9h206.6v7.2H-6z"/><path transform="rotate(-44.992 119.007 410.344)" class="st0" d="M15.7 406.7h206.6v7.2H15.7z"/><path transform="rotate(-45.001 140.718 431.983)" class="st0" d="M37.4 428.4H244v7.2H37.4z"/><path transform="rotate(-45.001 162.43 453.734)" class="st0" d="M59.1 450.1h206.6v7.2H59.1z"/><path transform="rotate(-45.001 184.118 475.344)" class="st0" d="M80.8 471.7h206.6v7.2H80.8z"/><path class="st0" d="M82.4 86.8c0 3.3 2.7 6 6 5.9 3.3 0 6-2.7 5.9-6 0-3.3-2.7-5.9-6-6-3.3.1-5.9 2.8-5.9 6.1zm424.8 149.1c0 3.3 2.7 6 6 6s6-2.7 6-6-2.7-6-6-6-6 2.7-6 6z"/><path class="st8" d="M528.9 361.8c0 3.3 2.7 6 6 6s6-2.7 6-6-2.7-6-6-6-6 2.6-6 6zM86.5 291.3c0 3.3 2.7 6 6 6s6-2.7 6-6-2.7-6-6-6c-3.3-.1-6 2.6-6 6 0-.1 0-.1 0 0zm194-224.1c.6 0 1.1-.5 1.1-1.2 0-.3-.1-.6-.3-.8l-9-9c-.4-.4-1.2-.4-1.6 0-.4.4-.4 1.2 0 1.6l9 9c.2.3.5.4.8.4z"/><path class="st8" d="M271.6 67.2c.3 0 .6-.1.8-.3l9-9c.4-.5.4-1.2 0-1.6-.5-.4-1.2-.4-1.6 0l-9 9c-.4.4-.4 1.2 0 1.6.2.2.5.3.8.3z"/><path class="st0" d="M301.4 509.3c.6 0 1.1-.5 1.1-1.2 0-.3-.1-.6-.3-.8l-9-9c-.5-.4-1.2-.4-1.6.1-.4.4-.4 1.1 0 1.5l9 9c.3.2.5.4.8.4z"/><path class="st0" d="M292.5 509.3c.3 0 .6-.1.8-.3l9-9c.4-.4.4-1.2 0-1.6-.4-.4-1.2-.4-1.6 0l-9 9c-.4.4-.4 1.2 0 1.6.1.2.5.3.8.3z"/></svg>