<?xml version="1.0" encoding="utf-8"?>
<!-- Generator: Adobe Illustrator 23.0.3, SVG Export Plug-In . SVG Version: 6.00 Build 0)  -->
<svg version="1.1" id="Space" xmlns="http://www.w3.org/2000/svg" xmlns:xlink="http://www.w3.org/1999/xlink" x="0px" y="0px"
	 viewBox="0 0 222 178" style="enable-background:new 0 0 222 178;" xml:space="preserve">
<style type="text/css">
	.st0{fill:#FEC240;}
	.st1{fill:#FEE03E;}
	.st2{fill:#F9A040;}
</style>
<g id="Saturn_2_">
	<g id="Saturn_1_">
		<path class="st0" d="M170.8,86.1c3.3,32.5-20.4,61.4-52.9,64.6c-32.5,3.3-61.4-20.4-64.6-52.9C50,65.4,73.7,36.5,106.1,33.2
			C138.6,30,167.5,53.7,170.8,86.1z"/>
		<g>
			<path class="st1" d="M89.6,88.8c0,0,34.3-2.2,66.2-36.4c-4.6-5.1-10.1-9.4-16.2-12.6C132.9,53.7,118.8,71.1,89.6,88.8z"/>
			<path class="st1" d="M170.6,99c-28.4,26.5-60.9,40.4-82,47.2c1.8,0.8,3.7,1.5,5.6,2.1c13-3,35.1-10.1,51.3-24.9
				c0,0-6.9,16.4-32.3,27.6c1.5,0,3.1-0.1,4.6-0.3c4.5-0.4,8.8-1.4,12.9-2.8c5.3-3.1,10.4-6.7,15-10.9c0,0-0.9,2.2-3.4,5.6
				C157.8,133.3,168.5,117.3,170.6,99z"/>
			<path class="st1" d="M106.1,33.2c-25.7,2.6-45.9,21.3-51.6,45.1c20.3-11,47.5-27,68.6-44.4C117.7,32.9,112,32.7,106.1,33.2z"/>
			<path class="st1" d="M127.6,88.5c-14.5,14.4-44.3,26.3-66.4,33.7c1.3,2.2,2.7,4.2,4.3,6.2C111.6,111.1,127.6,88.5,127.6,88.5z"/>
			<path class="st1" d="M167.6,72c-16.2,18.6-50.3,51.4-96.7,62.3c3.4,3.3,7.3,6.3,11.4,8.7c2.1,1.2,4.2,2.3,6.4,3.2
				c21-6.8,53.5-20.7,82-47.2c0.3-2.2,0.4-4.4,0.4-6.7c0-2.1-0.1-4.1-0.3-6.2C170.3,81.2,169.2,76.5,167.6,72z"/>
			<path class="st1" d="M145.5,123.4c-16.2,14.9-38.3,21.9-51.3,24.9c6,1.9,12.4,2.9,19,2.7C138.6,139.8,145.5,123.4,145.5,123.4z"
				/>
			<path class="st1" d="M130.8,148c4.1-1.4,8-3.2,11.7-5.4c2.4-3.4,3.4-5.6,3.4-5.6C141.2,141.3,136,144.9,130.8,148z"/>
			<path class="st1" d="M145.6,70.3c0,0,8.8-2.6,16.9-9c-0.9-1.5-1.9-3-2.9-4.4C155.6,61.5,150.8,66.4,145.6,70.3z"/>
		</g>
		<g>
			<path class="st2" d="M203,46.6c-2.9-5.8-21.3-3-47,6c1.5,1.6,2.9,3.4,4.1,5.2c11.1-2.8,18.6-3,20.2,0.1c1.5,3.1-3.1,9-12.1,16.2
				c-11.2,9-29,20.1-50,30.5c-20.9,10.4-40.6,18.1-54.5,21.6c-11.1,2.8-18.6,3-20.2-0.1c-1.5-3.1,3.1-9,12.1-16.2
				c-0.7-2.1-1.2-4.2-1.6-6.4c-22.7,15.1-36,28.1-33.1,33.9s21.3,3,47-6c15.5-5.4,33.5-13.1,52.4-22.5s35.9-19.2,49.5-28.3
				C192.6,65.4,205.9,52.4,203,46.6z"/>
		</g>
	</g>
</g>
</svg>
