<?xml version="1.0" encoding="utf-8"?>
<!-- Generator: Adobe Illustrator 23.0.3, SVG Export Plug-In . SVG Version: 6.00 Build 0)  -->
<svg version="1.1" id="Слой_1" xmlns="http://www.w3.org/2000/svg" xmlns:xlink="http://www.w3.org/1999/xlink" x="0px" y="0px"
	 viewBox="0 0 967.24 721.91" style="enable-background:new 0 0 967.24 721.91;" xml:space="preserve">
<style type="text/css">
	.st0{fill:#F4F7FC;}
	.st1{fill:#5F7CEB;}
	.st2{fill:#EDC04D;}
	.st3{fill:#F2F2FB;}
	.st4{opacity:0;}
	.st5{fill:none;stroke:#4F7DF0;stroke-width:8;stroke-linecap:round;stroke-miterlimit:10;}
	.st6{fill:#4F7DF0;}
	.st7{fill:none;stroke:#C6017C;stroke-width:8;stroke-linecap:round;stroke-miterlimit:10;}
	.st8{fill:#EDBE3E;}
	.st9{fill:#F1F1FA;}
	.st10{fill:#78D0BE;}
	.st11{fill:none;stroke:#5874E7;stroke-width:8;stroke-linecap:round;stroke-miterlimit:10;}
</style>
<title>Ресурс 4</title>
<g>
	<g>
		<g id="Слой_2-2">
			<path class="st0" d="M42.04,414.27l522.4-63.77c13.58-1.66,25.93,8,27.59,21.58l0,0c1.66,13.58-8.01,25.93-21.59,27.58
				l-522.4,63.77c-13.58,1.66-25.93-8-27.59-21.58l0,0C18.8,428.28,28.46,415.93,42.04,414.27z"/>
			<path class="st0" d="M163.62,215.84l507.04-61.9c13.58-1.66,25.93,8,27.59,21.58l0,0c1.66,13.58-8.01,25.93-21.59,27.58
				L169.62,265c-13.58,1.66-25.93-8-27.59-21.58l0,0C140.38,229.84,150.04,217.49,163.62,215.84z"/>
			<path class="st0" d="M149.8,311.32l534.69-65.27c13.58-1.66,25.93,8,27.59,21.58l0,0c1.66,13.58-8.01,25.93-21.59,27.58
				L155.8,360.49c-13.58,1.66-25.93-8-27.59-21.58l0,0C126.56,325.33,136.22,312.98,149.8,311.32z"/>
			<path class="st0" d="M42.29,515.62l503.96-61.52c13.58-1.66,25.93,8,27.59,21.58l0,0c1.66,13.58-8.01,25.93-21.59,27.58
				L48.29,564.79c-13.58,1.66-25.93-8-27.59-21.58l0,0C19.04,529.63,28.71,517.28,42.29,515.62z"/>
			<path class="st0" d="M407.74,445v-1.89c0-13.17,9.82-24.75,22.89-26.34V407L187.3,439.83v6.36c11.57,1.55,20.58,10.81,21.8,22.42
				v0.28c1.64,14-8.07,27.29-21.55,29l-0.28,6l243.33-9v-26.64C419,467.44,409.2,456.94,407.74,445z"/>
			<path class="st0" d="M549.23,280.73l-2.24-18c-12.02,1.42-22.91-7.17-24.33-19.19c-1.41-11.9,7.01-22.73,18.89-24.29l-0.68-5.44
				l-259.1,25.08l-0.89,12.28c12.29,1.28,21.22,12.28,19.95,24.57c-1.18,11.37-10.74,20.02-22.17,20.07c-0.33,0-0.67,0-1,0
				l-0.54,7.47L549.23,280.73z"/>
			<path class="st0" d="M506.17,317.51v-4.61L225.33,352c11.01,1.82,18.46,12.22,16.64,23.24c-1.43,8.63-8.25,15.37-16.9,16.68v3.94
				l281.1-31v-7.05c-11.14-0.66-19.64-10.22-18.99-21.36c0.6-10.23,8.76-18.38,18.99-18.99V317.51z"/>
			<path class="st1" d="M165.43,187.4c0,3.31,2.69,6,6,6s6-2.69,6-6s-2.69-6-6-6S165.43,184.09,165.43,187.4z"/>
			<path class="st1" d="M590.3,336.48c0.03,3.31,2.74,5.98,6.05,5.95c3.31-0.03,5.98-2.74,5.95-6.05c-0.03-3.29-2.71-5.95-6-5.95
				c-3.31,0-6,2.69-6,6C590.3,336.45,590.3,336.46,590.3,336.48z"/>
			<path class="st2" d="M612,462.32c0,3.31,2.69,6,6,6s6-2.69,6-6s-2.69-6-6-6S612,459.01,612,462.32L612,462.32z"/>
			<path class="st2" d="M169.54,391.84c0,3.31,2.69,6,6,6s6-2.69,6-6s-2.69-6-6-6S169.54,388.53,169.54,391.84z"/>
			<path class="st2" d="M767,420.32c0,3.31,2.69,6,6,6s6-2.69,6-6s-2.69-6-6-6S767,417.01,767,420.32z"/>
			<path class="st2" d="M363.59,167.77c0.3,0,0.59-0.12,0.8-0.33c0.44-0.45,0.44-1.17,0-1.62l-8.95-8.95
				c-0.45-0.44-1.16-0.44-1.61,0c-0.44,0.44-0.45,1.15-0.01,1.6c0,0,0.01,0.01,0.01,0.01l8.95,9
				C363,167.68,363.29,167.78,363.59,167.77z"/>
			<path class="st2" d="M354.63,167.77c0.3,0,0.59-0.12,0.81-0.33l8.95-9c0.42-0.47,0.38-1.19-0.08-1.61
				c-0.43-0.39-1.09-0.39-1.53,0l-8.95,8.95c-0.45,0.44-0.45,1.16-0.01,1.61c0,0,0.01,0.01,0.01,0.01
				C354.04,167.63,354.32,167.76,354.63,167.77z"/>
			<path class="st1" d="M384.49,609.86c0.63,0.02,1.17-0.48,1.19-1.11c0.01-0.34-0.13-0.66-0.38-0.89l-8.95-8.86
				c-0.47-0.42-1.19-0.38-1.61,0.08c-0.39,0.43-0.39,1.09,0,1.53l8.95,8.95C383.91,609.76,384.19,609.87,384.49,609.86z"/>
			<path class="st1" d="M375.54,609.86c0.3,0,0.59-0.13,0.81-0.34l8.95-8.95c0.44-0.45,0.44-1.16,0-1.61
				c-0.44-0.44-1.15-0.45-1.6-0.01c0,0-0.01,0.01-0.01,0.01l-8.95,8.95c-0.47,0.43-0.5,1.15-0.08,1.62
				c0.22,0.25,0.54,0.38,0.88,0.38V609.86z"/>
			<path class="st3" d="M810,311.32c0,3.31,2.69,6,6,6s6-2.69,6-6s-2.69-6-6-6S810,308.01,810,311.32z"/>
			<g class="st4">
				<path class="st5" d="M907.11,112.79c2.06-6.09,3.49-6.16,5.59-6.51c3.48-0.58,5.95,3.53,9.64,2.9
					c4.47-0.77,3.81-9.34,9.41-11.58c4.67-1.87,7.57,3.1,12.3,1.45c6.17-2.17,2.87-10.49,8.72-13c2.54-1.08,5.05-2.33,10.47,0.87"/>
				<path class="st6" d="M485.71,678.47l-8.71,4.18c-0.56,0.26-1.22,0.2-1.72-0.17l-7.28-5.42c-0.73-0.55-1.77-0.41-2.32,0.33
					c-0.27,0.36-0.38,0.81-0.32,1.25l1.37,9c0.1,0.61-0.16,1.23-0.66,1.59L458.2,695c-0.75,0.52-0.94,1.56-0.41,2.31
					c0.26,0.37,0.65,0.62,1.09,0.69l9.54,1.75c0.61,0.11,1.1,0.54,1.29,1.13l2.73,8.82c0.28,0.88,1.21,1.37,2.09,1.09
					c0.41-0.13,0.76-0.41,0.97-0.79l4.48-8.2c0.29-0.53,0.85-0.86,1.45-0.87l9.34-0.08c0.92,0,1.66-0.74,1.66-1.66
					c0-0.44-0.17-0.86-0.48-1.17l-6.47-6.59c-0.43-0.44-0.58-1.09-0.38-1.67l3-9.23c0.32-0.88-0.14-1.85-1.02-2.16
					C486.63,678.21,486.13,678.24,485.71,678.47z"/>
				<path class="st6" d="M274.37,1.75l-8.76,4.18c-0.56,0.26-1.21,0.2-1.71-0.17l-7.28-5.42c-0.74-0.54-1.78-0.38-2.32,0.36
					c-0.26,0.35-0.36,0.79-0.3,1.22l1.37,9c0.1,0.62-0.16,1.24-0.67,1.6l-7.82,5.75c-0.75,0.54-0.92,1.58-0.38,2.33
					c0.26,0.35,0.64,0.59,1.07,0.67l9.51,1.73c0.61,0.11,1.11,0.54,1.3,1.13l2.73,8.82c0.28,0.88,1.22,1.36,2.1,1.08
					c0.4-0.13,0.74-0.41,0.95-0.78l4.48-8.2c0.29-0.53,0.85-0.86,1.45-0.87l9.35-0.08c0.92,0,1.66-0.75,1.65-1.67
					c0-0.44-0.18-0.85-0.48-1.16l-6.46-6.59c-0.43-0.44-0.58-1.08-0.39-1.67l3-9.23c0.3-0.89-0.18-1.84-1.07-2.14
					C275.25,1.5,274.78,1.54,274.37,1.75z"/>
				<path class="st6" d="M630.94,52.21L612,32.58c-1.86-1.86-1.87-4.88,0-6.75c0.12-0.12,0.25-0.24,0.38-0.34l0,0
					c2.3-1.81,5.6-1.61,7.66,0.47L639,45.6c1.86,1.86,1.86,4.87,0.01,6.73c-0.12,0.12-0.25,0.24-0.39,0.35l0,0
					C636.32,54.51,633,54.3,630.94,52.21z"/>
				<path class="st6" d="M639,32.75l-19,19.13c-2.09,2.02-5.34,2.21-7.65,0.45l0,0c-1.99-1.56-2.34-4.43-0.78-6.42
					c0.14-0.18,0.29-0.34,0.45-0.49L631,26.3c2.09-2.03,5.34-2.22,7.65-0.45l0,0c1.99,1.55,2.35,4.41,0.8,6.4
					C639.31,32.43,639.16,32.59,639,32.75z"/>
				<path class="st5" d="M749.55,530.39c6.59-2.71,12.92,1.44,15.63,7.41c3.62,8-0.9,22.69,18.81,21.34"/>
				<path class="st5" d="M4.56,330.81C2.35,324,7,318,13.12,315.78c8.21-3,22.56,2.6,22.69-17.16"/>
				<circle class="st5" cx="93.63" cy="707.57" r="10.34"/>
				<path class="st6" d="M809.37,177.75l-8.76,4.18c-0.56,0.26-1.21,0.2-1.71-0.17l-7.28-5.42c-0.73-0.55-1.77-0.41-2.32,0.33
					c-0.27,0.36-0.38,0.81-0.32,1.25l1.37,9c0.1,0.62-0.16,1.24-0.67,1.6l-7.82,5.75c-0.75,0.54-0.92,1.58-0.38,2.33
					c0.26,0.35,0.64,0.59,1.07,0.67l9.53,1.75c0.61,0.11,1.11,0.54,1.3,1.13l2.73,8.82c0.31,0.87,1.27,1.32,2.14,1.01
					c0.36-0.13,0.67-0.38,0.86-0.71l4.48-8.2c0.29-0.53,0.85-0.86,1.45-0.87l9.35-0.08c0.92,0,1.66-0.75,1.65-1.67
					c0-0.44-0.18-0.85-0.48-1.16l-6.46-6.59c-0.43-0.44-0.58-1.08-0.39-1.67l3-9.23c0.29-0.89-0.19-1.84-1.08-2.13
					C810.22,177.53,809.76,177.56,809.37,177.75z"/>
			</g>
			<path class="st7" d="M907.11,112.79c2.06-6.09,3.49-6.16,5.59-6.51c3.48-0.58,5.95,3.53,9.64,2.9c4.47-0.77,3.81-9.34,9.41-11.58
				c4.67-1.87,7.57,3.1,12.3,1.45c6.17-2.17,2.87-10.49,8.72-13c2.54-1.08,5.05-2.33,10.47,0.87"/>
			<path class="st8" d="M485.71,678.47l-8.71,4.18c-0.56,0.26-1.22,0.2-1.72-0.17l-7.28-5.42c-0.73-0.55-1.77-0.41-2.32,0.33
				c-0.27,0.36-0.38,0.81-0.32,1.25l1.37,9c0.1,0.61-0.16,1.23-0.66,1.59L458.2,695c-0.75,0.52-0.94,1.56-0.41,2.31
				c0.26,0.37,0.65,0.62,1.09,0.69l9.54,1.75c0.61,0.11,1.1,0.54,1.29,1.13l2.73,8.82c0.28,0.88,1.21,1.37,2.09,1.09
				c0.41-0.13,0.76-0.41,0.97-0.79l4.48-8.2c0.29-0.53,0.85-0.86,1.45-0.87l9.34-0.08c0.92,0,1.66-0.74,1.66-1.66
				c0-0.44-0.17-0.86-0.48-1.17l-6.47-6.59c-0.43-0.44-0.58-1.09-0.38-1.67l3-9.23c0.32-0.88-0.14-1.85-1.02-2.16
				C486.63,678.21,486.13,678.24,485.71,678.47z"/>
			<path class="st9" d="M274.37,1.75l-8.76,4.18c-0.56,0.26-1.21,0.2-1.71-0.17l-7.28-5.42c-0.74-0.54-1.78-0.38-2.32,0.36
				c-0.26,0.35-0.36,0.79-0.3,1.22l1.37,9c0.1,0.62-0.16,1.24-0.67,1.6l-7.82,5.75c-0.75,0.54-0.92,1.58-0.38,2.33
				c0.26,0.35,0.64,0.59,1.07,0.67l9.51,1.73c0.61,0.11,1.11,0.54,1.3,1.13l2.73,8.82c0.28,0.88,1.22,1.36,2.1,1.08
				c0.4-0.13,0.74-0.41,0.95-0.78l4.48-8.2c0.29-0.53,0.85-0.86,1.45-0.87l9.35-0.08c0.92,0,1.66-0.75,1.65-1.67
				c0-0.44-0.18-0.85-0.48-1.16l-6.46-6.59c-0.43-0.44-0.58-1.08-0.39-1.67l3-9.23c0.3-0.89-0.18-1.84-1.07-2.14
				C275.25,1.5,274.78,1.54,274.37,1.75z"/>
			<path class="st10" d="M630.94,52.21L612,32.58c-1.86-1.86-1.87-4.88,0-6.75c0.12-0.12,0.25-0.24,0.38-0.34l0,0
				c2.3-1.81,5.6-1.61,7.66,0.47L639,45.6c1.86,1.86,1.86,4.87,0.01,6.73c-0.12,0.12-0.25,0.24-0.39,0.35l0,0
				C636.32,54.51,633,54.3,630.94,52.21z"/>
			<path class="st10" d="M639,32.75l-19,19.13c-2.09,2.02-5.34,2.21-7.65,0.45l0,0c-1.99-1.56-2.34-4.43-0.78-6.42
				c0.14-0.18,0.29-0.34,0.45-0.49L631,26.3c2.09-2.03,5.34-2.22,7.65-0.45l0,0c1.99,1.55,2.35,4.41,0.8,6.4
				C639.31,32.43,639.16,32.59,639,32.75z"/>
			<path class="st11" d="M749.55,530.39c6.59-2.71,12.92,1.44,15.63,7.41c3.62,8-0.9,22.69,18.81,21.34"/>
			<path class="st11" d="M4.56,330.81C2.35,324,7,318,13.12,315.78c8.21-3,22.56,2.6,22.69-17.16"/>
			<circle class="st7" cx="93.63" cy="707.57" r="10.34"/>
			<path class="st9" d="M809.37,177.75l-8.76,4.18c-0.56,0.26-1.21,0.2-1.71-0.17l-7.28-5.42c-0.73-0.55-1.77-0.41-2.32,0.33
				c-0.27,0.36-0.38,0.81-0.32,1.25l1.37,9c0.1,0.62-0.16,1.24-0.67,1.6l-7.82,5.75c-0.75,0.54-0.92,1.58-0.38,2.33
				c0.26,0.35,0.64,0.59,1.07,0.67l9.53,1.75c0.61,0.11,1.11,0.54,1.3,1.13l2.73,8.82c0.31,0.87,1.27,1.32,2.14,1.01
				c0.36-0.13,0.67-0.38,0.86-0.71l4.48-8.2c0.29-0.53,0.85-0.86,1.45-0.87l9.35-0.08c0.92,0,1.66-0.75,1.65-1.67
				c0-0.44-0.18-0.85-0.48-1.16l-6.46-6.59c-0.43-0.44-0.58-1.08-0.39-1.67l3-9.23c0.29-0.89-0.19-1.84-1.08-2.13
				C810.22,177.53,809.76,177.56,809.37,177.75z"/>
		</g>
	</g>
</g>
</svg>
