<?xml version="1.0" encoding="utf-8"?>
<!-- Generator: Adobe Illustrator 23.0.3, SVG Export Plug-In . SVG Version: 6.00 Build 0)  -->
<svg version="1.1" id="Слой_2" xmlns="http://www.w3.org/2000/svg" xmlns:xlink="http://www.w3.org/1999/xlink" x="0px" y="0px"
	 viewBox="0 0 435.4 449.4" style="enable-background:new 0 0 435.4 449.4;" xml:space="preserve">
<style type="text/css">
	.st0{clip-path:url(#SVGID_2_);fill:#E8F1FA;}
	.st1{clip-path:url(#SVGID_2_);fill:#E5EEFE;}
	.st2{clip-path:url(#SVGID_4_);fill:#FEC02A;}
	.st3{clip-path:url(#SVGID_4_);fill:#31C9AC;}
	.st4{fill:#627AF4;}
	.st5{fill:#4C59E0;}
	.st6{fill:#FFFFFF;}
	.st7{fill:#1D2BD6;}
	.st8{fill:#171FC5;}
	.st9{fill:#FEC02A;}
	.st10{fill:#FD9107;}
	.st11{fill:#00B7E1;}
	.st12{fill:#FFD23C;}
	.st13{fill:#19D2C0;}
	.st14{fill:#E9007F;}
</style>
<g>
	<g>
		<defs>
			<polyline id="SVGID_1_" points="9.5,36 435.4,36 435.4,449.4 9.5,449.4 9.5,36 			"/>
		</defs>
		<clipPath id="SVGID_2_">
			<use xlink:href="#SVGID_1_"  style="overflow:visible;"/>
		</clipPath>
		<path class="st0" d="M388.2,285.2c-4.5,15.6-11.1,30.5-19.8,44.4c-0.3,0.4-0.5,0.9-0.8,1.3c6.6,5.3,10.8,13.4,10.8,22.4l0,0l0,0
			l0,0c0,15.9-12.9,28.8-28.8,28.8c-7.9,0-15.1-3.2-20.3-8.4c-7.5,6.1-15.5,11.5-23.9,16.3c-3,1.7-6,3.3-9.1,4.8
			c3.8,0.2,7.7,0.4,11.5,0.6c8.6,0.5,17.1,0.7,25.7,0.7c11.8,0,23.7-0.4,35.4-1.3c13.5-1,27.2-2.7,39.5-8.4
			c12.3-5.7,23-16.1,26.1-29.3c3.8-16.5-5.2-33.6-17.7-45.1c-6.6-6.1-14.2-11.1-20.6-17.5C393.3,291.7,390.6,288.6,388.2,285.2
			 M189.5,160.6L189.5,160.6c9-3.4,18.7-5.3,28.9-5.3l0,0c0,0,0,0,0.1,0c0,0,0,0,0,0c0,0,0,0,0,0c0,0,0,0,0,0c0,0,0,0,0,0
			c0,0,0,0,0,0c0,0,0,0,0,0c0,0,0,0,0,0c0,0,0,0,0,0c0,0,0,0,0,0c0,0,0,0,0,0c0,0,0,0,0,0c0,0,0,0,0,0c0,0,0,0,0,0c0,0,0,0,0,0
			c0,0,0,0,0,0c0,0,0,0,0,0c0,0,0,0,0,0c0,0,0,0,0.1,0c0,0,0,0,0,0c0,0,0,0,0.1,0c0,0,0,0,0,0c0,0,0,0,0,0c0,0,0,0,0,0c0,0,0,0,0,0
			c0,0,0,0,0,0c0,0,0,0,0,0c0,0,0,0,0,0c0,0,0,0,0,0c0,0,0,0,0,0c0,0,0,0,0,0c0,0,0,0,0,0c0,0,0,0,0,0c0,0,0,0,0,0c0,0,0,0,0,0
			c0,0,0,0,0,0c0,0,0,0,0,0c0,0,0,0,0,0c0,0,0.1,0,0.1,0c0,0,0,0,0,0c0,0,0,0,0.1,0c0,0,0,0,0,0c0,0,0,0,0,0c0,0,0,0,0,0
			c0,0,0,0,0,0c0,0,0,0,0,0c0,0,0,0,0,0c0,0,0,0,0,0c0,0,0,0,0,0c0,0,0,0,0,0c0,0,0,0,0,0c0,0,0,0,0,0c0,0,0,0,0,0c0,0,0,0,0,0
			c0,0,0,0,0.1,0l0,0c0,0,0.1,0,0.1,0l0,0c0,0,0,0,0.1,0c0,0,0,0,0,0c0,0,0,0,0,0c0,0,0,0,0,0c0,0,0,0,0,0c0,0,0,0,0,0c0,0,0,0,0,0
			c0,0,0,0,0,0c0,0,0,0,0,0c0,0,0,0,0,0c0,0,0,0,0,0c0,0,0,0,0,0c0,0,0,0,0.1,0c0,0,0,0,0,0c0,0,0,0,0.1,0c0,0,0,0,0,0
			c0.1,0,0.1,0,0.2,0l0,0c0,0,0,0,0.1,0c0,0,0,0,0,0c0,0,0,0,0.1,0c0,0,0,0,0,0c0,0,0,0,0.1,0c0,0,0,0,0,0c0,0,0,0,0.1,0
			c0,0,0,0,0,0c0,0,0,0,0.1,0c0,0,0,0,0,0c0,0,0,0,0.1,0c0,0,0,0,0,0c0.1,0,0.2,0,0.3,0l0,0c0,0,0,0,0.1,0l0,0c0,0,0,0,0.1,0
			c0,0,0,0,0,0c0,0,0,0,0.1,0l0,0c0,0,0,0,0.1,0c0,0,0,0,0,0c0,0,0,0,0.1,0l0,0c0.1,0,0.3,0,0.4,0l0,0c9.9,0.5,19.4,2.8,28.1,6.6
			c0,0,0,0,0,0c0,0,0,0,0,0c0,0,0,0,0,0c0,0,0,0,0,0c0,0,0,0,0,0c0,0,0,0,0,0c0,0,0,0,0,0c0,0,0,0,0,0c0,0,0,0,0,0c0,0,0,0,0,0
			c0,0,0,0,0,0c0,0,0,0,0,0c0,0,0,0,0,0c0,0,0,0,0,0c0.1,0,0.2,0.1,0.3,0.1l0,0c0,0,0.1,0,0.1,0l0,0c27.2,12.2,46.5,39,47.9,70.4
			c0,0,0,0,0,0c0,0,0,0.1,0,0.1c0,0,0,0,0,0c0,0,0,0.1,0,0.1c0,0,0,0,0,0c0,0,0,0,0,0.1c0,0,0,0,0,0c0,0,0,0,0,0.1c0,0,0,0,0,0
			c0,0,0,0,0,0c0,0,0,0,0,0c0,0,0,0,0,0c0,0,0,0.1,0,0.1c0,0,0,0,0,0c0,0,0,0,0,0.1c0,0,0,0,0,0c0,0,0,0.1,0,0.1c0,0,0,0,0,0
			c0,0,0,0,0,0.1c0,0,0,0,0,0c0,0.1,0,0.1,0,0.2c0,0,0,0,0,0c0,0.1,0,0.1,0,0.2c0,0,0,0,0,0c0,0.1,0,0.1,0,0.2c0,0,0,0,0,0
			c0,0,0,0,0,0.1l0,0c0,0,0,0.1,0,0.1c0,0,0,0,0,0c0,0,0,0,0,0.1c0,0,0,0,0,0c0,0,0,0.1,0,0.1c0,0,0,0,0,0c0,0,0,0,0,0.1
			c0,0,0,0,0,0c0,0,0,0.1,0,0.1c0,0,0,0,0,0c0,0,0,0,0,0.1c0,0,0,0,0,0c0,0,0,0,0,0c0,0,0,0,0,0c0,0,0,0,0,0.1c0,0,0,0,0,0
			c0,0,0,0,0,0c0,0,0,0,0,0c0,0,0,0,0,0.1c0,0,0,0,0,0c0,0,0,0,0,0c0,0,0,0,0,0.1c0,0,0,0,0,0c0,0,0,0,0,0.1c0,0,0,0,0,0
			c0,0,0,0,0,0.1c0,0,0,0,0,0c0,0,0,0.1,0,0.1c0,0,0,0,0,0c0,0,0,0,0,0.1c0,0,0,0,0,0c0,0,0,0.1,0,0.1c0,0,0,0,0,0c0,0,0,0,0,0.1
			c0,0,0,0,0,0c0,0,0,0.1,0,0.1c0,0,0,0,0,0c0,0,0,0,0,0.1c0,0,0,0,0,0c0,0,0,0.1,0,0.1l0,0l0,0l0,0l0,0l0,0l0,0l0,0
			c0,15.7-4.5,30.4-12.2,42.8c-14.3,22.9-39.7,38.1-68.7,38.1c-2.2,0-4.4-0.1-6.5-0.3c-20.2-1.6-38.4-10.7-51.7-24.5l0,0
			c-11.6-12-19.5-27.6-21.9-44.9c-0.5-3.7-0.8-7.5-0.8-11.3c0-17,5.2-32.8,14.2-45.8l0,0l0,0C160.9,177,174.1,166.5,189.5,160.6
			L189.5,160.6 M218.4,119c-14.4,0-28.5,2.6-41.9,7.7c-20.9,8-38.8,21.6-52.1,39.5c4.5,3.4,7.3,8.8,7.3,14.9l0,0l0,0l0,0
			c0,10.3-8.4,18.7-18.7,18.7c-2,0-3.9-0.3-5.7-0.9c-4,11.9-6,24.5-6,37.3c0,5.5,0.4,11,1.1,16.3c3.4,24.6,14.4,47.1,31.8,65.1
			c19.9,20.6,46.5,33.2,74.9,35.4c3.1,0.2,6.3,0.4,9.5,0.4c20.2,0,40.2-5.2,57.7-15.2c17-9.6,31.4-23.5,41.8-40
			c11.6-18.6,17.7-40,17.7-62c0-5.8-0.4-11.6-1.3-17.2c-4.1-27.5-17.9-52.8-39-71.2C274,129.2,246.7,119,218.4,119 M217,380.3
			c-0.7,0-1.3,0-2,0c-0.6,0-1-0.5-1-1c0-0.5,0.5-1,1-1l0,0c0.7,0,1.3,0,2,0c0.6,0,1,0.5,1,1C218,379.9,217.6,380.3,217,380.3
			L217,380.3 M229.1,379.9c-0.5,0-1-0.4-1-0.9c0-0.5,0.4-1,0.9-1.1c0.7,0,1.3-0.1,2-0.2c0,0,0.1,0,0.1,0c0.5,0,0.9,0.4,1,0.9
			c0,0.5-0.4,1-0.9,1.1C230.5,379.8,229.8,379.9,229.1,379.9L229.1,379.9 M203,379.5l-0.1,0c-0.7-0.1-1.3-0.1-2-0.2
			c-0.5-0.1-0.9-0.6-0.9-1.1c0.1-0.5,0.5-0.9,1-0.9c0,0,0.1,0,0.1,0c0.7,0.1,1.3,0.2,2,0.2c0.5,0.1,0.9,0.6,0.9,1.1
			C203.9,379.1,203.5,379.5,203,379.5 M243,378.2c-0.5,0-0.9-0.3-1-0.8c-0.1-0.5,0.3-1.1,0.8-1.2c0.7-0.1,1.3-0.2,2-0.4
			c0.1,0,0.1,0,0.2,0c0.5,0,0.9,0.3,1,0.8c0.1,0.5-0.3,1.1-0.8,1.2c-0.7,0.1-1.3,0.2-2,0.4L243,378.2 M189.1,377.3l-0.2,0
			c-0.7-0.1-1.3-0.3-2-0.4c-0.5-0.1-0.9-0.7-0.8-1.2c0.1-0.5,0.5-0.8,1-0.8c0.1,0,0.1,0,0.2,0c0.6,0.1,1.3,0.3,2,0.4
			c0.5,0.1,0.9,0.6,0.8,1.2C190,377,189.6,377.3,189.1,377.3 M256.7,375.1c-0.4,0-0.8-0.3-1-0.7c-0.1-0.5,0.2-1.1,0.7-1.2
			c0.6-0.2,1.3-0.4,1.9-0.5c0.1,0,0.2,0,0.3,0c0.4,0,0.8,0.3,1,0.7c0.2,0.5-0.1,1.1-0.7,1.2c-0.6,0.2-1.3,0.4-1.9,0.6L256.7,375.1
			 M175.5,373.8c-0.1,0-0.2,0-0.3,0c-0.6-0.2-1.3-0.4-1.9-0.6c-0.5-0.2-0.8-0.7-0.6-1.3c0.1-0.4,0.5-0.7,0.9-0.7
			c0.1,0,0.2,0,0.3,0.1c0.6,0.2,1.3,0.4,1.9,0.6c0.5,0.2,0.8,0.7,0.7,1.3C176.3,373.5,175.9,373.8,175.5,373.8 M270,370.7
			c-0.4,0-0.8-0.2-0.9-0.6c-0.2-0.5,0.1-1.1,0.6-1.3c0.6-0.2,1.2-0.5,1.8-0.7c0.1,0,0.2-0.1,0.4-0.1c0.4,0,0.8,0.2,0.9,0.6
			c0.2,0.5,0,1.1-0.6,1.3c-0.6,0.3-1.2,0.5-1.9,0.7C270.3,370.7,270.2,370.7,270,370.7 M162.3,368.9c-0.1,0-0.3,0-0.4-0.1
			c-0.6-0.3-1.2-0.5-1.9-0.8c-0.5-0.2-0.7-0.8-0.5-1.3c0.2-0.4,0.5-0.6,0.9-0.6c0.1,0,0.3,0,0.4,0.1c0.6,0.3,1.2,0.5,1.8,0.8
			c0.5,0.2,0.7,0.8,0.5,1.3C163.1,368.7,162.7,368.9,162.3,368.9 M282.9,365c-0.4,0-0.7-0.2-0.9-0.5c-0.2-0.5-0.1-1.1,0.4-1.3
			c0.6-0.3,1.2-0.6,1.8-0.9c0.1-0.1,0.3-0.1,0.5-0.1c0.4,0,0.7,0.2,0.9,0.5c0.3,0.5,0.1,1.1-0.4,1.3c-0.6,0.3-1.2,0.6-1.8,0.9
			C283.2,365,283,365,282.9,365 M149.7,362.8c-0.2,0-0.3,0-0.5-0.1c-0.6-0.3-1.2-0.7-1.8-1c-0.5-0.3-0.6-0.9-0.4-1.4
			c0.2-0.3,0.5-0.5,0.9-0.5c0.2,0,0.3,0,0.5,0.1c0.6,0.3,1.2,0.7,1.7,1c0.5,0.3,0.7,0.9,0.4,1.4
			C150.4,362.6,150.1,362.8,149.7,362.8 M295.1,358.1c-0.3,0-0.7-0.2-0.8-0.5c-0.3-0.5-0.2-1.1,0.3-1.4c0.6-0.4,1.1-0.7,1.7-1.1
			c0.2-0.1,0.4-0.2,0.5-0.2c0.3,0,0.6,0.2,0.8,0.5c0.3,0.5,0.2,1.1-0.3,1.4c-0.6,0.4-1.1,0.7-1.7,1.1
			C295.5,358,295.3,358.1,295.1,358.1 M137.7,355.4c-0.2,0-0.4-0.1-0.6-0.2c-0.6-0.4-1.1-0.8-1.7-1.2c-0.5-0.3-0.6-0.9-0.2-1.4
			c0.2-0.3,0.5-0.4,0.8-0.4c0.2,0,0.4,0.1,0.6,0.2c0.5,0.4,1.1,0.8,1.6,1.1c0.5,0.3,0.6,0.9,0.3,1.4
			C138.4,355.3,138,355.4,137.7,355.4 M306.6,350c-0.3,0-0.6-0.1-0.8-0.4c-0.3-0.4-0.3-1.1,0.2-1.4c0.5-0.4,1-0.8,1.6-1.2
			c0.2-0.1,0.4-0.2,0.6-0.2c0.3,0,0.6,0.1,0.8,0.4c0.3,0.4,0.3,1.1-0.2,1.4c-0.5,0.4-1.1,0.8-1.6,1.3C307,349.9,306.8,350,306.6,350
			 M126.5,346.9c-0.2,0-0.5-0.1-0.6-0.2c-0.5-0.4-1-0.9-1.5-1.3c-0.4-0.4-0.5-1-0.1-1.4c0.2-0.2,0.5-0.3,0.8-0.3
			c0.2,0,0.5,0.1,0.7,0.2c0.5,0.4,1,0.9,1.5,1.3c0.4,0.4,0.5,1,0.1,1.4C127.1,346.8,126.8,346.9,126.5,346.9 M317.2,340.8
			c-0.3,0-0.5-0.1-0.7-0.3c-0.4-0.4-0.4-1,0-1.4c0.5-0.5,1-0.9,1.4-1.4c0.2-0.2,0.4-0.3,0.7-0.3c0.3,0,0.5,0.1,0.7,0.3
			c0.4,0.4,0.4,1,0,1.4c-0.5,0.5-1,0.9-1.5,1.4C317.7,340.7,317.4,340.8,317.2,340.8 M326.9,330.6c-0.2,0-0.5-0.1-0.7-0.2
			c-0.4-0.4-0.5-1-0.1-1.4c0.4-0.5,0.9-1,1.3-1.5c0.2-0.2,0.5-0.4,0.8-0.4c0.2,0,0.5,0.1,0.6,0.2c0.4,0.4,0.5,1,0.1,1.4
			c-0.4,0.5-0.9,1-1.3,1.5C327.4,330.5,327.1,330.6,326.9,330.6 M106.8,326.8c-0.3,0-0.6-0.1-0.8-0.4c-0.4-0.5-0.8-1.1-1.3-1.6
			c-0.3-0.4-0.3-1.1,0.2-1.4c0.2-0.1,0.4-0.2,0.6-0.2c0.3,0,0.6,0.1,0.8,0.4c0.4,0.5,0.8,1,1.2,1.6c0.3,0.4,0.3,1.1-0.2,1.4
			C107.3,326.7,107,326.8,106.8,326.8 M335.5,319.5c-0.2,0-0.4-0.1-0.6-0.2c-0.5-0.3-0.6-0.9-0.2-1.4c0.4-0.5,0.8-1.1,1.1-1.6
			c0.2-0.3,0.5-0.4,0.8-0.4c0.2,0,0.4,0.1,0.6,0.2c0.5,0.3,0.6,0.9,0.3,1.4c-0.4,0.6-0.8,1.1-1.2,1.7
			C336.1,319.4,335.8,319.5,335.5,319.5 M98.6,315.5c-0.3,0-0.6-0.2-0.8-0.5c-0.4-0.6-0.7-1.1-1.1-1.7c-0.3-0.5-0.2-1.1,0.3-1.4
			c0.2-0.1,0.4-0.2,0.5-0.2c0.3,0,0.7,0.2,0.8,0.5c0.4,0.6,0.7,1.1,1.1,1.7c0.3,0.5,0.2,1.1-0.3,1.4
			C98.9,315.4,98.7,315.5,98.6,315.5 M343,307.7c-0.2,0-0.3,0-0.5-0.1c-0.5-0.3-0.6-0.9-0.4-1.4c0.3-0.6,0.7-1.2,1-1.7
			c0.2-0.3,0.5-0.5,0.9-0.5c0.2,0,0.3,0,0.5,0.1c0.5,0.3,0.7,0.9,0.4,1.4c-0.3,0.6-0.7,1.2-1,1.8C343.7,307.5,343.4,307.7,343,307.7
			 M91.5,303.3c-0.4,0-0.7-0.2-0.9-0.5c-0.3-0.6-0.6-1.2-0.9-1.8c-0.2-0.5-0.1-1.1,0.4-1.3c0.1-0.1,0.3-0.1,0.4-0.1
			c0.4,0,0.7,0.2,0.9,0.5c0.3,0.6,0.6,1.2,0.9,1.8c0.3,0.5,0.1,1.1-0.4,1.3C91.8,303.3,91.6,303.3,91.5,303.3 M349.4,295.1
			c-0.1,0-0.3,0-0.4-0.1c-0.5-0.2-0.7-0.8-0.5-1.3c0.3-0.6,0.5-1.2,0.8-1.8c0.2-0.4,0.5-0.6,0.9-0.6c0.1,0,0.3,0,0.4,0.1
			c0.5,0.2,0.7,0.8,0.5,1.3c-0.3,0.6-0.5,1.2-0.8,1.9C350.1,294.9,349.7,295.1,349.4,295.1 M85.6,290.6c-0.4,0-0.8-0.2-0.9-0.6
			c-0.3-0.6-0.5-1.3-0.7-1.9c-0.2-0.5,0.1-1.1,0.6-1.3c0.1,0,0.2-0.1,0.4-0.1c0.4,0,0.8,0.2,0.9,0.6c0.2,0.6,0.5,1.2,0.7,1.9
			c0.2,0.5,0,1.1-0.6,1.3C85.8,290.6,85.7,290.6,85.6,290.6 M354.4,282c-0.1,0-0.2,0-0.3-0.1c-0.5-0.2-0.8-0.7-0.6-1.3
			c0.2-0.6,0.4-1.3,0.6-1.9c0.1-0.4,0.5-0.7,0.9-0.7c0.1,0,0.2,0,0.3,0c0.5,0.2,0.8,0.7,0.7,1.3c-0.2,0.6-0.4,1.3-0.6,1.9
			C355.2,281.8,354.8,282,354.4,282 M81,277.3c-0.4,0-0.8-0.3-1-0.7c-0.2-0.6-0.4-1.3-0.6-1.9c-0.1-0.5,0.2-1.1,0.7-1.2
			c0.1,0,0.2,0,0.3,0c0.4,0,0.8,0.3,1,0.7c0.2,0.6,0.4,1.3,0.5,1.9c0.2,0.5-0.2,1.1-0.7,1.2C81.2,277.3,81.1,277.3,81,277.3
			 M358.2,268.5l-0.2,0c-0.5-0.1-0.9-0.7-0.8-1.2c0.1-0.6,0.3-1.3,0.4-2c0.1-0.5,0.5-0.8,1-0.8c0.1,0,0.1,0,0.2,0
			c0.5,0.1,0.9,0.6,0.8,1.2c-0.1,0.7-0.3,1.3-0.4,2C359,268.2,358.6,268.5,358.2,268.5 M77.7,263.6c-0.5,0-0.9-0.3-1-0.8
			c-0.1-0.7-0.2-1.3-0.4-2c-0.1-0.5,0.3-1.1,0.8-1.2c0.1,0,0.1,0,0.2,0c0.5,0,0.9,0.3,1,0.8c0.1,0.7,0.2,1.3,0.4,2
			c0.1,0.5-0.3,1.1-0.8,1.2L77.7,263.6 M360.5,254.6l-0.1,0c-0.5-0.1-0.9-0.6-0.9-1.1c0.1-0.7,0.2-1.3,0.2-2c0.1-0.5,0.5-0.9,1-0.9
			c0,0,0.1,0,0.1,0c0.5,0.1,0.9,0.6,0.9,1.1c-0.1,0.7-0.1,1.3-0.2,2C361.5,254.2,361,254.6,360.5,254.6 M75.8,249.7
			c-0.5,0-0.9-0.4-1-0.9c-0.1-0.7-0.1-1.3-0.2-2c0-0.5,0.4-1,0.9-1.1c0,0,0.1,0,0.1,0c0.5,0,1,0.4,1,0.9c0,0.7,0.1,1.3,0.2,2
			C76.9,249.2,76.5,249.7,75.8,249.7L75.8,249.7 M361.5,240.6L361.5,240.6c-0.6,0-1-0.5-1-1c0-0.7,0-1.3,0-2c0-0.5,0.5-1,1-1h0
			c0.6,0,1,0.5,1,1c0,0.7,0,1.4,0,2C362.5,240.2,362.1,240.6,361.5,240.6 M75.3,235.7c-0.6,0-1-0.5-1-1c0-0.7,0-1.4,0-2
			c0-0.5,0.5-1,1-1l0,0c0.6,0,1,0.5,1,1c0,0.7,0,1.3,0,2C76.3,235.2,75.8,235.7,75.3,235.7L75.3,235.7 M361.2,226.5
			c-0.5,0-1-0.4-1-0.9c0-0.7-0.1-1.3-0.2-2c0-0.5,0.4-1,0.9-1.1c0,0,0.1,0,0.1,0c0.5,0,0.9,0.4,1,0.9c0.1,0.7,0.1,1.3,0.2,2
			C362.2,226,361.8,226.5,361.2,226.5L361.2,226.5 M76.1,221.7l-0.1,0c-0.5-0.1-0.9-0.6-0.9-1.1c0.1-0.7,0.1-1.3,0.2-2
			c0.1-0.5,0.5-0.9,1-0.9c0,0,0.1,0,0.1,0c0.5,0.1,0.9,0.6,0.9,1.1c-0.1,0.7-0.2,1.3-0.2,2C77,221.3,76.6,221.7,76.1,221.7
			 M359.5,212.6c-0.5,0-0.9-0.3-1-0.8c-0.1-0.7-0.2-1.3-0.4-2c-0.1-0.5,0.3-1.1,0.8-1.2c0.1,0,0.1,0,0.2,0c0.5,0,0.9,0.3,1,0.8
			c0.1,0.7,0.2,1.3,0.4,2c0.1,0.5-0.3,1.1-0.8,1.2L359.5,212.6 M78.3,207.8l-0.2,0c-0.5-0.1-0.9-0.6-0.8-1.2c0.1-0.7,0.3-1.3,0.4-2
			c0.1-0.5,0.5-0.8,1-0.8c0.1,0,0.1,0,0.2,0c0.5,0.1,0.9,0.7,0.8,1.2c-0.1,0.6-0.3,1.3-0.4,2C79.2,207.4,78.8,207.8,78.3,207.8
			 M356.4,198.9c-0.4,0-0.8-0.3-1-0.7c-0.2-0.6-0.4-1.3-0.5-1.9c-0.2-0.5,0.1-1.1,0.7-1.2c0.1,0,0.2,0,0.3,0c0.4,0,0.8,0.3,1,0.7
			c0.2,0.6,0.4,1.3,0.6,1.9c0.1,0.5-0.2,1.1-0.7,1.2L356.4,198.9 M81.8,194.2c-0.1,0-0.2,0-0.3,0c-0.5-0.2-0.8-0.7-0.7-1.3
			c0.2-0.6,0.4-1.3,0.6-1.9c0.1-0.4,0.5-0.7,0.9-0.7c0.1,0,0.2,0,0.3,0.1c0.5,0.2,0.8,0.7,0.6,1.3c-0.2,0.6-0.4,1.3-0.6,1.9
			C82.7,193.9,82.3,194.2,81.8,194.2 M352,185.6c-0.4,0-0.8-0.2-0.9-0.6c-0.2-0.6-0.5-1.2-0.7-1.8c-0.2-0.5,0-1.1,0.6-1.3
			c0.1,0,0.2-0.1,0.4-0.1c0.4,0,0.8,0.2,0.9,0.6c0.2,0.6,0.5,1.2,0.7,1.9c0.2,0.5-0.1,1.1-0.6,1.3
			C352.2,185.5,352.1,185.6,352,185.6 M86.7,181c-0.1,0-0.3,0-0.4-0.1c-0.5-0.2-0.7-0.8-0.5-1.3c0.3-0.6,0.5-1.2,0.8-1.9
			c0.2-0.4,0.5-0.6,0.9-0.6c0.1,0,0.3,0,0.4,0.1c0.5,0.2,0.7,0.8,0.5,1.3c-0.3,0.6-0.5,1.2-0.8,1.8C87.5,180.8,87.1,181,86.7,181
			 M346.3,172.7c-0.4,0-0.7-0.2-0.9-0.5c-0.3-0.6-0.6-1.2-0.9-1.8c-0.3-0.5-0.1-1.1,0.4-1.3c0.1-0.1,0.3-0.1,0.5-0.1
			c0.4,0,0.7,0.2,0.9,0.5c0.3,0.6,0.6,1.2,0.9,1.8c0.2,0.5,0.1,1.1-0.4,1.3C346.6,172.7,346.5,172.7,346.3,172.7 M92.9,168.4
			c-0.2,0-0.3,0-0.5-0.1c-0.5-0.3-0.7-0.9-0.4-1.4c0.3-0.6,0.7-1.2,1-1.8c0.2-0.3,0.5-0.5,0.9-0.5c0.2,0,0.3,0,0.5,0.1
			c0.5,0.3,0.6,0.9,0.4,1.4c-0.3,0.6-0.7,1.2-1,1.7C93.6,168.2,93.2,168.4,92.9,168.4 M339.4,160.5c-0.3,0-0.7-0.2-0.8-0.5
			c-0.4-0.6-0.7-1.1-1.1-1.7c-0.3-0.5-0.2-1.1,0.3-1.4c0.2-0.1,0.4-0.2,0.5-0.2c0.3,0,0.6,0.2,0.8,0.5c0.4,0.6,0.7,1.1,1.1,1.7
			c0.3,0.5,0.2,1.1-0.3,1.4C339.7,160.5,339.5,160.5,339.4,160.5 M100.2,156.4c-0.2,0-0.4-0.1-0.6-0.2c-0.5-0.3-0.6-0.9-0.3-1.4
			l0.1-0.2c0.3-0.5,0.7-1,1-1.5c0.2-0.3,0.5-0.4,0.8-0.4c0.2,0,0.4,0.1,0.6,0.2c0.5,0.3,0.6,0.9,0.2,1.4c-0.3,0.5-0.7,1-1,1.4
			l-0.1,0.2C100.9,156.2,100.5,156.4,100.2,156.4 M331.3,149.1c-0.3,0-0.6-0.1-0.8-0.4c-0.4-0.5-0.8-1-1.2-1.6
			c-0.3-0.4-0.3-1.1,0.2-1.4c0.2-0.1,0.4-0.2,0.6-0.2c0.3,0,0.6,0.1,0.8,0.4c0.4,0.5,0.8,1.1,1.3,1.6c0.3,0.4,0.3,1.1-0.2,1.4
			C331.7,149,331.5,149.1,331.3,149.1 M108.7,145.2c-0.2,0-0.5-0.1-0.6-0.2c-0.4-0.4-0.5-1-0.1-1.4c0.4-0.5,0.9-1,1.3-1.5
			c0.2-0.2,0.5-0.3,0.8-0.3c0.2,0,0.5,0.1,0.7,0.2c0.4,0.4,0.5,1,0.1,1.4c-0.4,0.5-0.9,1-1.3,1.5C109.3,145.1,109,145.2,108.7,145.2
			 M322.1,138.4c-0.3,0-0.5-0.1-0.7-0.3c-0.5-0.5-0.9-1-1.4-1.4c-0.4-0.4-0.4-1,0-1.4c0.2-0.2,0.4-0.3,0.7-0.3
			c0.3,0,0.5,0.1,0.7,0.3c0.5,0.5,0.9,1,1.4,1.5c0.4,0.4,0.4,1,0,1.4C322.6,138.3,322.3,138.4,322.1,138.4 M118.3,134.9
			c-0.3,0-0.5-0.1-0.7-0.3c-0.4-0.4-0.4-1,0-1.4c0.5-0.5,1-0.9,1.5-1.4c0.2-0.2,0.4-0.3,0.7-0.3c0.3,0,0.5,0.1,0.7,0.3
			c0.4,0.4,0.4,1,0,1.4c-0.5,0.5-1,0.9-1.4,1.4C118.8,134.8,118.5,134.9,118.3,134.9 M311.9,128.7c-0.2,0-0.5-0.1-0.7-0.2
			c-0.5-0.4-1-0.9-1.5-1.3c-0.4-0.4-0.5-1-0.1-1.4c0.2-0.2,0.5-0.4,0.8-0.4c0.2,0,0.5,0.1,0.6,0.2c0.5,0.4,1,0.9,1.5,1.3
			c0.4,0.4,0.5,1,0.1,1.4C312.5,128.6,312.2,128.7,311.9,128.7 M128.8,125.6c-0.3,0-0.6-0.1-0.8-0.4c-0.3-0.4-0.3-1.1,0.2-1.4
			c0.5-0.4,1.1-0.8,1.6-1.3c0.2-0.1,0.4-0.2,0.6-0.2c0.3,0,0.6,0.1,0.8,0.4c0.3,0.4,0.3,1.1-0.2,1.4c-0.5,0.4-1,0.8-1.6,1.2
			C129.2,125.5,129,125.6,128.8,125.6 M300.8,120.1c-0.2,0-0.4-0.1-0.6-0.2c-0.5-0.4-1.1-0.8-1.6-1.1c-0.5-0.3-0.6-0.9-0.3-1.4
			c0.2-0.3,0.5-0.4,0.8-0.4c0.2,0,0.4,0.1,0.6,0.2c0.6,0.4,1.1,0.8,1.7,1.2c0.5,0.3,0.6,0.9,0.2,1.4
			C301.5,119.9,301.2,120.1,300.8,120.1 M121,164.1c13.8-18.7,32.4-32.8,54.1-41.1c13.8-5.3,28.4-8,43.3-8
			c29.3,0,57.5,10.6,79.5,29.8c21.8,19,36.2,45.1,40.3,73.6c0.9,5.8,1.3,11.8,1.3,17.8c0,22.7-6.3,44.9-18.3,64.1
			c-10.7,17.1-25.6,31.4-43.2,41.4c-18.1,10.3-38.7,15.7-59.7,15.7c-3.3,0-6.5-0.1-9.8-0.4c-29.4-2.3-56.9-15.4-77.4-36.6
			c-17.9-18.6-29.3-41.8-32.8-67.3c-0.8-5.6-1.2-11.2-1.2-16.9c0-13.4,2.2-26.5,6.4-38.9c-2.8-1.6-5.2-4-6.8-6.8v0
			c-0.3-0.5-0.5-1-0.8-1.5l0,0c-1.1-2.4-1.7-5-1.7-7.9c0-10.3,8.4-18.7,18.7-18.7C115.9,162.3,118.6,163,121,164.1 M140.1,117.3
			c-0.3,0-0.6-0.2-0.8-0.5c-0.3-0.5-0.2-1.1,0.3-1.4c0.6-0.4,1.1-0.7,1.7-1.1c0.2-0.1,0.4-0.2,0.5-0.2c0.3,0,0.7,0.2,0.8,0.5
			c0.3,0.5,0.2,1.1-0.3,1.4c-0.6,0.4-1.1,0.7-1.7,1.1C140.5,117.2,140.3,117.3,140.1,117.3 M152.3,110.2c-0.4,0-0.7-0.2-0.9-0.5
			c-0.3-0.5-0.1-1.1,0.4-1.3c0.6-0.3,1.2-0.6,1.8-0.9c0.1-0.1,0.3-0.1,0.4-0.1c0.4,0,0.7,0.2,0.9,0.5c0.2,0.5,0.1,1.1-0.4,1.3
			c-0.6,0.3-1.2,0.6-1.8,0.9C152.6,110.2,152.4,110.2,152.3,110.2 M165,104.3c-0.4,0-0.8-0.2-0.9-0.6c-0.2-0.5,0-1.1,0.6-1.3
			c0.6-0.3,1.3-0.5,1.9-0.7c0.1,0,0.2-0.1,0.4-0.1c0.4,0,0.8,0.2,0.9,0.6c0.2,0.5-0.1,1.1-0.6,1.3c-0.6,0.2-1.2,0.5-1.9,0.7
			C165.3,104.3,165.1,104.3,165,104.3 M263.3,101.2c-0.1,0-0.2,0-0.3-0.1c-0.6-0.2-1.3-0.4-1.9-0.6c-0.5-0.2-0.8-0.7-0.7-1.3
			c0.1-0.4,0.5-0.7,1-0.7c0.1,0,0.2,0,0.3,0c0.6,0.2,1.3,0.4,1.9,0.6c0.5,0.2,0.8,0.7,0.6,1.3C264.1,100.9,263.7,101.2,263.3,101.2
			 M178.3,99.7c-0.4,0-0.8-0.3-1-0.7c-0.2-0.5,0.1-1.1,0.7-1.2c0.6-0.2,1.3-0.4,1.9-0.6c0.1,0,0.2,0,0.3,0c0.4,0,0.8,0.3,1,0.7
			c0.1,0.5-0.2,1.1-0.7,1.2c-0.6,0.2-1.3,0.4-1.9,0.5C178.5,99.7,178.4,99.7,178.3,99.7 M249.8,97.4l-0.2,0
			c-0.6-0.1-1.3-0.3-1.9-0.4c-0.5-0.1-0.9-0.6-0.8-1.2c0.1-0.5,0.5-0.8,1-0.8c0.1,0,0.1,0,0.2,0c0.7,0.1,1.3,0.3,2,0.4
			c0.5,0.1,0.9,0.7,0.8,1.2C250.6,97.1,250.2,97.4,249.8,97.4 M192,96.5c-0.5,0-0.9-0.3-1-0.8c-0.1-0.5,0.3-1.1,0.8-1.2
			c0.7-0.1,1.3-0.2,2-0.4c0.1,0,0.1,0,0.2,0c0.5,0,0.9,0.3,1,0.8c0.1,0.5-0.3,1.1-0.8,1.2c-0.7,0.1-1.3,0.2-2,0.4L192,96.5
			 M277.7,119.4c-4.9,0-9.1-2.7-11.4-6.6v0c-0.2-0.3-0.4-0.7-0.6-1.1l0,0c-0.8-1.7-1.2-3.6-1.2-5.5c0-7.3,5.9-13.2,13.2-13.2
			c7.3,0,13.2,5.9,13.2,13.2l0,0l0,0l0,0c0,1.8-0.4,3.5-1,5c0.1,0.3,0.1,0.6-0.1,0.8c-0.1,0.2-0.3,0.4-0.5,0.5
			C287.1,116.6,282.7,119.4,277.7,119.4 M235.9,95.1l-0.1,0c-0.7-0.1-1.3-0.2-2-0.2c-0.5-0.1-0.9-0.6-0.9-1.1c0.1-0.5,0.5-0.9,1-0.9
			c0,0,0.1,0,0.1,0c0.7,0.1,1.3,0.1,2,0.2c0.5,0.1,0.9,0.6,0.9,1.1C236.9,94.7,236.4,95.1,235.9,95.1 M205.9,94.6
			c-0.5,0-0.9-0.4-1-0.9c0-0.5,0.4-1,0.9-1.1c0.7-0.1,1.3-0.1,2-0.2c0,0,0.1,0,0.1,0c0.5,0,1,0.4,1,0.9c0,0.5-0.4,1-0.9,1.1
			C207.3,94.4,206.6,94.5,205.9,94.6L205.9,94.6 M221.9,94L221.9,94c-0.7,0-1.4,0-2,0c-0.6,0-1-0.5-1-1c0-0.5,0.5-1,1-1h0
			c0.7,0,1.4,0,2,0c0.6,0,1,0.5,1,1C222.9,93.6,222.5,94,221.9,94 M218.4,63.5c-21.3,0-42.1,3.8-61.7,11.4
			c-16.3,6.2-31.6,14.9-45.3,25.8c-13.6,10.8-25.5,23.5-35.4,37.8c-19.8,28.8-30.3,62.6-30.3,97.7c0,8,0.6,16.1,1.7,24.1
			c2.5,18.2,7.9,35.8,16,52.2c7.9,16.1,18.3,30.8,30.7,43.7c29.3,30.3,68.5,48.9,110.3,52.2c4.6,0.4,9.3,0.6,13.9,0.6
			c4.7,0,9.4-0.2,14.1-0.6c2.4-1.9,4.9-3.6,7.5-5.1c12.4-7.1,26.5-8.9,41-8.9c2.2,0,4.4,0,6.6,0.1c5.4-2.4,10.6-5,15.8-7.9
			c8.2-4.6,15.9-9.9,23.2-15.8c-0.7-0.9-1.4-1.9-2-3v0c-0.4-0.8-0.8-1.5-1.2-2.3l0,0c-1.7-3.7-2.6-7.7-2.6-12.1
			c0-15.9,12.9-28.8,28.8-28.8c5.4,0,10.4,1.5,14.7,4c0.2-0.4,0.5-0.7,0.7-1.1c9.1-14.5,15.9-30.3,20.3-46.7
			c-12.6-20.3-16-46.2-15.7-70.6c0.2-14.7,1.7-30,7-43.5c-10.2-23.1-25.4-44-44.8-60.9C300.4,78.5,260.1,63.5,218.4,63.5
			 M293.8,45.3c-5.6,0-11.2,0.7-16.8,2.2c-9.8,2.7-18.8,7.9-28.6,10.5c-4.7,1.3-9.5,1.9-14.4,2.2c37,3.3,72.2,18.1,100.4,42.7
			c18.9,16.5,34,36.6,44.3,58.9c2-4.2,4.5-8.2,7.5-11.9c6.4-8,14.9-14.2,20.8-22.6C439.5,82,379,75,349.3,61.1
			C331.9,52.8,312.7,45.3,293.8,45.3 M127.8,44.4C100,44.4,69.4,57,60.2,83.2c-4.3,12.1-3.4,25.3-3.6,38.1
			c-0.5,32.3-8.3,64.4-22.5,93.4c-12.6,25.8-30.8,53.9-20.8,80.8c11.5,30.8,53.3,39.7,68.8,68.6c9,16.9,7.3,37.2,5.6,56.3
			c-0.3,3.6-0.6,7.4,0.5,10.8c2,6.1,8.1,9.8,14,12.3c10,4.1,20.7,5.8,31.5,5.8h0.1c14.2,0,28.6-2.9,42.2-7
			c12.2-3.6,24.2-8.2,34.5-15.6c5.9-4.3,11.2-9.4,16.7-14.2c-2.9,0.1-5.9,0.2-8.9,0.2c-4.7,0-9.5-0.2-14.3-0.6
			c-42.8-3.4-82.9-22.4-112.9-53.4c-12.8-13.2-23.4-28.3-31.5-44.7c-8.3-16.8-13.8-34.8-16.4-53.4c-1.1-8.1-1.7-16.4-1.7-24.6
			c0-35.9,10.7-70.5,31-100c10.1-14.6,22.2-27.7,36.2-38.7c14.1-11.1,29.7-20,46.4-26.4c19.7-7.6,40.6-11.5,61.9-11.6
			c-1.5-0.2-3.1-0.4-4.6-0.6c-27.9-4-55.1-14-83.3-14.5C128.8,44.4,128.3,44.4,127.8,44.4"/>
		<path class="st1" d="M331.1,423.3c-13,0-26.3-1.1-38.8-4.8c-6.7-2-13.2-4.7-19.5-7.3c-4.5-1.9-9.1-3.8-13.7-5.4
			c-16.6-5.9-34-8.4-50.3-10.5c-21.4-2.7-44.1-5.1-66.7-1.6c-8.2,1.3-16.5,3.4-24.6,5.4c-15.2,3.9-31,7.9-46.8,6.4
			c-8.5-0.8-14.7-3.2-18.9-7.3c-6.3-6.3-7.4-15.7-8.1-24.9c-1.1-16.1-2-34.8,0.8-53.1c1.5-9.7,4.1-19.4,6.5-28.7
			c2.6-9.7,5.2-19.7,6.7-29.8c2-13.6,2.9-39.1-13.2-56.1c-3.8-4-8.3-7.3-12.7-10.5c-4.6-3.4-9.4-6.8-13.3-11.1
			c-5.8-6.3-8.5-12.9-8-19.5c1.1-14,16.3-26.3,28.5-36.1c3.4-2.7,6.6-5.3,9.3-7.8l0.3,0.4l-0.3-0.4C79,92.9,110.8,64.2,149.9,47.9
			c33.9-14.1,83.3-19.8,120.3,6.9C276.9,59.6,283,65.4,289,71c4.3,4,8.7,8.2,13.3,12c15.1,12.4,33.2,21.4,52.3,25.8
			c4.6,1.1,9.4,1.9,14,2.7c11.6,2,23.6,4.1,33.9,10c15.9,9,27,27.2,29,47.3c1.7,17.7-3.4,37.1-14.3,54.6c-3.4,5.4-7.3,10.7-11,15.8
			c-7.6,10.2-15.4,20.8-19.1,33c-3.9,12.7-3.2,26.2-2.5,39.3l3.7,68.8c0.7,13.6,0.1,32.4-13.6,39.1c-4.5,2.2-9.7,2.5-14.3,2.8
			C351.1,422.7,341.1,423.3,331.1,423.3 M166.4,390.9c14.5,0,28.8,1.6,42.5,3.4c16.4,2.1,33.9,4.7,50.6,10.6
			c4.7,1.6,9.3,3.6,13.8,5.5c6.3,2.6,12.7,5.3,19.4,7.3c22.1,6.5,45.3,5,67.8,3.5c4.5-0.3,9.6-0.6,13.9-2.7
			c13.1-6.4,13.7-24.8,13-38.1l-3.7-68.8c-0.7-13.1-1.4-26.7,2.5-39.6c3.8-12.4,11.7-23,19.3-33.3c3.7-5.1,7.6-10.3,11-15.7
			c10.8-17.4,15.8-36.6,14.1-54c-1.9-19.8-12.8-37.6-28.5-46.5c-10.2-5.8-22.1-7.9-33.6-9.9c-4.6-0.8-9.4-1.6-14.1-2.7
			c-19.2-4.4-37.5-13.4-52.7-26c-4.6-3.8-9-8-13.3-12c-5.9-5.6-12-11.4-18.7-16.2c-36.7-26.4-85.7-20.8-119.3-6.7
			C111.3,65,79.6,93.7,49,121.4c-2.7,2.5-5.9,5.1-9.4,7.8c-12.1,9.7-27.1,21.9-28.1,35.4c-0.5,6.4,2.1,12.5,7.8,18.8
			c3.9,4.2,8.6,7.6,13.2,11c4.4,3.2,9,6.6,12.9,10.6c16.3,17.3,15.4,43.1,13.4,56.9c-1.5,10.1-4.1,20.2-6.7,29.9
			c-2.5,9.3-5,19-6.5,28.6c-2.8,18.2-1.9,36.8-0.8,52.9c0.6,9,1.7,18.2,7.8,24.2c4,4,10,6.3,18.2,7c15.7,1.4,31.3-2.5,46.5-6.4
			c8.1-2,16.4-4.2,24.7-5.5C150,391.4,158.2,390.9,166.4,390.9"/>
	</g>
	<g>
		<defs>
			<polyline id="SVGID_3_" points="9.5,36 435.4,36 435.4,449.4 9.5,449.4 9.5,36 			"/>
		</defs>
		<clipPath id="SVGID_4_">
			<use xlink:href="#SVGID_3_"  style="overflow:visible;"/>
		</clipPath>
		<path class="st2" d="M427.4,318.4c0,3-2.4,5.4-5.4,5.4c-3,0-5.4-2.4-5.4-5.4c0-3,2.4-5.4,5.4-5.4C425,313,427.4,315.4,427.4,318.4
			"/>
		<path class="st3" d="M394.1,119.5c0,1.5-1.2,2.7-2.7,2.7c-1.5,0-2.7-1.2-2.7-2.7c0-1.5,1.2-2.7,2.7-2.7
			C392.9,116.9,394.1,118.1,394.1,119.5"/>
		<path class="st2" d="M393.1,37.9c-2.1,0-3.7,1.7-3.7,3.7c0,2.1,1.7,3.8,3.7,3.8s3.8-1.7,3.8-3.8C396.8,39.6,395.1,37.9,393.1,37.9
			"/>
	</g>
	<path class="st4" d="M160.2,292.4c-11.6-12-19.5-27.6-21.9-44.9c4.4,2,9.3,3.2,14,4.6c7.9,2.4,16.3,6.5,18.9,14.4
		c2.9,8.6-2.6,17.7-9,24C161.5,291.1,160.9,291.8,160.2,292.4 M151.7,190.4L151.7,190.4c-8.9,13-14.2,28.8-14.2,45.8
		c0,3.8,0.3,7.6,0.8,11.3c2.4,17.3,10.3,32.9,21.9,44.9l0,0c13.3,13.8,31.4,22.8,51.7,24.5c2.2,0.2,4.3,0.3,6.5,0.3
		c29,0,54.4-15.2,68.7-38.1c7.8-12.4,12.2-27.1,12.2-42.8l0,0c0,15.7-4.5,30.4-12.2,42.8c-14.3,22.9-39.7,38.1-68.7,38.1
		c-2.2,0-4.4-0.1-6.5-0.3l0,0c-20.2-1.6-38.4-10.7-51.7-24.5c0.2,0.1,8.1,3.7,21.8,3.7c8.2,0,18.4-1.3,30.3-5.3
		c2.3-11.9,5.3-23.6,0.5-34.3c-6.4-14.3-23.6-19.6-36.4-28.7C163.9,219,155,205.3,151.7,190.4 M251.4,162.2L251.4,162.2L251.4,162.2
		 M251.3,162.2L251.3,162.2L251.3,162.2 M251,162.1C251,162.1,251,162.1,251,162.1C251,162.1,251,162.1,251,162.1 M251,162
		C251,162,251,162,251,162C251,162,251,162,251,162 M250.9,162C250.9,162,250.9,162,250.9,162C250.9,162,250.9,162,250.9,162
		 M250.8,162C250.9,162,250.9,162,250.8,162C250.9,162,250.9,162,250.8,162 M250.8,162C250.8,162,250.8,162,250.8,162
		C250.8,162,250.8,162,250.8,162 M250.7,161.9C250.7,161.9,250.8,162,250.7,161.9C250.8,162,250.7,161.9,250.7,161.9 M250.7,161.9
		C250.7,161.9,250.7,161.9,250.7,161.9C250.7,161.9,250.7,161.9,250.7,161.9 M222.6,155.3c9.9,0.5,19.4,2.8,28.1,6.6
		C242,158.1,232.5,155.8,222.6,155.3 M222.1,155.3c0.2,0,0.3,0,0.4,0C222.4,155.3,222.3,155.3,222.1,155.3 M222.1,155.3
		C222.1,155.3,222.1,155.3,222.1,155.3C222.1,155.3,222.1,155.3,222.1,155.3 M222,155.3C222,155.3,222.1,155.3,222,155.3
		C222.1,155.3,222,155.3,222,155.3 M222,155.3C222,155.3,222,155.3,222,155.3C222,155.3,222,155.3,222,155.3 M221.9,155.3
		C221.9,155.3,221.9,155.3,221.9,155.3C221.9,155.3,221.9,155.3,221.9,155.3 M221.8,155.3C221.8,155.3,221.9,155.3,221.8,155.3
		C221.9,155.3,221.8,155.3,221.8,155.3 M221.6,155.3c0.1,0,0.2,0,0.3,0C221.7,155.3,221.6,155.3,221.6,155.3 M221.5,155.3
		C221.5,155.3,221.5,155.3,221.5,155.3C221.5,155.3,221.5,155.3,221.5,155.3 M221.4,155.3C221.5,155.3,221.5,155.3,221.4,155.3
		C221.5,155.3,221.5,155.3,221.4,155.3 M221.4,155.3C221.4,155.3,221.4,155.3,221.4,155.3C221.4,155.3,221.4,155.3,221.4,155.3
		 M221.3,155.3C221.3,155.3,221.3,155.3,221.3,155.3C221.3,155.3,221.3,155.3,221.3,155.3 M221.2,155.3
		C221.3,155.3,221.3,155.3,221.2,155.3C221.3,155.3,221.3,155.3,221.2,155.3 M221.2,155.3C221.2,155.3,221.2,155.3,221.2,155.3
		C221.2,155.3,221.2,155.3,221.2,155.3 M221,155.3c0.1,0,0.1,0,0.2,0C221.1,155.3,221,155.3,221,155.3 M220.9,155.3
		C220.9,155.3,220.9,155.3,220.9,155.3C221,155.3,220.9,155.3,220.9,155.3 M220.8,155.3C220.9,155.3,220.9,155.3,220.8,155.3
		C220.9,155.3,220.9,155.3,220.8,155.3 M220.8,155.3C220.8,155.3,220.8,155.3,220.8,155.3C220.8,155.3,220.8,155.3,220.8,155.3
		 M220.7,155.3C220.7,155.3,220.8,155.3,220.7,155.3C220.8,155.3,220.7,155.3,220.7,155.3 M220.7,155.3
		C220.7,155.3,220.7,155.3,220.7,155.3C220.7,155.3,220.7,155.3,220.7,155.3 M220.6,155.3C220.6,155.3,220.6,155.3,220.6,155.3
		C220.6,155.3,220.6,155.3,220.6,155.3 M220.5,155.3C220.5,155.3,220.6,155.3,220.5,155.3C220.6,155.3,220.5,155.3,220.5,155.3
		 M220.5,155.3C220.5,155.3,220.5,155.3,220.5,155.3C220.5,155.3,220.5,155.3,220.5,155.3 M220.3,155.3c0,0,0.1,0,0.1,0
		C220.4,155.3,220.4,155.3,220.3,155.3 M220.3,155.3C220.3,155.3,220.3,155.3,220.3,155.3C220.3,155.3,220.3,155.3,220.3,155.3
		 M220.2,155.3C220.2,155.3,220.2,155.3,220.2,155.3C220.2,155.3,220.2,155.3,220.2,155.3 M220.1,155.3
		C220.2,155.3,220.2,155.3,220.1,155.3C220.2,155.3,220.2,155.3,220.1,155.3 M220.1,155.3C220.1,155.3,220.1,155.3,220.1,155.3
		C220.1,155.3,220.1,155.3,220.1,155.3 M220,155.3C220,155.3,220,155.3,220,155.3C220,155.3,220,155.3,220,155.3 M219.9,155.2
		C220,155.2,220,155.3,219.9,155.2C220,155.3,220,155.2,219.9,155.2 M219.9,155.2C219.9,155.2,219.9,155.2,219.9,155.2
		C219.9,155.2,219.9,155.2,219.9,155.2 M219.8,155.2C219.8,155.2,219.8,155.2,219.8,155.2C219.8,155.2,219.8,155.2,219.8,155.2
		 M219.7,155.2c0,0,0.1,0,0.1,0C219.8,155.2,219.7,155.2,219.7,155.2 M219.6,155.2C219.6,155.2,219.6,155.2,219.6,155.2
		C219.6,155.2,219.6,155.2,219.6,155.2 M219.5,155.2C219.6,155.2,219.6,155.2,219.5,155.2C219.6,155.2,219.6,155.2,219.5,155.2
		 M219.5,155.2C219.5,155.2,219.5,155.2,219.5,155.2C219.5,155.2,219.5,155.2,219.5,155.2 M219.4,155.2
		C219.4,155.2,219.4,155.2,219.4,155.2C219.4,155.2,219.4,155.2,219.4,155.2 M219.4,155.2C219.4,155.2,219.4,155.2,219.4,155.2
		C219.4,155.2,219.4,155.2,219.4,155.2 M219.3,155.2C219.3,155.2,219.3,155.2,219.3,155.2C219.3,155.2,219.3,155.2,219.3,155.2
		 M219.2,155.2C219.2,155.2,219.3,155.2,219.2,155.2C219.3,155.2,219.2,155.2,219.2,155.2 M219.2,155.2
		C219.2,155.2,219.2,155.2,219.2,155.2C219.2,155.2,219.2,155.2,219.2,155.2 M219.1,155.2C219.1,155.2,219.1,155.2,219.1,155.2
		C219.1,155.2,219.1,155.2,219.1,155.2 M219,155.2C219,155.2,219.1,155.2,219,155.2C219.1,155.2,219,155.2,219,155.2 M219,155.2
		C219,155.2,219,155.2,219,155.2C219,155.2,219,155.2,219,155.2 M218.9,155.2C218.9,155.2,218.9,155.2,218.9,155.2
		C218.9,155.2,218.9,155.2,218.9,155.2 M218.8,155.2C218.8,155.2,218.9,155.2,218.8,155.2C218.9,155.2,218.8,155.2,218.8,155.2
		 M218.8,155.2C218.8,155.2,218.8,155.2,218.8,155.2C218.8,155.2,218.8,155.2,218.8,155.2 M218.7,155.2
		C218.7,155.2,218.7,155.2,218.7,155.2C218.7,155.2,218.7,155.2,218.7,155.2 M218.6,155.2C218.7,155.2,218.7,155.2,218.6,155.2
		C218.7,155.2,218.7,155.2,218.6,155.2 M218.6,155.2C218.6,155.2,218.6,155.2,218.6,155.2C218.6,155.2,218.6,155.2,218.6,155.2
		 M218.5,155.2C218.5,155.2,218.5,155.2,218.5,155.2C218.5,155.2,218.5,155.2,218.5,155.2 M218.4,155.2
		C218.5,155.2,218.5,155.2,218.4,155.2C218.5,155.2,218.4,155.2,218.4,155.2"/>
	<path class="st5" d="M189.5,160.6L189.5,160.6c-15.4,5.9-28.6,16.4-37.8,29.8l0,0c3.3,14.9,12.2,28.6,24.7,37.4
		c12.8,9.1,30,14.3,36.4,28.7c4.8,10.7,1.8,22.5-0.5,34.3c13-4.4,28.1-12.1,44.6-25.1c-2-2.4-3.6-5.1-4.5-8.1
		c-3.6-11.3,1.9-24.2-2.5-35.3c-6.3-16-27.9-18-42.3-27.6C196.5,187.2,189.7,173.9,189.5,160.6"/>
	<path class="st6" d="M299.4,236.1C299.4,236.1,299.4,236.1,299.4,236.1C299.4,236.1,299.4,236.1,299.4,236.1 M299.4,236
		C299.4,236,299.4,236,299.4,236C299.4,236,299.4,236,299.4,236 M299.4,235.9C299.4,235.9,299.4,235.9,299.4,235.9
		C299.4,235.9,299.4,235.9,299.4,235.9 M299.4,235.8C299.4,235.8,299.4,235.8,299.4,235.8C299.4,235.8,299.4,235.8,299.4,235.8
		 M299.4,235.7C299.4,235.7,299.4,235.8,299.4,235.7C299.4,235.8,299.4,235.7,299.4,235.7 M299.4,235.6
		C299.4,235.6,299.4,235.7,299.4,235.6C299.4,235.7,299.4,235.6,299.4,235.6 M299.4,235.5C299.4,235.5,299.4,235.6,299.4,235.5
		C299.4,235.6,299.4,235.5,299.4,235.5 M299.4,235.4C299.4,235.4,299.4,235.5,299.4,235.4C299.4,235.5,299.4,235.4,299.4,235.4
		 M299.4,235.3C299.4,235.4,299.4,235.4,299.4,235.3C299.4,235.4,299.4,235.4,299.4,235.3 M299.4,235.2
		C299.4,235.3,299.4,235.3,299.4,235.2C299.4,235.3,299.4,235.3,299.4,235.2 M299.4,235.2C299.4,235.2,299.4,235.2,299.4,235.2
		C299.4,235.2,299.4,235.2,299.4,235.2 M299.4,235C299.4,235.1,299.4,235.1,299.4,235C299.4,235.1,299.4,235.1,299.4,235 M299.4,235
		C299.4,235,299.4,235,299.4,235C299.4,235,299.4,235,299.4,235 M299.3,234.9C299.4,234.9,299.4,234.9,299.3,234.9
		C299.4,234.9,299.4,234.9,299.3,234.9 M299.3,234.8C299.3,234.8,299.3,234.8,299.3,234.8C299.3,234.8,299.3,234.8,299.3,234.8
		 M299.3,234.7C299.3,234.7,299.3,234.7,299.3,234.7C299.3,234.7,299.3,234.7,299.3,234.7 M299.3,234.6
		C299.3,234.6,299.3,234.6,299.3,234.6C299.3,234.6,299.3,234.6,299.3,234.6 M299.3,234.5C299.3,234.5,299.3,234.5,299.3,234.5
		C299.3,234.5,299.3,234.5,299.3,234.5 M299.3,234.4C299.3,234.4,299.3,234.4,299.3,234.4C299.3,234.4,299.3,234.4,299.3,234.4
		 M299.3,234.3C299.3,234.3,299.3,234.3,299.3,234.3C299.3,234.3,299.3,234.3,299.3,234.3 M299.3,234.2
		C299.3,234.2,299.3,234.2,299.3,234.2L299.3,234.2 M299.3,234.1C299.3,234.1,299.3,234.1,299.3,234.1
		C299.3,234.1,299.3,234.1,299.3,234.1 M299.3,233.9C299.3,233.9,299.3,233.9,299.3,233.9C299.3,233.9,299.3,233.9,299.3,233.9
		 M299.3,233.7C299.3,233.8,299.3,233.8,299.3,233.7C299.3,233.8,299.3,233.8,299.3,233.7 M299.3,233.6
		C299.3,233.6,299.3,233.6,299.3,233.6C299.3,233.6,299.3,233.6,299.3,233.6 M299.3,233.5C299.3,233.5,299.3,233.5,299.3,233.5
		C299.3,233.5,299.3,233.5,299.3,233.5 M299.3,233.4C299.3,233.4,299.3,233.4,299.3,233.4C299.3,233.4,299.3,233.4,299.3,233.4
		 M299.3,233.3C299.3,233.3,299.3,233.3,299.3,233.3C299.3,233.3,299.3,233.3,299.3,233.3 M299.3,233.2
		C299.3,233.2,299.3,233.2,299.3,233.2C299.3,233.2,299.3,233.2,299.3,233.2 M299.3,233.1C299.3,233.1,299.3,233.1,299.3,233.1
		C299.3,233.1,299.3,233.1,299.3,233.1 M299.3,233C299.3,233,299.3,233,299.3,233C299.3,233,299.3,233,299.3,233 M299.3,232.9
		C299.3,232.9,299.3,232.9,299.3,232.9C299.3,232.9,299.3,232.9,299.3,232.9 M299.3,232.8C299.3,232.8,299.3,232.8,299.3,232.8
		C299.3,232.8,299.3,232.8,299.3,232.8 M299.3,232.7C299.3,232.7,299.3,232.7,299.3,232.7C299.3,232.7,299.3,232.7,299.3,232.7
		 M218.4,155.2c-10.2,0-19.9,1.9-28.9,5.3l0,0c0.2,13.3,7,26.6,18.2,34c14.3,9.6,35.9,11.6,42.3,27.6c4.4,11-1.1,24,2.5,35.3
		c1,3,2.5,5.7,4.5,8.1c13-10.2,26.9-23.7,41.5-41.4c0.4,2.8,0.7,5.6,0.8,8.4c-1.3-31.4-20.6-58.2-47.9-70.4l0,0c0,0-0.1,0-0.1,0l0,0
		c-0.1,0-0.2-0.1-0.3-0.1c0,0,0,0,0,0c0,0,0,0,0,0c0,0,0,0,0,0c0,0,0,0,0,0c0,0,0,0,0,0c0,0,0,0,0,0c0,0,0,0,0,0c0,0,0,0,0,0
		c0,0,0,0,0,0c0,0,0,0,0,0c0,0,0,0,0,0c0,0,0,0,0,0c0,0,0,0,0,0c0,0,0,0,0,0c-8.7-3.8-18.1-6.1-28.1-6.6l0,0c-0.2,0-0.3,0-0.4,0l0,0
		c0,0,0,0-0.1,0c0,0,0,0,0,0c0,0,0,0-0.1,0l0,0c0,0,0,0-0.1,0c0,0,0,0,0,0c0,0,0,0-0.1,0l0,0c0,0,0,0-0.1,0l0,0c-0.1,0-0.2,0-0.3,0
		c0,0,0,0,0,0c0,0,0,0-0.1,0c0,0,0,0,0,0c0,0,0,0-0.1,0c0,0,0,0,0,0c0,0,0,0-0.1,0c0,0,0,0,0,0c0,0,0,0-0.1,0c0,0,0,0,0,0
		c0,0,0,0-0.1,0c0,0,0,0,0,0c0,0,0,0-0.1,0l0,0c-0.1,0-0.1,0-0.2,0c0,0,0,0,0,0c0,0,0,0-0.1,0c0,0,0,0,0,0c0,0,0,0-0.1,0
		c0,0,0,0,0,0c0,0,0,0,0,0c0,0,0,0,0,0c0,0,0,0,0,0c0,0,0,0,0,0c0,0,0,0,0,0c0,0,0,0,0,0c0,0,0,0,0,0c0,0,0,0,0,0c0,0,0,0,0,0
		c0,0,0,0,0,0c0,0,0,0-0.1,0l0,0c0,0-0.1,0-0.1,0l0,0c0,0,0,0-0.1,0c0,0,0,0,0,0c0,0,0,0,0,0c0,0,0,0,0,0c0,0,0,0,0,0c0,0,0,0,0,0
		c0,0,0,0,0,0c0,0,0,0,0,0c0,0,0,0,0,0c0,0,0,0,0,0c0,0,0,0,0,0c0,0,0,0,0,0c0,0,0,0,0,0c0,0,0,0,0,0c0,0,0,0-0.1,0c0,0,0,0,0,0
		c0,0-0.1,0-0.1,0c0,0,0,0,0,0c0,0,0,0,0,0c0,0,0,0,0,0c0,0,0,0,0,0c0,0,0,0,0,0c0,0,0,0,0,0c0,0,0,0,0,0c0,0,0,0,0,0c0,0,0,0,0,0
		c0,0,0,0,0,0c0,0,0,0,0,0c0,0,0,0,0,0c0,0,0,0,0,0c0,0,0,0,0,0c0,0,0,0,0,0c0,0,0,0,0,0c0,0,0,0,0,0c0,0,0,0-0.1,0c0,0,0,0,0,0
		c0,0,0,0-0.1,0c0,0,0,0,0,0c0,0,0,0,0,0c0,0,0,0,0,0c0,0,0,0,0,0c0,0,0,0,0,0c0,0,0,0,0,0c0,0,0,0,0,0c0,0,0,0,0,0c0,0,0,0,0,0
		c0,0,0,0,0,0c0,0,0,0,0,0c0,0,0,0,0,0c0,0,0,0,0,0c0,0,0,0,0,0c0,0,0,0,0,0C218.5,155.2,218.5,155.2,218.4,155.2
		C218.5,155.2,218.5,155.2,218.4,155.2C218.5,155.2,218.5,155.2,218.4,155.2L218.4,155.2"/>
	<path class="st5" d="M138.3,247.4c2.4,17.3,10.3,32.9,21.9,44.9c0.7-0.6,1.3-1.3,2-1.9c6.4-6.4,11.8-15.5,9-24
		c-2.6-7.8-11-11.9-18.9-14.4C147.6,250.7,142.7,249.4,138.3,247.4"/>
	<path class="st7" d="M212.3,290.8c-11.9,4-22.1,5.3-30.3,5.3c-13.7,0-21.6-3.6-21.8-3.7c13.3,13.8,31.4,22.8,51.7,24.5
		c-0.6-2-1-4.1-1.2-6.2C210,304.1,211,297.4,212.3,290.8 M299.4,236.1C299.4,236.1,299.4,236.1,299.4,236.1
		C299.4,236.1,299.4,236.1,299.4,236.1 M299.4,236C299.4,236,299.4,236,299.4,236C299.4,236,299.4,236,299.4,236 M299.4,235.9
		C299.4,235.9,299.4,235.9,299.4,235.9C299.4,235.9,299.4,235.9,299.4,235.9 M299.4,235.8C299.4,235.8,299.4,235.8,299.4,235.8
		C299.4,235.8,299.4,235.8,299.4,235.8 M299.4,235.7C299.4,235.7,299.4,235.7,299.4,235.7C299.4,235.7,299.4,235.7,299.4,235.7
		 M299.4,235.6C299.4,235.6,299.4,235.6,299.4,235.6C299.4,235.6,299.4,235.6,299.4,235.6 M299.4,235.5
		C299.4,235.5,299.4,235.5,299.4,235.5C299.4,235.5,299.4,235.5,299.4,235.5 M299.4,235.4C299.4,235.4,299.4,235.4,299.4,235.4
		C299.4,235.4,299.4,235.4,299.4,235.4 M299.4,235.3C299.4,235.3,299.4,235.3,299.4,235.3C299.4,235.3,299.4,235.3,299.4,235.3
		 M299.4,235.2C299.4,235.2,299.4,235.2,299.4,235.2C299.4,235.2,299.4,235.2,299.4,235.2 M299.4,235.1
		C299.4,235.1,299.4,235.1,299.4,235.1C299.4,235.1,299.4,235.1,299.4,235.1 M299.4,235C299.4,235,299.4,235,299.4,235
		C299.4,235,299.4,235,299.4,235 M299.4,234.9C299.4,234.9,299.4,234.9,299.4,234.9C299.4,234.9,299.4,234.9,299.4,234.9
		 M299.3,234.8C299.3,234.8,299.3,234.8,299.3,234.8C299.3,234.8,299.3,234.8,299.3,234.8 M299.3,234.7
		C299.3,234.7,299.3,234.8,299.3,234.7C299.3,234.8,299.3,234.7,299.3,234.7 M299.3,234.6c0,0,0,0.1,0,0.1
		C299.3,234.7,299.3,234.6,299.3,234.6 M299.3,234.5C299.3,234.6,299.3,234.6,299.3,234.5C299.3,234.6,299.3,234.6,299.3,234.5
		 M299.3,234.4c0,0,0,0.1,0,0.1C299.3,234.5,299.3,234.4,299.3,234.4 M299.3,234.3C299.3,234.4,299.3,234.4,299.3,234.3
		C299.3,234.4,299.3,234.4,299.3,234.3 M299.3,234.2c0,0,0,0.1,0,0.1C299.3,234.3,299.3,234.2,299.3,234.2 M299.3,234.1
		C299.3,234.2,299.3,234.2,299.3,234.1C299.3,234.2,299.3,234.2,299.3,234.1 M299.3,234c0,0.1,0,0.1,0,0.2
		C299.3,234.1,299.3,234,299.3,234 M299.3,233.8c0,0.1,0,0.1,0,0.2C299.3,233.9,299.3,233.8,299.3,233.8 M299.3,233.6
		c0,0.1,0,0.1,0,0.2C299.3,233.7,299.3,233.6,299.3,233.6 M299.3,233.5C299.3,233.5,299.3,233.5,299.3,233.5
		C299.3,233.5,299.3,233.5,299.3,233.5 M299.3,233.4c0,0,0,0.1,0,0.1C299.3,233.4,299.3,233.4,299.3,233.4 M299.3,233.3
		C299.3,233.3,299.3,233.3,299.3,233.3C299.3,233.3,299.3,233.3,299.3,233.3 M299.3,233.2c0,0,0,0.1,0,0.1
		C299.3,233.2,299.3,233.2,299.3,233.2 M299.3,233.1C299.3,233.1,299.3,233.1,299.3,233.1C299.3,233.1,299.3,233.1,299.3,233.1
		 M299.3,233C299.3,233.1,299.3,233.1,299.3,233C299.3,233.1,299.3,233.1,299.3,233 M299.3,232.9C299.3,233,299.3,233,299.3,232.9
		C299.3,233,299.3,232.9,299.3,232.9 M299.3,232.9C299.3,232.9,299.3,232.9,299.3,232.9C299.3,232.9,299.3,232.9,299.3,232.9
		 M299.3,232.8C299.3,232.8,299.3,232.8,299.3,232.8C299.3,232.8,299.3,232.8,299.3,232.8 M299.3,232.7
		C299.3,232.7,299.3,232.7,299.3,232.7C299.3,232.7,299.3,232.7,299.3,232.7"/>
	<path class="st8" d="M256.9,265.7c-16.5,13-31.6,20.7-44.6,25.1c-1.3,6.6-2.3,13.3-1.6,19.9c0.2,2.1,0.6,4.2,1.2,6.2l0,0
		c2.2,0.2,4.3,0.3,6.5,0.3c29,0,54.4-15.2,68.7-38.1c-4.2-0.4-8.4-1.1-12.4-2.2C267.9,274.7,261.4,271,256.9,265.7"/>
	<path class="st5" d="M298.5,224.3c-14.6,17.7-28.5,31.2-41.5,41.4c4.4,5.3,11,9.1,17.7,11.1c4.1,1.2,8.2,1.9,12.4,2.2l0,0
		c7.8-12.4,12.2-27.1,12.2-42.8l0,0c0,0,0-0.1,0-0.1l0,0c0,0,0,0,0,0l0,0c0,0,0,0,0-0.1l0,0c0,0,0,0,0,0l0,0c0,0,0-0.1,0-0.1l0,0
		c0,0,0,0,0,0l0,0c0,0,0,0,0-0.1l0,0c0,0,0,0,0,0l0,0c0,0,0-0.1,0-0.1l0,0c0,0,0,0,0,0l0,0c0,0,0,0,0-0.1l0,0c0,0,0,0,0,0l0,0
		c0,0,0-0.1,0-0.1l0,0c0,0,0,0,0,0l0,0c0,0,0,0,0-0.1l0,0c0,0,0,0,0,0l0,0c0,0,0,0,0-0.1l0,0c0,0,0,0,0,0l0,0c0,0,0,0,0-0.1l0,0
		c0,0,0,0,0,0l0,0c0,0,0,0,0,0l0,0c0,0,0,0,0-0.1l0,0c0,0,0,0,0,0l0,0c0,0,0,0,0,0l0,0c0,0,0,0,0,0l0,0c0,0,0-0.1,0-0.1l0,0
		c0,0,0,0,0,0l0,0c0,0,0,0,0,0l0,0c0,0,0,0,0,0l0,0c0,0,0,0,0-0.1l0,0c0,0,0,0,0,0l0,0c0,0,0-0.1,0-0.1l0,0c0,0,0,0,0,0l0,0
		c0,0,0,0,0-0.1l0,0c0,0,0,0,0,0l0,0c0,0,0-0.1,0-0.1l0,0c0,0,0,0,0,0l0,0c0,0,0,0,0-0.1l0,0c0,0,0,0,0,0l0,0c0,0,0-0.1,0-0.1l0,0
		c0,0,0,0,0,0l0,0c0,0,0,0,0-0.1l0,0c0,0,0,0,0,0l0,0c0-0.1,0-0.1,0-0.2l0,0c0,0,0,0,0,0l0,0c0-0.1,0-0.1,0-0.2l0,0c0,0,0,0,0,0l0,0
		c0-0.1,0-0.1,0-0.2l0,0c0,0,0,0,0,0l0,0c0,0,0,0,0-0.1l0,0c0,0,0,0,0,0l0,0c0,0,0-0.1,0-0.1l0,0c0,0,0,0,0,0l0,0c0,0,0,0,0-0.1l0,0
		c0,0,0,0,0,0l0,0c0,0,0-0.1,0-0.1l0,0c0,0,0,0,0,0l0,0c0,0,0,0,0,0l0,0c0,0,0,0,0,0l0,0c0,0,0,0,0,0l0,0c0,0,0,0,0-0.1l0,0
		c0,0,0,0,0,0l0,0c0,0,0,0,0-0.1l0,0c0,0,0,0,0,0l0,0c0,0,0-0.1,0-0.1l0,0c0,0,0,0,0,0l0,0c0,0,0-0.1,0-0.1l0,0c0,0,0,0,0,0l0,0
		C299.2,229.8,298.9,227,298.5,224.3"/>
	<path class="st5" d="M218.4,115c-14.9,0-29.5,2.7-43.3,8c-21.7,8.3-40.3,22.5-54.1,41.1c1.2,0.6,2.4,1.3,3.4,2.1
		c13.3-17.9,31.3-31.5,52.1-39.5c13.4-5.1,27.5-7.7,41.9-7.7c28.3,0,55.6,10.2,76.9,28.8c21.1,18.4,35,43.7,39,71.2
		c0.8,5.6,1.3,11.4,1.3,17.2c0,22-6.1,43.4-17.7,62c-10.3,16.6-24.8,30.4-41.8,40c-17.5,9.9-37.5,15.2-57.7,15.2
		c-3.1,0-6.3-0.1-9.5-0.4c-28.4-2.3-55-14.8-74.9-35.4c-17.3-18-28.3-40.5-31.8-65.1c-0.8-5.4-1.1-10.9-1.1-16.3
		c0-12.8,2.1-25.4,6-37.3c-1.3-0.4-2.5-1-3.7-1.6c-4.2,12.4-6.4,25.5-6.4,38.9c0,5.6,0.4,11.3,1.2,16.9
		c3.5,25.5,14.9,48.7,32.8,67.3c20.5,21.3,48,34.3,77.4,36.6c3.2,0.3,6.5,0.4,9.8,0.4c20.9,0,41.6-5.4,59.7-15.7
		c17.6-10,32.5-24.3,43.2-41.4c12-19.2,18.3-41.4,18.3-64.1c0-6-0.4-12-1.3-17.8c-4.2-28.5-18.5-54.6-40.3-73.6
		C275.9,125.5,247.7,115,218.4,115"/>
	<path class="st5" d="M116.1,337.3c-0.3,0-0.5-0.1-0.7-0.3c-0.2-0.2-0.5-0.5-0.7-0.7c-0.2-0.2-0.5-0.5-0.7-0.7c-0.4-0.4-0.4-1,0-1.4
		c0.4-0.4,1-0.4,1.4,0c0.2,0.2,0.5,0.5,0.7,0.7c0.2,0.2,0.5,0.5,0.7,0.7c0.4,0.4,0.4,1,0,1.4C116.6,337.2,116.4,337.3,116.1,337.3z"
		/>
	<path class="st5" d="M215,378.3c-0.5,0-1,0.4-1,1c0,0.6,0.4,1,1,1c0.7,0,1.3,0,2,0h0c0.5,0,1-0.4,1-1c0-0.6-0.4-1-1-1
		C216.4,378.3,215.7,378.3,215,378.3L215,378.3 M231.1,377.8C231.1,377.8,231,377.8,231.1,377.8c-0.8,0.1-1.4,0.1-2.1,0.2
		c-0.5,0-1,0.5-0.9,1.1c0,0.5,0.5,0.9,1,0.9l0.1,0c0.7,0,1.3-0.1,2-0.2c0.5,0,1-0.5,0.9-1.1C232,378.2,231.6,377.8,231.1,377.8
		 M201,377.3c-0.5,0-0.9,0.4-1,0.9c-0.1,0.5,0.3,1,0.9,1.1c0.7,0.1,1.3,0.2,2,0.2l0.1,0c0.5,0,0.9-0.4,1-0.9c0.1-0.5-0.3-1-0.9-1.1
		c-0.7-0.1-1.3-0.1-2-0.2C201.1,377.3,201,377.3,201,377.3 M245,375.9c-0.1,0-0.1,0-0.2,0c-0.7,0.1-1.3,0.2-2,0.4
		c-0.5,0.1-0.9,0.6-0.8,1.2c0.1,0.5,0.5,0.8,1,0.8l0.2,0c0.7-0.1,1.3-0.2,2-0.4c0.5-0.1,0.9-0.6,0.8-1.2
		C245.9,376.2,245.5,375.9,245,375.9 M187.2,374.9c-0.5,0-0.9,0.3-1,0.8c-0.1,0.5,0.2,1.1,0.8,1.2c0.7,0.1,1.3,0.3,2,0.4l0.2,0
		c0.5,0,0.9-0.3,1-0.8c0.1-0.5-0.2-1.1-0.8-1.2c-0.7-0.1-1.3-0.3-2-0.4C187.3,374.9,187.2,374.9,187.2,374.9 M258.7,372.6
		c-0.1,0-0.2,0-0.3,0c-0.6,0.2-1.3,0.4-1.9,0.5c-0.5,0.1-0.8,0.7-0.7,1.2c0.1,0.4,0.5,0.7,1,0.7l0.3,0c0.6-0.2,1.3-0.4,1.9-0.6
		c0.5-0.2,0.8-0.7,0.7-1.2C259.5,372.9,259.1,372.6,258.7,372.6 M173.6,371.2c-0.4,0-0.8,0.3-0.9,0.7c-0.2,0.5,0.1,1.1,0.6,1.3
		c0.6,0.2,1.3,0.4,1.9,0.6c0.1,0,0.2,0,0.3,0c0.4,0,0.8-0.3,1-0.7c0.2-0.5-0.1-1.1-0.7-1.3c-0.6-0.2-1.3-0.4-1.9-0.6
		C173.8,371.2,173.7,371.2,173.6,371.2 M271.9,368c-0.1,0-0.3,0-0.4,0.1c-0.6,0.2-1.2,0.5-1.8,0.7c-0.5,0.2-0.8,0.8-0.6,1.3
		c0.2,0.4,0.5,0.6,0.9,0.6c0.1,0,0.2,0,0.4-0.1c0.6-0.2,1.3-0.5,1.9-0.7c0.5-0.2,0.8-0.8,0.6-1.3C272.7,368.2,272.3,368,271.9,368
		 M160.5,366.1c-0.4,0-0.7,0.2-0.9,0.6c-0.2,0.5,0,1.1,0.5,1.3c0.6,0.3,1.2,0.5,1.9,0.8c0.1,0.1,0.3,0.1,0.4,0.1
		c0.4,0,0.8-0.2,0.9-0.6c0.2-0.5,0-1.1-0.5-1.3c-0.6-0.3-1.2-0.5-1.8-0.8C160.8,366.1,160.6,366.1,160.5,366.1 M284.7,362.1
		c-0.2,0-0.3,0-0.5,0.1c-0.6,0.3-1.2,0.6-1.8,0.9c-0.5,0.2-0.7,0.8-0.4,1.3c0.2,0.3,0.5,0.5,0.9,0.5c0.2,0,0.3,0,0.4-0.1
		c0.6-0.3,1.2-0.6,1.8-0.9c0.5-0.3,0.7-0.9,0.4-1.3C285.4,362.3,285,362.1,284.7,362.1 M147.9,359.8c-0.3,0-0.7,0.2-0.9,0.5
		c-0.3,0.5-0.1,1.1,0.4,1.4c0.6,0.3,1.2,0.7,1.8,1c0.2,0.1,0.3,0.1,0.5,0.1c0.4,0,0.7-0.2,0.9-0.5c0.3-0.5,0.1-1.1-0.4-1.4
		c-0.6-0.3-1.2-0.6-1.7-1C148.3,359.8,148.1,359.8,147.9,359.8 M296.8,355c-0.2,0-0.4,0.1-0.5,0.2c-0.6,0.4-1.1,0.7-1.7,1.1
		c-0.5,0.3-0.6,0.9-0.3,1.4c0.2,0.3,0.5,0.5,0.8,0.5c0.2,0,0.4-0.1,0.5-0.2c0.6-0.4,1.1-0.7,1.7-1.1c0.5-0.3,0.6-0.9,0.3-1.4
		C297.4,355.2,297.1,355,296.8,355 M136.1,352.3c-0.3,0-0.6,0.1-0.8,0.4c-0.3,0.5-0.2,1.1,0.2,1.4c0.6,0.4,1.1,0.8,1.7,1.2
		c0.2,0.1,0.4,0.2,0.6,0.2c0.3,0,0.6-0.2,0.8-0.4c0.3-0.5,0.2-1.1-0.3-1.4c-0.5-0.4-1.1-0.8-1.6-1.1
		C136.5,352.3,136.3,352.3,136.1,352.3 M308.1,346.7c-0.2,0-0.4,0.1-0.6,0.2c-0.5,0.4-1,0.8-1.6,1.2c-0.4,0.3-0.5,1-0.2,1.4
		c0.2,0.3,0.5,0.4,0.8,0.4c0.2,0,0.4-0.1,0.6-0.2c0.5-0.4,1.1-0.8,1.6-1.3c0.4-0.3,0.5-1,0.2-1.4
		C308.7,346.9,308.4,346.7,308.1,346.7 M125,343.6c-0.3,0-0.6,0.1-0.8,0.3c-0.4,0.4-0.3,1,0.1,1.4c0.5,0.4,1,0.9,1.5,1.3
		c0.2,0.2,0.4,0.2,0.6,0.2c0.3,0,0.6-0.1,0.8-0.4c0.4-0.4,0.3-1.1-0.1-1.4c-0.5-0.4-1-0.9-1.5-1.3
		C125.5,343.7,125.2,343.6,125,343.6 M318.6,337.4c-0.3,0-0.5,0.1-0.7,0.3c-0.5,0.5-1,0.9-1.4,1.4c-0.4,0.4-0.4,1,0,1.4
		c0.2,0.2,0.5,0.3,0.7,0.3c0.2,0,0.5-0.1,0.7-0.3c0.5-0.5,1-0.9,1.5-1.4c0.4-0.4,0.4-1,0-1.4C319.1,337.5,318.9,337.4,318.6,337.4
		 M328.2,327.1c-0.3,0-0.6,0.1-0.8,0.4c-0.4,0.5-0.9,1-1.3,1.5c-0.4,0.4-0.3,1,0.1,1.4c0.2,0.2,0.4,0.2,0.7,0.2
		c0.3,0,0.6-0.1,0.8-0.3c0.4-0.5,0.9-1,1.3-1.5c0.4-0.4,0.3-1.1-0.1-1.4C328.6,327.2,328.4,327.1,328.2,327.1 M105.6,323.2
		c-0.2,0-0.4,0.1-0.6,0.2c-0.4,0.3-0.5,1-0.2,1.4c0.4,0.5,0.8,1.1,1.3,1.6c0.2,0.2,0.5,0.4,0.8,0.4c0.2,0,0.4-0.1,0.6-0.2
		c0.4-0.3,0.5-1,0.2-1.4c-0.4-0.5-0.8-1-1.2-1.6C106.2,323.4,105.9,323.2,105.6,323.2 M336.7,315.9c-0.3,0-0.6,0.2-0.8,0.4
		c-0.4,0.5-0.8,1.1-1.1,1.6c-0.3,0.5-0.2,1.1,0.2,1.4c0.2,0.1,0.4,0.2,0.6,0.2c0.3,0,0.6-0.1,0.8-0.4c0.4-0.6,0.8-1.1,1.2-1.7
		c0.3-0.5,0.2-1.1-0.3-1.4C337,316,336.9,315.9,336.7,315.9 M97.5,311.8c-0.2,0-0.4,0.1-0.5,0.2c-0.5,0.3-0.6,0.9-0.3,1.4
		c0.4,0.6,0.7,1.1,1.1,1.7c0.2,0.3,0.5,0.5,0.8,0.5c0.2,0,0.4-0.1,0.5-0.2c0.5-0.3,0.6-0.9,0.3-1.4c-0.4-0.6-0.7-1.1-1.1-1.7
		C98.1,311.9,97.8,311.8,97.5,311.8 M344,303.9c-0.4,0-0.7,0.2-0.9,0.5c-0.3,0.6-0.6,1.2-1,1.7c-0.3,0.5-0.1,1.1,0.4,1.4
		c0.2,0.1,0.3,0.1,0.5,0.1c0.3,0,0.7-0.2,0.9-0.5c0.3-0.6,0.7-1.2,1-1.8c0.3-0.5,0.1-1.1-0.4-1.4C344.3,304,344.2,303.9,344,303.9
		 M90.5,299.6c-0.2,0-0.3,0-0.4,0.1c-0.5,0.2-0.7,0.8-0.4,1.3c0.3,0.6,0.6,1.2,0.9,1.8c0.2,0.3,0.5,0.5,0.9,0.5c0.2,0,0.3,0,0.5-0.1
		c0.5-0.3,0.7-0.9,0.4-1.3c-0.3-0.6-0.6-1.2-0.9-1.8C91.3,299.8,90.9,299.6,90.5,299.6 M350.2,291.3c-0.4,0-0.8,0.2-0.9,0.6
		c-0.3,0.6-0.5,1.2-0.8,1.8c-0.2,0.5,0,1.1,0.5,1.3c0.1,0.1,0.3,0.1,0.4,0.1c0.4,0,0.7-0.2,0.9-0.6c0.3-0.6,0.5-1.2,0.8-1.9
		c0.2-0.5,0-1.1-0.5-1.3C350.4,291.3,350.3,291.3,350.2,291.3 M84.8,286.7c-0.1,0-0.2,0-0.4,0.1c-0.5,0.2-0.8,0.8-0.6,1.3
		c0.2,0.6,0.5,1.3,0.7,1.9c0.2,0.4,0.5,0.6,0.9,0.6c0.1,0,0.3,0,0.4-0.1c0.5-0.2,0.8-0.8,0.6-1.3c-0.2-0.6-0.5-1.2-0.7-1.9
		C85.6,287,85.2,286.7,84.8,286.7 M355,278.1c-0.4,0-0.8,0.3-0.9,0.7c-0.2,0.6-0.4,1.3-0.6,1.9c-0.2,0.5,0.1,1.1,0.6,1.3
		c0.1,0,0.2,0.1,0.3,0.1c0.4,0,0.8-0.3,0.9-0.7c0.2-0.6,0.4-1.3,0.6-1.9c0.2-0.5-0.1-1.1-0.7-1.3C355.2,278.1,355.1,278.1,355,278.1
		 M80.4,273.4c-0.1,0-0.2,0-0.3,0c-0.5,0.1-0.8,0.7-0.7,1.2c0.2,0.6,0.4,1.3,0.6,1.9c0.1,0.4,0.5,0.7,1,0.7c0.1,0,0.2,0,0.3,0
		c0.5-0.2,0.8-0.7,0.7-1.2c-0.2-0.6-0.4-1.3-0.5-1.9C81.3,273.7,80.9,273.4,80.4,273.4 M358.6,264.5c-0.5,0-0.9,0.3-1,0.8
		c-0.1,0.7-0.3,1.3-0.4,2c-0.1,0.5,0.2,1.1,0.8,1.2l0.2,0c0.5,0,0.9-0.3,1-0.8c0.1-0.7,0.3-1.3,0.4-2c0.1-0.5-0.2-1.1-0.8-1.2
		C358.7,264.5,358.6,264.5,358.6,264.5 M77.4,259.7c-0.1,0-0.1,0-0.2,0c-0.5,0.1-0.9,0.6-0.8,1.2c0.1,0.7,0.2,1.3,0.4,2
		c0.1,0.5,0.5,0.8,1,0.8l0.2,0c0.5-0.1,0.9-0.6,0.8-1.2c-0.1-0.7-0.2-1.3-0.4-2C78.3,260,77.8,259.7,77.4,259.7 M360.8,250.6
		c-0.5,0-0.9,0.4-1,0.9c-0.1,0.7-0.1,1.3-0.2,2c-0.1,0.5,0.3,1,0.9,1.1l0.1,0c0.5,0,0.9-0.4,1-0.9c0.1-0.7,0.2-1.3,0.2-2
		c0.1-0.5-0.3-1-0.9-1.1C360.8,250.6,360.8,250.6,360.8,250.6 M75.7,245.7C75.6,245.7,75.6,245.7,75.7,245.7c-0.6,0-1,0.5-1,1.1
		c0,0.7,0.1,1.3,0.2,2c0,0.5,0.5,0.9,1,0.9l0.1,0c0.5,0,1-0.5,0.9-1.1c-0.1-0.7-0.1-1.3-0.2-2C76.6,246.1,76.2,245.7,75.7,245.7
		 M361.6,236.6L361.6,236.6c-0.6,0-1,0.4-1,1c0,0.7,0,1.3,0,2c0,0.6,0.4,1,1,1l0,0c0.5,0,1-0.4,1-1c0-0.7,0-1.4,0-2
		C362.6,237,362.1,236.6,361.6,236.6 M75.3,231.7c-0.5,0-1,0.4-1,1c0,0.7,0,1.4,0,2c0,0.6,0.4,1,1,1h0c0.5,0,1-0.4,1-1
		c0-0.7,0-1.3,0-2C76.3,232.1,75.9,231.7,75.3,231.7L75.3,231.7 M361,222.5C361,222.5,361,222.5,361,222.5c-0.6,0.1-1,0.5-1,1.1
		c0.1,0.7,0.1,1.3,0.2,2c0,0.5,0.5,0.9,1,0.9l0.1,0c0.5,0,1-0.5,0.9-1.1c0-0.7-0.1-1.3-0.2-2C362,222.9,361.6,222.5,361,222.5
		 M76.3,217.7c-0.5,0-0.9,0.4-1,0.9c-0.1,0.7-0.2,1.3-0.2,2c-0.1,0.5,0.3,1,0.9,1.1l0.1,0c0.5,0,0.9-0.4,1-0.9
		c0.1-0.7,0.1-1.3,0.2-2c0.1-0.5-0.3-1-0.9-1.1C76.4,217.7,76.4,217.7,76.3,217.7 M359.1,208.6c-0.1,0-0.1,0-0.2,0
		c-0.5,0.1-0.9,0.6-0.8,1.2c0.1,0.7,0.2,1.3,0.4,2c0.1,0.5,0.5,0.8,1,0.8l0.2,0c0.5-0.1,0.9-0.6,0.8-1.2c-0.1-0.7-0.2-1.3-0.4-2
		C360,209,359.6,208.6,359.1,208.6 M78.7,203.8c-0.5,0-0.9,0.3-1,0.8c-0.1,0.7-0.3,1.3-0.4,2c-0.1,0.5,0.2,1.1,0.8,1.2l0.2,0
		c0.5,0,0.9-0.3,1-0.8c0.1-0.7,0.3-1.3,0.4-2c0.1-0.5-0.2-1.1-0.8-1.2C78.9,203.8,78.8,203.8,78.7,203.8 M355.9,195
		c-0.1,0-0.2,0-0.3,0c-0.5,0.2-0.8,0.7-0.7,1.2c0.2,0.6,0.4,1.3,0.5,1.9c0.1,0.4,0.5,0.7,1,0.7l0.3,0c0.5-0.1,0.8-0.7,0.7-1.2
		c-0.2-0.7-0.4-1.3-0.6-1.9C356.7,195.3,356.3,195,355.9,195 M82.5,190.3c-0.4,0-0.8,0.3-0.9,0.7c-0.2,0.6-0.4,1.3-0.6,1.9
		c-0.2,0.5,0.1,1.1,0.7,1.3c0.1,0,0.2,0,0.3,0c0.4,0,0.8-0.3,1-0.7c0.2-0.6,0.4-1.3,0.6-1.9c0.2-0.5-0.1-1.1-0.6-1.3
		C82.7,190.3,82.6,190.3,82.5,190.3 M351.3,181.7c-0.1,0-0.2,0-0.4,0.1c-0.5,0.2-0.8,0.8-0.6,1.3c0.2,0.6,0.5,1.2,0.7,1.8
		c0.2,0.4,0.5,0.6,0.9,0.6c0.1,0,0.2,0,0.4-0.1c0.5-0.2,0.8-0.8,0.6-1.3c-0.2-0.6-0.5-1.3-0.7-1.9
		C352,181.9,351.7,181.7,351.3,181.7 M87.5,177.1c-0.4,0-0.7,0.2-0.9,0.6c-0.3,0.6-0.5,1.2-0.8,1.9c-0.2,0.5,0,1.1,0.5,1.3
		c0.1,0.1,0.3,0.1,0.4,0.1c0.4,0,0.8-0.2,0.9-0.6c0.3-0.6,0.5-1.2,0.8-1.8c0.2-0.5,0-1.1-0.5-1.3C87.8,177.2,87.7,177.1,87.5,177.1
		 M345.4,169c-0.2,0-0.3,0-0.5,0.1c-0.5,0.3-0.7,0.9-0.4,1.3c0.3,0.6,0.6,1.2,0.9,1.8c0.2,0.3,0.5,0.5,0.9,0.5c0.2,0,0.3,0,0.4-0.1
		c0.5-0.2,0.7-0.8,0.4-1.3c-0.3-0.6-0.6-1.2-0.9-1.8C346.1,169.2,345.7,169,345.4,169 M93.9,164.6c-0.3,0-0.7,0.2-0.9,0.5
		c-0.3,0.6-0.7,1.2-1,1.8c-0.3,0.5-0.1,1.1,0.4,1.4c0.2,0.1,0.3,0.1,0.5,0.1c0.4,0,0.7-0.2,0.9-0.5c0.3-0.6,0.6-1.2,1-1.7
		c0.3-0.5,0.1-1.1-0.4-1.4C94.2,164.6,94,164.6,93.9,164.6 M338.3,156.8c-0.2,0-0.4,0.1-0.5,0.2c-0.5,0.3-0.6,0.9-0.3,1.4
		c0.4,0.6,0.7,1.1,1.1,1.7c0.2,0.3,0.5,0.5,0.8,0.5c0.2,0,0.4-0.1,0.5-0.2c0.5-0.3,0.6-0.9,0.3-1.4c-0.4-0.6-0.7-1.1-1.1-1.7
		C338.9,157,338.6,156.8,338.3,156.8 M101.4,152.7c-0.3,0-0.6,0.1-0.8,0.4c-0.3,0.5-0.7,1-1,1.5l-0.1,0.2c-0.3,0.5-0.2,1.1,0.3,1.4
		c0.2,0.1,0.4,0.2,0.6,0.2c0.3,0,0.6-0.2,0.8-0.4l0.1-0.2c0.3-0.5,0.7-1,1-1.4c0.3-0.5,0.2-1.1-0.2-1.4
		C101.8,152.8,101.6,152.7,101.4,152.7 M330,145.5c-0.2,0-0.4,0.1-0.6,0.2c-0.4,0.3-0.5,1-0.2,1.4c0.4,0.5,0.8,1,1.2,1.6
		c0.2,0.3,0.5,0.4,0.8,0.4c0.2,0,0.4-0.1,0.6-0.2c0.4-0.3,0.5-1,0.2-1.4c-0.4-0.5-0.8-1.1-1.3-1.6
		C330.6,145.6,330.3,145.5,330,145.5 M110,141.7c-0.3,0-0.6,0.1-0.8,0.3c-0.4,0.5-0.9,1-1.3,1.5c-0.4,0.4-0.3,1.1,0.1,1.4
		c0.2,0.2,0.4,0.2,0.6,0.2c0.3,0,0.6-0.1,0.8-0.4c0.4-0.5,0.9-1,1.3-1.5c0.4-0.4,0.3-1-0.1-1.4C110.5,141.7,110.3,141.7,110,141.7
		 M320.7,135c-0.3,0-0.5,0.1-0.7,0.3c-0.4,0.4-0.4,1,0,1.4c0.5,0.5,0.9,1,1.4,1.4c0.2,0.2,0.5,0.3,0.7,0.3c0.2,0,0.5-0.1,0.7-0.3
		c0.4-0.4,0.4-1,0-1.4c-0.5-0.5-0.9-1-1.4-1.5C321.2,135.1,320.9,135,320.7,135 M119.7,131.5c-0.2,0-0.5,0.1-0.7,0.3
		c-0.5,0.5-1,0.9-1.5,1.4c-0.4,0.4-0.4,1,0,1.4c0.2,0.2,0.5,0.3,0.7,0.3c0.3,0,0.5-0.1,0.7-0.3c0.5-0.5,1-0.9,1.4-1.4
		c0.4-0.4,0.4-1,0-1.4C120.2,131.6,120,131.5,119.7,131.5 M310.4,125.4c-0.3,0-0.6,0.1-0.8,0.4c-0.4,0.4-0.3,1.1,0.1,1.4
		c0.5,0.4,1,0.9,1.5,1.3c0.2,0.2,0.4,0.2,0.7,0.2c0.3,0,0.6-0.1,0.8-0.3c0.4-0.4,0.3-1-0.1-1.4c-0.5-0.4-1-0.9-1.5-1.3
		C310.8,125.5,310.6,125.4,310.4,125.4 M130.3,122.3c-0.2,0-0.4,0.1-0.6,0.2c-0.5,0.4-1.1,0.8-1.6,1.3c-0.4,0.3-0.5,1-0.2,1.4
		c0.2,0.2,0.5,0.4,0.8,0.4c0.2,0,0.4-0.1,0.6-0.2c0.5-0.4,1-0.8,1.6-1.2c0.4-0.3,0.5-1,0.2-1.4C130.9,122.4,130.6,122.3,130.3,122.3
		 M299.2,116.9c-0.3,0-0.6,0.2-0.8,0.4c-0.3,0.5-0.2,1.1,0.3,1.4c0.5,0.4,1.1,0.8,1.6,1.1c0.2,0.1,0.4,0.2,0.6,0.2
		c0.3,0,0.6-0.1,0.8-0.4c0.3-0.5,0.2-1.1-0.2-1.4c-0.6-0.4-1.1-0.8-1.7-1.2C299.6,117,299.4,116.9,299.2,116.9 M141.8,114.2
		c-0.2,0-0.4,0.1-0.5,0.2c-0.6,0.4-1.1,0.7-1.7,1.1c-0.5,0.3-0.6,0.9-0.3,1.4c0.2,0.3,0.5,0.5,0.8,0.5c0.2,0,0.4-0.1,0.5-0.2
		c0.6-0.4,1.1-0.7,1.7-1.1c0.5-0.3,0.6-0.9,0.3-1.4C142.5,114.4,142.2,114.2,141.8,114.2 M289.9,111.2c-0.2,0.4-0.4,0.9-0.6,1.3
		c0.2-0.1,0.4-0.2,0.5-0.5C290,111.8,290,111.5,289.9,111.2 M154,107.3c-0.2,0-0.3,0-0.4,0.1c-0.6,0.3-1.2,0.6-1.8,0.9
		c-0.5,0.3-0.7,0.9-0.4,1.3c0.2,0.3,0.5,0.5,0.9,0.5c0.2,0,0.3,0,0.5-0.1c0.6-0.3,1.2-0.6,1.8-0.9c0.5-0.2,0.7-0.8,0.4-1.3
		C154.8,107.5,154.4,107.3,154,107.3 M166.9,101.6c-0.1,0-0.2,0-0.4,0.1c-0.6,0.2-1.3,0.5-1.9,0.7c-0.5,0.2-0.8,0.8-0.6,1.3
		c0.2,0.4,0.5,0.6,0.9,0.6c0.1,0,0.2,0,0.4-0.1c0.6-0.2,1.2-0.5,1.9-0.7c0.5-0.2,0.8-0.8,0.6-1.3
		C167.7,101.8,167.3,101.6,166.9,101.6 M261.4,98.6c-0.4,0-0.8,0.3-1,0.7c-0.2,0.5,0.1,1.1,0.7,1.3c0.6,0.2,1.3,0.4,1.9,0.6
		c0.1,0,0.2,0.1,0.3,0.1c0.4,0,0.8-0.3,0.9-0.7c0.2-0.5-0.1-1.1-0.6-1.3c-0.6-0.2-1.3-0.4-1.9-0.6C261.6,98.6,261.5,98.6,261.4,98.6
		 M180.2,97.2c-0.1,0-0.2,0-0.3,0c-0.6,0.2-1.3,0.4-1.9,0.6c-0.5,0.2-0.8,0.7-0.7,1.2c0.1,0.4,0.5,0.7,1,0.7c0.1,0,0.2,0,0.3,0
		c0.6-0.2,1.3-0.4,1.9-0.5c0.5-0.1,0.8-0.7,0.7-1.2C181.1,97.5,180.7,97.2,180.2,97.2 M247.8,95c-0.5,0-0.9,0.3-1,0.8
		c-0.1,0.5,0.2,1.1,0.8,1.2c0.7,0.1,1.3,0.3,1.9,0.4l0.2,0c0.5,0,0.9-0.3,1-0.8c0.1-0.5-0.2-1.1-0.8-1.2c-0.7-0.1-1.3-0.3-2-0.4
		C247.9,95,247.9,95,247.8,95 M193.9,94.1c-0.1,0-0.1,0-0.2,0c-0.7,0.1-1.3,0.2-2,0.4c-0.5,0.1-0.9,0.6-0.8,1.2
		c0.1,0.5,0.5,0.8,1,0.8l0.2,0c0.7-0.1,1.3-0.2,2-0.4c0.5-0.1,0.9-0.6,0.8-1.2C194.8,94.4,194.4,94.1,193.9,94.1 M233.9,92.8
		c-0.5,0-0.9,0.4-1,0.9c-0.1,0.5,0.3,1,0.9,1.1c0.7,0.1,1.3,0.1,2,0.2l0.1,0c0.5,0,0.9-0.4,1-0.9c0.1-0.5-0.3-1-0.9-1.1
		c-0.7-0.1-1.3-0.2-2-0.2C234,92.8,234,92.8,233.9,92.8 M207.9,92.4C207.8,92.4,207.8,92.4,207.9,92.4c-0.7,0.1-1.4,0.1-2.1,0.2
		c-0.5,0-1,0.5-0.9,1.1c0,0.5,0.5,0.9,1,0.9l0.1,0c0.7-0.1,1.3-0.1,2-0.2c0.5,0,1-0.5,0.9-1.1C208.8,92.8,208.4,92.4,207.9,92.4
		 M219.9,92L219.9,92c-0.6,0-1,0.4-1,1c0,0.6,0.4,1,1,1c0.7,0,1.3,0,2,0l0,0c0.5,0,1-0.4,1-1c0-0.6-0.4-1-1-1
		C221.3,92,220.6,92,219.9,92"/>
	<path class="st6" d="M218.4,59.5c-0.4,0-0.8,0-1.3,0c-21.3,0.1-42.2,4.1-61.9,11.6c-16.7,6.4-32.3,15.3-46.4,26.4
		c-13.9,11-26.1,24.1-36.2,38.7c-20.3,29.5-31,64.1-31,100c0,8.2,0.6,16.5,1.7,24.6c2.6,18.6,8.1,36.6,16.4,53.4
		c8.1,16.4,18.7,31.5,31.5,44.7c29.9,31,70,50,112.9,53.4c4.7,0.4,9.5,0.6,14.3,0.6c3,0,5.9-0.1,8.9-0.2c24-1.2,47.6-7.3,69.1-17.9
		c3.1-1.5,6.1-3.1,9.1-4.8c8.4-4.8,16.4-10.2,23.9-16.3c-0.9-0.9-1.8-1.9-2.6-3c-7.3,5.9-15.1,11.2-23.2,15.8
		c-5.1,2.9-10.4,5.5-15.8,7.9c-17.4,7.6-36.1,12.3-55.1,13.9c-4.7,0.4-9.4,0.6-14.1,0.6c-4.6,0-9.3-0.2-13.9-0.6
		c-41.9-3.3-81-21.9-110.3-52.2c-12.5-12.9-22.8-27.6-30.7-43.7c-8.1-16.5-13.5-34-16-52.2c-1.1-7.9-1.7-16-1.7-24.1
		c0-35.1,10.5-68.9,30.3-97.7c9.8-14.3,21.7-27,35.4-37.8c13.8-10.9,29-19.6,45.3-25.8c19.7-7.5,40.5-11.4,61.7-11.4
		c41.7,0,81.9,15.1,113.4,42.4c19.4,16.9,34.6,37.7,44.8,60.9c6.1,14,10.4,28.8,12.7,44c1.2,8.3,1.9,16.9,1.9,25.4
		c0,15.2-2,30.2-5.9,44.7c-4.4,16.4-11.2,32.1-20.3,46.7c-0.2,0.4-0.5,0.8-0.7,1.1c1.1,0.7,2.2,1.4,3.3,2.3c0.3-0.4,0.5-0.9,0.8-1.3
		c8.7-13.9,15.3-28.8,19.8-44.4c4.6-15.8,6.9-32.3,6.9-49.1c0-8.7-0.6-17.5-1.9-26c-2.5-16.8-7.4-33.1-14.5-48.4
		c-10.4-22.3-25.4-42.5-44.3-58.9C306.2,78.3,271,63.4,234,60.2C228.8,59.7,223.6,59.5,218.4,59.5"/>
	<path class="st4" d="M349.6,324.6c-15.9,0-28.8,12.9-28.8,28.8c0,4.3,0.9,8.4,2.6,12.1l0,0c0.4,0.8,0.8,1.6,1.2,2.3v0
		c0.6,1,1.3,2,2,3c0.8,1.1,1.7,2.1,2.6,3c5.2,5.2,12.4,8.4,20.3,8.4c15.9,0,28.8-12.9,28.8-28.8l0,0l0,0c0,15.9-12.9,28.8-28.8,28.8
		c-10.6,0-19.9-5.8-24.9-14.4v0c-0.7-1.4-1.2-2.2-1.2-2.3v0c0.2,0.2,7.4,5.6,18.9,5.6c9.6,0,22.1-3.8,36-17.7l0,0
		c0-9.1-4.2-17.2-10.8-22.4c-1-0.8-2.1-1.6-3.3-2.3C360,326.1,355,324.6,349.6,324.6"/>
	<path class="st7" d="M378.4,353.4c-13.9,13.9-26.4,17.7-36,17.7c-11.5,0-18.7-5.5-18.9-5.6v0c0,0.1,0.5,0.9,1.2,2.3v0
		c5,8.6,14.3,14.4,24.9,14.4C365.5,382.1,378.4,369.2,378.4,353.4"/>
	<path class="st9" d="M113,162.3c-10.3,0-18.7,8.4-18.7,18.7c0,2.8,0.6,5.5,1.7,7.9l0,0c0.2,0.5,0.5,1,0.8,1.5v0
		c1.6,2.8,4,5.2,6.8,6.8c1.1,0.7,2.4,1.2,3.7,1.6c1.8,0.6,3.7,0.9,5.7,0.9c10.3,0,18.7-8.4,18.7-18.7l0,0l0,0
		c0,10.3-8.4,18.7-18.7,18.7c-6.9,0-13-3.8-16.2-9.4v0c-0.5-0.9-0.8-1.5-0.8-1.5v0c0.1,0.1,4.8,3.7,12.3,3.7
		c6.2,0,14.4-2.5,23.4-11.5l0,0c0-6.1-2.9-11.5-7.3-14.9c-1.1-0.8-2.2-1.5-3.4-2.1C118.6,163,115.9,162.3,113,162.3"/>
	<path class="st10" d="M131.8,181.1c-9,9-17.2,11.5-23.4,11.5c-7.5,0-12.2-3.6-12.3-3.7v0c0,0.1,0.3,0.6,0.8,1.5v0
		c3.2,5.6,9.3,9.4,16.2,9.4C123.4,199.8,131.8,191.4,131.8,181.1"/>
	<path class="st9" d="M277.7,93c-7.3,0-13.2,5.9-13.2,13.2c0,2,0.4,3.8,1.2,5.5l0,0c0.2,0.4,0.4,0.7,0.6,1.1v0
		c2.3,3.9,6.5,6.6,11.4,6.6c5,0,9.3-2.8,11.6-6.9c0.2-0.4,0.4-0.8,0.6-1.3c0.6-1.6,1-3.3,1-5l0,0l0,0c0,7.3-5.9,13.2-13.2,13.2
		c-4.9,0-9.1-2.7-11.4-6.6v0c-0.3-0.6-0.5-1-0.6-1.1v0c0.1,0.1,3.4,2.6,8.7,2.6c4.4,0,10.1-1.7,16.5-8.1l0,0
		C290.9,98.9,285,93,277.7,93"/>
	<path class="st10" d="M290.9,106.2c-6.4,6.4-12.1,8.1-16.5,8.1c-5.3,0-8.6-2.5-8.7-2.6v0c0,0,0.2,0.4,0.6,1.1v0
		c2.3,3.9,6.5,6.6,11.4,6.6C285,119.4,290.9,113.5,290.9,106.2"/>
	<path class="st11" d="M376.7,98.8c0,2.3-1.9,4.2-4.2,4.2s-4.2-1.9-4.2-4.2s1.9-4.2,4.2-4.2S376.7,96.5,376.7,98.8z"/>
	<path class="st11" d="M88.4,288.2c0,2.3-1.9,4.2-4.2,4.2c-2.3,0-4.2-1.9-4.2-4.2s1.9-4.2,4.2-4.2C86.5,284,88.4,285.9,88.4,288.2z"
		/>
	<path class="st6" d="M59.3,367.7c0,2.3-1.9,4.2-4.2,4.2c-2.3,0-4.2-1.9-4.2-4.2s1.9-4.2,4.2-4.2C57.4,363.5,59.3,365.4,59.3,367.7z
		"/>
	<path class="st6" d="M382.6,247.4c0,2.3-1.9,4.2-4.2,4.2s-4.2-1.9-4.2-4.2c0-2.3,1.9-4.2,4.2-4.2S382.6,245.1,382.6,247.4z"/>
	<path class="st6" d="M88,68.5c-0.2,0-0.4-0.1-0.6-0.2c-0.3-0.3-0.3-0.8,0-1.1l6.3-6.3c0.3-0.3,0.8-0.3,1.1,0s0.3,0.8,0,1.1
		l-6.3,6.3C88.4,68.5,88.2,68.5,88,68.5z"/>
	<path class="st6" d="M94.3,68.5c-0.2,0-0.4-0.1-0.6-0.2L87.4,62c-0.3-0.3-0.3-0.8,0-1.1c0.3-0.3,0.8-0.3,1.1,0l6.3,6.3
		c0.3,0.3,0.3,0.8,0,1.1C94.7,68.5,94.5,68.5,94.3,68.5z"/>
	<path class="st6" d="M323.5,401.4c-0.2,0-0.4-0.1-0.6-0.2c-0.3-0.3-0.3-0.8,0-1.1l6.3-6.3c0.3-0.3,0.8-0.3,1.1,0
		c0.3,0.3,0.3,0.8,0,1.1l-6.3,6.3C323.9,401.3,323.7,401.4,323.5,401.4z"/>
	<path class="st6" d="M329.8,401.4c-0.2,0-0.4-0.1-0.6-0.2l-6.3-6.3c-0.3-0.3-0.3-0.8,0-1.1c0.3-0.3,0.8-0.3,1.1,0l6.3,6.3
		c0.3,0.3,0.3,0.8,0,1.1C330.2,401.3,330,401.4,329.8,401.4z"/>
	<path class="st12" d="M247,11c0,0,10.7,1.5,13.5,7.6c2.9,6.1,8.1,2.9,12.8,2.6c4.8-0.3,9,7.4,9,12.3l-5.9,2.5c0,0-1-8.7-7.4-7.9
		c-6.4,0.8-12.8,2.4-14.7-6c-1.9-8.4-11.6-5.1-11.6-5.1L247,11z"/>
	<polygon class="st12" points="229.4,8.9 243.5,24.6 250.1,4.6 	"/>
	<path class="st12" d="M330.9,415c0,0-6.4,8.7-13.2,8.2c-6.7-0.5-6.4,5.7-8.5,10c-2,4.3-10.8,4.4-15.2,2l0.7-6.4
		c0,0,8.1,3.4,10.4-2.7c2.4-6,4.1-12.4,12.4-10c8.3,2.4,10.1-7.8,10.1-7.8L330.9,415z"/>
	<polygon class="st12" points="339.8,403.2 319.2,407.9 333.6,423.3 	"/>
	<path class="st12" d="M5.7,227.4c0,0-2.5-6.8,0.2-10.4c2.7-3.6-0.9-5.7-2.5-8.4c-1.7-2.7,1.5-7.7,4.4-9.3l3.4,2.7
		c0,0-4.8,3.3-2.3,6.9c2.5,3.5,5.5,6.8,1.1,10.6c-4.4,3.8,0.7,8.5,0.7,8.5L5.7,227.4z"/>
	<polygon class="st12" points="9.1,236.7 13.9,223.4 0,225.9 	"/>
	<path class="st13" d="M358.4,53.7L358.4,53.7c-1.8-0.8-2.7-2.9-1.9-4.7l9.2-22c0.8-1.8,2.9-2.7,4.7-1.9c1.8,0.8,2.7,2.9,1.9,4.7
		l-9.2,22C362.3,53.6,360.2,54.5,358.4,53.7"/>
	<path class="st13" d="M350.6,33.7L350.6,33.7c0.8-1.8,2.9-2.7,4.7-1.9l22,9.2c1.8,0.8,2.7,2.9,1.9,4.7c-0.8,1.8-2.9,2.7-4.7,1.9
		l-22-9.2C350.7,37.6,349.8,35.5,350.6,33.7"/>
	<path class="st14" d="M26.7,416L26.7,416c-1.4-0.6-2-2.2-1.4-3.5l6.9-16.6c0.6-1.4,2.2-2,3.5-1.4c1.4,0.6,2,2.2,1.4,3.5l-6.9,16.6
		C29.6,415.9,28,416.5,26.7,416"/>
	<path class="st14" d="M20.8,400.9L20.8,400.9c0.6-1.4,2.2-2,3.5-1.4l16.6,6.9c1.4,0.6,2,2.2,1.4,3.5c-0.6,1.4-2.2,2-3.5,1.4
		l-16.6-6.9C20.9,403.8,20.2,402.2,20.8,400.9"/>
	<path class="st5" d="M376.9,404.6L376.9,404.6c-1,0.6-2.3,0.3-3-0.7l-7.5-12.3c-0.6-1-0.3-2.3,0.7-3c1-0.6,2.3-0.3,3,0.7l7.5,12.3
		C378.3,402.7,378,404,376.9,404.6"/>
	<path class="st5" d="M364.4,401.4L364.4,401.4c-0.6-1-0.3-2.3,0.7-3l12.3-7.5c1-0.6,2.3-0.3,3,0.7s0.3,2.3-0.7,3l-12.3,7.5
		C366.3,402.7,365,402.4,364.4,401.4"/>
</g>
</svg>
