<?xml version="1.0" encoding="utf-8"?>
<!-- Generator: Adobe Illustrator 23.0.3, SVG Export Plug-In . SVG Version: 6.00 Build 0)  -->
<svg version="1.1" id="Слой_2" xmlns="http://www.w3.org/2000/svg" xmlns:xlink="http://www.w3.org/1999/xlink" x="0px" y="0px"
	 viewBox="0 0 435.4 449.4" style="enable-background:new 0 0 435.4 449.4;" xml:space="preserve">
<style type="text/css">
	.st0{clip-path:url(#SVGID_2_);fill:#E8F1FA;}
	.st1{clip-path:url(#SVGID_2_);fill:#E5EEFE;}
	.st2{clip-path:url(#SVGID_4_);fill:#FEC02A;}
	.st3{clip-path:url(#SVGID_4_);fill:#31C9AC;}
	.st4{fill:#FFD23C;}
	.st5{fill:#19D2C0;}
	.st6{fill:#E9007F;}
	.st7{fill:#4C59E0;}
	.st8{fill:#FFFFFF;}
	.st9{fill:#627AF4;}
	.st10{fill:#1D2BD6;}
	.st11{fill:#FEC02A;}
	.st12{fill:#FD9107;}
	.st13{fill:#C4D3D7;}
	.st14{fill:#3A4ABD;}
	.st15{fill:#4554DC;}
	.st16{fill:#ADB9D6;}
	.st17{fill:#E1E0FE;}
	.st18{fill:#CE007F;}
	.st19{fill:#566BF3;}
	.st20{fill:#3341BC;}
</style>
<g>
	<g>
		<defs>
			<polyline id="SVGID_1_" points="9.5,36 435.4,36 435.4,449.4 9.5,449.4 9.5,36 			"/>
		</defs>
		<clipPath id="SVGID_2_">
			<use xlink:href="#SVGID_1_"  style="overflow:visible;"/>
		</clipPath>
		<path class="st0" d="M140.8,393.9c-7.9,1.3-15.8,3.3-23.4,5.3c-9.4,2.4-18.9,4.8-28.6,6c-0.3,5.2-0.7,10.3-1.2,15.4
			c-0.3,3.6-0.6,7.4,0.5,10.8c2,6.1,8.1,9.8,14,12.3c10,4.1,20.7,5.8,31.5,5.8h0.2c14.2,0,28.6-2.9,42.2-7
			c12.2-3.6,24.2-8.2,34.5-15.6c6.8-4.8,12.7-10.8,19.1-16.1c-4.2,0.3-8.4,0.5-12.6,0.5c-4.7,0-9.5-0.2-14.3-0.6
			C181.1,408.8,160.1,403.1,140.8,393.9 M166.4,391.9c-6,0-12.1,0.3-18.1,1c17.3,7.5,35.8,12.2,54.8,13.7c4.6,0.4,9.3,0.6,13.9,0.6
			c6.2,0,12.4-0.3,18.5-1c1.5-1,3-2,4.6-2.9c1.2-0.7,2.4-1.3,3.6-1.9c-11.7-2.8-23.6-4.5-34.9-6
			C195.1,393.5,180.8,391.9,166.4,391.9 M51.1,295.3c-2.2,8.2-4.3,16.6-5.6,25.1c-0.5,2.9-0.8,5.9-1.1,8.9
			c14.4,10.1,29.6,19.8,37.7,34.9c6.5,12.1,7.4,26,6.8,39.9c9.5-1.2,19-3.6,28.3-5.9c7.2-1.8,14.7-3.7,22.1-5
			c-18.3-9-35-21.1-49.4-36c-12.8-13.2-23.4-28.3-31.5-44.7C55.7,306.9,53.2,301.2,51.1,295.3 M383,294.9
			c-4.2,11.5-9.6,22.5-16.1,33c-0.3,0.4-0.5,0.9-0.8,1.3c6.6,5.3,10.8,13.4,10.8,22.4l0,0l0,0l0,0c0,15.9-12.9,28.8-28.8,28.8
			c-7.9,0-15.1-3.2-20.3-8.4c-7.5,6.1-15.5,11.5-23.9,16.3c-4,2.3-8.1,4.4-12.3,6.3c5.4,0.2,10.8,0.6,16.1,0.9
			c8.6,0.5,17.1,0.7,25.7,0.7c11.8,0,23.7-0.4,35.4-1.3c6.1-0.5,12.3-1,18.3-2.1c0.3-4.3,0.2-8.7,0-12.6l-3.7-68.8
			C383.3,306,383,300.4,383,294.9 M386.8,283.2c-0.8,2.9-1.8,5.8-2.7,8.7c-0.2,6.5,0.2,13,0.5,19.4l3.7,68.8c0.2,3.9,0.3,8.1,0,12.4
			c7-1.3,13.8-3.1,20.2-6.1c12.3-5.7,23-16.1,26.1-29.3c3.8-16.5-5.2-33.6-17.7-45.1c-6.6-6.1-14.2-11.1-20.6-17.5
			C392.7,291.1,389.6,287.3,386.8,283.2 M50,278.8c0.7,2.6,1.5,5.2,2.3,7.8c0.6-2.4,1.3-4.9,1.9-7.4c-0.2,0-0.4,0-0.6,0
			C52.4,279.3,51.2,279.2,50,278.8 M46.3,207.7c-1.4,8.8-2.1,17.7-2.1,26.8c0,7.1,0.4,14.2,1.3,21.3c2.2-1.7,5-2.7,8-2.7
			c1.8,0,3.4,0.3,5,1C59.5,240.4,58.1,221.6,46.3,207.7 M40,201.4c-1.8,4.5-3.8,8.9-6,13.3c-12.6,25.8-30.8,53.9-20.8,80.8
			c5.4,14.4,17.3,24,30.2,33.1c0.3-2.8,0.6-5.6,1-8.3c1.4-9,3.7-17.9,6-26.6c-2-5.7-3.7-11.4-5.2-17.3c-1.3-1-2.3-2.3-3.1-3.7v0
			c-0.2-0.3-0.4-0.7-0.6-1.1l0,0c-0.8-1.7-1.2-3.6-1.2-5.5c0-2.3,0.6-4.5,1.7-6.4c0-0.2-0.1-0.4-0.1-0.7c-1.1-8.1-1.7-16.4-1.7-24.6
			c0-10.3,0.9-20.4,2.6-30.4C42,203.1,41,202.3,40,201.4 M184.7,121.7c-3.2,0.9-6.4,2-9.6,3.2c-22.3,8.5-41.2,23.5-54.8,43.2
			c-13.4,19.6-20.5,42.5-20.5,66.3c0,5.5,0.4,11,1.1,16.3c3.4,24.6,14.4,47.1,31.8,65.1c18.5,19.1,42.7,31.3,68.9,34.8v-44.8h41.9
			v42.8c10.9-2.5,21.5-6.6,31.2-12.1c17-9.6,31.4-23.5,41.8-40c11.6-18.6,17.7-40,17.7-62c0-5.8-0.4-11.6-1.3-17.2
			c-4.1-27.5-17.9-52.8-39-71.2c-9.2-8-19.5-14.5-30.5-19.2l0.6,0.9h0.9c0.8,0,1.5,0.7,1.5,1.5s-0.7,1.5-1.5,1.5v60.8v0l17.4,15.8
			c0.3-0.3,0.7-0.5,1.1-0.5c0.8,0,1.5,0.7,1.5,1.5v1.4l23.9,21.6v65.1l0,0c-0.3,3.5-3.2,6.2-6.7,6.2V287l-17.8-25.3
			c-0.2,0.2-0.6,0.3-0.9,0.3c-0.8,0-1.5-0.7-1.5-1.5v-1.9c-4.3-4.8-10.5-7.7-17-7.7v0v14.1h2.8c2.3,0,4.5,1.4,5,3.6
			c0.1,0.4,0.2,0.9,0.2,1.3c0,1.4-0.5,2.6-1.4,3.5c-0.9,0.9-2.1,1.4-3.5,1.4h-15.1c0.5,1.1,1.3,2.1,2.2,3c2.1,1.9,3.5,4.3,3.5,7.1
			v21h-72.2v-21c0-2.8,1.4-5.3,3.4-7.2c1-0.9,1.7-1.9,2.3-3l0,0h-14.8c-2.3,0-4.5-1.4-5-3.6c-0.5-1.9,0.1-3.6,1.3-4.7
			c0.9-0.9,2.1-1.4,3.5-1.4h3.1v-14.1c-6.5,0-12.7,2.8-16.9,7.6v2c0,0.8-0.7,1.5-1.5,1.5c-0.3,0-0.7-0.1-0.9-0.3l-24.5,34.8v-65.1
			l23.9-21.7v-1.3c0-0.8,0.7-1.5,1.5-1.5c0.4,0,0.8,0.2,1.1,0.5l17.4-15.7l0-60.8c-0.8,0-1.5-0.7-1.5-1.5c0-0.8,0.7-1.5,1.5-1.5h0.9
			L184.7,121.7 M336.4,104.1c18,16.5,32.3,36.4,42.1,58.4c2.1-4.5,4.7-8.7,7.8-12.6c6.4-8,14.9-14.2,20.8-22.6
			c0.3-0.4,0.5-0.8,0.8-1.1c-1.9-1.4-3.8-2.7-5.8-3.9c-10.2-5.8-22.1-7.9-33.6-9.9c-4.6-0.8-9.4-1.6-14.1-2.7
			C348.2,108.3,342.2,106.4,336.4,104.1 M310.2,89c1.6,1.1,3.2,2.2,4.8,3.2C313.4,91.1,311.8,90,310.2,89 M215.6,378.6
			c-0.7,0-1.3,0-2,0c-0.6,0-1-0.5-1-1c0-0.5,0.5-1,1-1h0c0.7,0,1.3,0,2,0c0.6,0,1,0.5,1,1C216.6,378.1,216.1,378.6,215.6,378.6
			L215.6,378.6 M227.6,378.2c-0.5,0-1-0.4-1-0.9c0-0.5,0.4-1,0.9-1.1c0.7,0,1.3-0.1,2-0.2c0,0,0.1,0,0.1,0c0.5,0,0.9,0.4,1,0.9
			c0,0.5-0.4,1-0.9,1.1C229,378.1,228.4,378.1,227.6,378.2L227.6,378.2 M201.6,377.7l-0.1,0c-0.7-0.1-1.3-0.1-2-0.2
			c-0.5-0.1-0.9-0.6-0.9-1.1c0.1-0.5,0.5-0.9,1-0.9c0,0,0.1,0,0.1,0c0.7,0.1,1.3,0.2,2,0.2c0.5,0.1,0.9,0.6,0.9,1.1
			C202.5,377.4,202.1,377.7,201.6,377.7 M241.6,376.5c-0.5,0-0.9-0.3-1-0.8c-0.1-0.5,0.3-1.1,0.8-1.2c0.7-0.1,1.3-0.2,2-0.4
			c0.1,0,0.1,0,0.2,0c0.5,0,0.9,0.3,1,0.8c0.1,0.5-0.3,1.1-0.8,1.2c-0.7,0.1-1.3,0.2-2,0.4L241.6,376.5 M187.7,375.6l-0.2,0
			c-0.7-0.1-1.3-0.3-2-0.4c-0.5-0.1-0.9-0.7-0.8-1.2c0.1-0.5,0.5-0.8,1-0.8c0.1,0,0.1,0,0.2,0c0.6,0.1,1.3,0.3,2,0.4
			c0.5,0.1,0.9,0.6,0.8,1.2C188.6,375.2,188.1,375.6,187.7,375.6 M255.3,373.4c-0.4,0-0.8-0.3-1-0.7c-0.1-0.5,0.2-1.1,0.7-1.2
			c0.6-0.2,1.3-0.4,1.9-0.5c0.1,0,0.2,0,0.3,0c0.4,0,0.8,0.3,1,0.7c0.2,0.5-0.1,1.1-0.7,1.2c-0.6,0.2-1.3,0.4-1.9,0.6L255.3,373.4
			 M174.1,372c-0.1,0-0.2,0-0.3,0c-0.6-0.2-1.3-0.4-1.9-0.6c-0.5-0.2-0.8-0.7-0.6-1.3c0.1-0.4,0.5-0.7,0.9-0.7c0.1,0,0.2,0,0.3,0.1
			c0.6,0.2,1.3,0.4,1.9,0.6c0.5,0.2,0.8,0.7,0.7,1.3C174.9,371.8,174.5,372,174.1,372 M268.6,369c-0.4,0-0.8-0.2-0.9-0.6
			c-0.2-0.5,0.1-1.1,0.6-1.3c0.6-0.2,1.2-0.5,1.8-0.7c0.1,0,0.2-0.1,0.4-0.1c0.4,0,0.8,0.2,0.9,0.6c0.2,0.5,0,1.1-0.6,1.3
			c-0.6,0.3-1.2,0.5-1.9,0.7C268.8,369,268.7,369,268.6,369 M160.9,367.2c-0.1,0-0.3,0-0.4-0.1c-0.6-0.3-1.2-0.5-1.9-0.8
			c-0.5-0.2-0.7-0.8-0.5-1.3c0.2-0.4,0.5-0.6,0.9-0.6c0.1,0,0.3,0,0.4,0.1c0.6,0.3,1.2,0.5,1.8,0.8c0.5,0.2,0.7,0.8,0.5,1.3
			C161.7,366.9,161.3,367.2,160.9,367.2 M281.4,363.3c-0.4,0-0.7-0.2-0.9-0.5c-0.2-0.5-0.1-1.1,0.4-1.3c0.6-0.3,1.2-0.6,1.8-0.9
			c0.1-0.1,0.3-0.1,0.5-0.1c0.4,0,0.7,0.2,0.9,0.5c0.3,0.5,0.1,1.1-0.4,1.3c-0.6,0.3-1.2,0.6-1.8,0.9
			C281.7,363.2,281.6,363.3,281.4,363.3 M148.3,361c-0.2,0-0.3,0-0.5-0.1c-0.6-0.3-1.2-0.7-1.8-1c-0.5-0.3-0.6-0.9-0.4-1.4
			c0.2-0.3,0.5-0.5,0.9-0.5c0.2,0,0.3,0,0.5,0.1c0.6,0.3,1.2,0.7,1.7,1c0.5,0.3,0.7,0.9,0.4,1.4C148.9,360.8,148.6,361,148.3,361
			 M293.6,356.3c-0.3,0-0.7-0.2-0.8-0.5c-0.3-0.5-0.2-1.1,0.3-1.4c0.6-0.4,1.1-0.7,1.7-1.1c0.2-0.1,0.4-0.2,0.5-0.2
			c0.3,0,0.6,0.2,0.8,0.5c0.3,0.5,0.2,1.1-0.3,1.4c-0.6,0.4-1.1,0.7-1.7,1.1C294,356.3,293.8,356.3,293.6,356.3 M136.3,353.7
			c-0.2,0-0.4-0.1-0.6-0.2c-0.6-0.4-1.1-0.8-1.7-1.2c-0.5-0.3-0.6-0.9-0.2-1.4c0.2-0.3,0.5-0.4,0.8-0.4c0.2,0,0.4,0.1,0.6,0.2
			c0.5,0.4,1.1,0.8,1.6,1.1c0.5,0.3,0.6,0.9,0.3,1.4C136.9,353.5,136.6,353.7,136.3,353.7 M305.1,348.2c-0.3,0-0.6-0.1-0.8-0.4
			c-0.3-0.4-0.3-1.1,0.2-1.4c0.5-0.4,1-0.8,1.6-1.2c0.2-0.1,0.4-0.2,0.6-0.2c0.3,0,0.6,0.1,0.8,0.4c0.3,0.4,0.3,1.1-0.2,1.4
			c-0.5,0.4-1.1,0.8-1.6,1.3C305.5,348.2,305.3,348.2,305.1,348.2 M125.1,345.2c-0.2,0-0.5-0.1-0.6-0.2c-0.5-0.4-1-0.9-1.5-1.3
			c-0.4-0.4-0.5-1-0.1-1.4c0.2-0.2,0.5-0.3,0.8-0.3c0.2,0,0.5,0.1,0.7,0.2c0.5,0.4,1,0.9,1.5,1.3c0.4,0.4,0.5,1,0.1,1.4
			C125.7,345.1,125.4,345.2,125.1,345.2 M315.7,339c-0.3,0-0.5-0.1-0.7-0.3c-0.4-0.4-0.4-1,0-1.4c0.5-0.5,1-0.9,1.4-1.4
			c0.2-0.2,0.4-0.3,0.7-0.3c0.3,0,0.5,0.1,0.7,0.3c0.4,0.4,0.4,1,0,1.4c-0.5,0.5-1,0.9-1.5,1.4C316.2,339,316,339,315.7,339
			 M325.4,328.9c-0.2,0-0.5-0.1-0.7-0.2c-0.4-0.4-0.5-1-0.1-1.4c0.4-0.5,0.9-1,1.3-1.5c0.2-0.2,0.5-0.4,0.8-0.4
			c0.2,0,0.5,0.1,0.6,0.2c0.4,0.4,0.5,1,0.1,1.4c-0.4,0.5-0.9,1-1.3,1.5C326,328.8,325.7,328.9,325.4,328.9 M105.4,325.1
			c-0.3,0-0.6-0.1-0.8-0.4c-0.4-0.5-0.8-1.1-1.3-1.6c-0.3-0.4-0.3-1.1,0.2-1.4c0.2-0.1,0.4-0.2,0.6-0.2c0.3,0,0.6,0.1,0.8,0.4
			c0.4,0.5,0.8,1,1.2,1.6c0.3,0.4,0.3,1.1-0.2,1.4C105.8,325,105.6,325.1,105.4,325.1 M334.1,317.8c-0.2,0-0.4-0.1-0.6-0.2
			c-0.5-0.3-0.6-0.9-0.2-1.4c0.4-0.5,0.8-1.1,1.1-1.6c0.2-0.3,0.5-0.4,0.8-0.4c0.2,0,0.4,0.1,0.6,0.2c0.5,0.3,0.6,0.9,0.3,1.4
			c-0.4,0.6-0.8,1.1-1.2,1.7C334.7,317.6,334.4,317.8,334.1,317.8 M97.1,313.7c-0.3,0-0.6-0.2-0.8-0.5c-0.4-0.6-0.7-1.1-1.1-1.7
			c-0.3-0.5-0.2-1.1,0.3-1.4c0.2-0.1,0.4-0.2,0.5-0.2c0.3,0,0.7,0.2,0.8,0.5c0.4,0.6,0.7,1.1,1.1,1.7c0.3,0.5,0.2,1.1-0.3,1.4
			C97.5,313.6,97.3,313.7,97.1,313.7 M341.6,305.9c-0.2,0-0.3,0-0.5-0.1c-0.5-0.3-0.6-0.9-0.4-1.4c0.3-0.6,0.7-1.2,1-1.7
			c0.2-0.3,0.5-0.5,0.9-0.5c0.2,0,0.3,0,0.5,0.1c0.5,0.3,0.7,0.9,0.4,1.4c-0.3,0.6-0.7,1.2-1,1.8
			C342.3,305.7,341.9,305.9,341.6,305.9 M90,301.6c-0.4,0-0.7-0.2-0.9-0.5c-0.3-0.6-0.6-1.2-0.9-1.8c-0.2-0.5-0.1-1.1,0.4-1.3
			c0.1-0.1,0.3-0.1,0.4-0.1c0.4,0,0.7,0.2,0.9,0.5c0.3,0.6,0.6,1.2,0.9,1.8c0.3,0.5,0.1,1.1-0.4,1.3C90.3,301.5,90.2,301.6,90,301.6
			 M347.9,293.4c-0.1,0-0.3,0-0.4-0.1c-0.5-0.2-0.7-0.8-0.5-1.3c0.3-0.6,0.5-1.2,0.8-1.8c0.2-0.4,0.5-0.6,0.9-0.6
			c0.1,0,0.3,0,0.4,0.1c0.5,0.2,0.7,0.8,0.5,1.3c-0.3,0.6-0.5,1.2-0.8,1.9C348.7,293.2,348.3,293.4,347.9,293.4 M84.1,288.8
			c-0.4,0-0.8-0.2-0.9-0.6c-0.3-0.6-0.5-1.3-0.7-1.9c-0.2-0.5,0.1-1.1,0.6-1.3c0.1,0,0.2-0.1,0.4-0.1c0.4,0,0.8,0.2,0.9,0.6
			c0.2,0.6,0.5,1.2,0.7,1.9c0.2,0.5,0,1.1-0.6,1.3C84.4,288.8,84.3,288.8,84.1,288.8 M353,280.3c-0.1,0-0.2,0-0.3-0.1
			c-0.5-0.2-0.8-0.7-0.6-1.3c0.2-0.6,0.4-1.3,0.6-1.9c0.1-0.4,0.5-0.7,0.9-0.7c0.1,0,0.2,0,0.3,0c0.5,0.2,0.8,0.7,0.7,1.3
			c-0.2,0.6-0.4,1.3-0.6,1.9C353.8,280,353.4,280.3,353,280.3 M79.5,275.6c-0.4,0-0.8-0.3-1-0.7c-0.2-0.6-0.4-1.3-0.6-1.9
			c-0.1-0.5,0.2-1.1,0.7-1.2c0.1,0,0.2,0,0.3,0c0.4,0,0.8,0.3,1,0.7c0.2,0.6,0.4,1.3,0.5,1.9c0.2,0.5-0.1,1.1-0.7,1.2
			C79.7,275.5,79.6,275.6,79.5,275.6 M356.7,266.7l-0.2,0c-0.5-0.1-0.9-0.7-0.8-1.2c0.1-0.6,0.3-1.3,0.4-2c0.1-0.5,0.5-0.8,1-0.8
			c0.1,0,0.1,0,0.2,0c0.5,0.1,0.9,0.6,0.8,1.2c-0.1,0.7-0.3,1.3-0.4,2C357.6,266.4,357.2,266.7,356.7,266.7 M76.3,261.9
			c-0.5,0-0.9-0.3-1-0.8c-0.1-0.7-0.2-1.3-0.4-2c-0.1-0.5,0.3-1.1,0.8-1.2c0.1,0,0.1,0,0.2,0c0.5,0,0.9,0.3,1,0.8
			c0.1,0.7,0.2,1.3,0.4,2c0.1,0.5-0.3,1.1-0.8,1.2L76.3,261.9 M359.1,252.9l-0.1,0c-0.5-0.1-0.9-0.6-0.9-1.1c0.1-0.7,0.2-1.3,0.2-2
			c0.1-0.5,0.5-0.9,1-0.9c0,0,0.1,0,0.1,0c0.5,0.1,0.9,0.6,0.9,1.1c-0.1,0.7-0.1,1.3-0.2,2C360,252.5,359.6,252.9,359.1,252.9
			 M74.4,248c-0.5,0-0.9-0.4-1-0.9c-0.1-0.7-0.1-1.3-0.2-2c0-0.5,0.4-1,0.9-1.1c0,0,0.1,0,0.1,0c0.5,0,1,0.4,1,0.9
			c0,0.7,0.1,1.3,0.2,2C75.4,247.4,75,247.9,74.4,248L74.4,248 M360.1,238.8c-0.6,0-1-0.5-1-1c0-0.7,0-1.3,0-2c0-0.5,0.5-1,1-1h0
			c0.6,0,1,0.5,1,1c0,0.7,0,1.4,0,2C361.1,238.4,360.6,238.8,360.1,238.8L360.1,238.8 M73.8,233.9c-0.6,0-1-0.5-1-1c0-0.7,0-1.4,0-2
			c0-0.5,0.5-1,1-1l0,0c0.6,0,1,0.5,1,1c0,0.7,0,1.3,0,2C74.8,233.5,74.4,233.9,73.8,233.9L73.8,233.9 M359.8,224.8
			c-0.5,0-1-0.4-1-0.9c0-0.7-0.1-1.3-0.2-2c0-0.5,0.4-1,0.9-1.1c0,0,0.1,0,0.1,0c0.5,0,0.9,0.4,1,0.9c0.1,0.7,0.1,1.3,0.2,2
			C360.8,224.3,360.4,224.7,359.8,224.8L359.8,224.8 M74.7,219.9l-0.1,0c-0.5-0.1-0.9-0.6-0.9-1.1c0.1-0.7,0.1-1.3,0.2-2
			c0.1-0.5,0.5-0.9,1-0.9c0,0,0.1,0,0.1,0c0.5,0.1,0.9,0.6,0.9,1.1c-0.1,0.7-0.2,1.3-0.2,2C75.6,219.5,75.2,219.9,74.7,219.9
			 M358,210.8c-0.5,0-0.9-0.3-1-0.8c-0.1-0.7-0.2-1.3-0.4-2c-0.1-0.5,0.3-1.1,0.8-1.2c0.1,0,0.1,0,0.2,0c0.5,0,0.9,0.3,1,0.8
			c0.1,0.7,0.2,1.3,0.4,2c0.1,0.5-0.3,1.1-0.8,1.2L358,210.8 M76.9,206l-0.2,0c-0.5-0.1-0.9-0.6-0.8-1.2c0.1-0.7,0.3-1.3,0.4-2
			c0.1-0.5,0.5-0.8,1-0.8c0.1,0,0.1,0,0.2,0c0.5,0.1,0.9,0.7,0.8,1.2c-0.1,0.6-0.3,1.3-0.4,2C77.7,205.7,77.3,206,76.9,206
			 M80.4,192.4c-0.1,0-0.2,0-0.3,0c-0.5-0.2-0.8-0.7-0.7-1.3c0.2-0.6,0.4-1.3,0.6-1.9c0.1-0.4,0.5-0.7,0.9-0.7c0.1,0,0.2,0,0.3,0.1
			c0.5,0.2,0.8,0.7,0.6,1.3c-0.2,0.6-0.4,1.3-0.6,1.9C81.2,192.1,80.8,192.4,80.4,192.4 M353.3,196.6c-4.9,0-9.1-2.7-11.4-6.6v0
			c-0.2-0.3-0.4-0.7-0.6-1.1l0,0c-0.8-1.7-1.2-3.6-1.2-5.5c0-7.3,5.9-13.2,13.2-13.2c7.3,0,13.2,5.9,13.2,13.2l0,0l0,0l0,0
			c0,6.4-4.5,11.7-10.5,12.9c-0.1,0.4-0.3,0.7-0.7,0.8l-0.3,0c-0.4,0-0.7-0.2-0.9-0.5C353.8,196.6,353.5,196.6,353.3,196.6
			 M344.9,171c-0.4,0-0.7-0.2-0.9-0.5c-0.3-0.6-0.6-1.2-0.9-1.8c-0.3-0.5-0.1-1.1,0.4-1.3c0.1-0.1,0.3-0.1,0.5-0.1
			c0.4,0,0.7,0.2,0.9,0.5c0.3,0.6,0.6,1.2,0.9,1.8c0.2,0.5,0.1,1.1-0.4,1.3C345.2,171,345,171,344.9,171 M337.9,158.8
			c-0.3,0-0.7-0.2-0.8-0.5c-0.4-0.6-0.7-1.1-1.1-1.7c-0.3-0.5-0.2-1.1,0.3-1.4c0.2-0.1,0.4-0.2,0.5-0.2c0.3,0,0.6,0.2,0.8,0.5
			c0.4,0.6,0.7,1.1,1.1,1.7c0.3,0.5,0.2,1.1-0.3,1.4C338.3,158.7,338.1,158.8,337.9,158.8 M329.8,147.3c-0.3,0-0.6-0.1-0.8-0.4
			c-0.4-0.5-0.8-1-1.2-1.6c-0.3-0.4-0.3-1.1,0.2-1.4c0.2-0.1,0.4-0.2,0.6-0.2c0.3,0,0.6,0.1,0.8,0.4c0.4,0.5,0.8,1.1,1.3,1.6
			c0.3,0.4,0.3,1.1-0.2,1.4C330.3,147.2,330,147.3,329.8,147.3 M107.3,143.4c-0.2,0-0.5-0.1-0.6-0.2c-0.4-0.4-0.5-1-0.1-1.4
			c0.4-0.5,0.9-1,1.3-1.5c0.2-0.2,0.5-0.3,0.8-0.3c0.2,0,0.5,0.1,0.7,0.2c0.4,0.4,0.5,1,0.1,1.4c-0.4,0.5-0.9,1-1.3,1.5
			C107.8,143.3,107.6,143.4,107.3,143.4 M320.6,136.7c-0.3,0-0.5-0.1-0.7-0.3c-0.5-0.5-0.9-1-1.4-1.4c-0.4-0.4-0.4-1,0-1.4
			c0.2-0.2,0.4-0.3,0.7-0.3c0.3,0,0.5,0.1,0.7,0.3c0.5,0.5,0.9,1,1.4,1.5c0.4,0.4,0.4,1,0,1.4C321.1,136.6,320.9,136.7,320.6,136.7
			 M116.8,133.1c-0.3,0-0.5-0.1-0.7-0.3c-0.4-0.4-0.4-1,0-1.4c0.5-0.5,1-0.9,1.5-1.4c0.2-0.2,0.4-0.3,0.7-0.3c0.3,0,0.5,0.1,0.7,0.3
			c0.4,0.4,0.4,1,0,1.4c-0.5,0.5-1,0.9-1.4,1.4C117.3,133,117.1,133.1,116.8,133.1 M310.5,127c-0.2,0-0.5-0.1-0.7-0.2
			c-0.5-0.4-1-0.9-1.5-1.3c-0.4-0.4-0.5-1-0.1-1.4c0.2-0.2,0.5-0.4,0.8-0.4c0.2,0,0.5,0.1,0.6,0.2c0.5,0.4,1,0.9,1.5,1.3
			c0.4,0.4,0.5,1,0.1,1.4C311,126.9,310.7,127,310.5,127 M127.3,123.8c-0.3,0-0.6-0.1-0.8-0.4c-0.3-0.4-0.3-1.1,0.2-1.4
			c0.5-0.4,1.1-0.8,1.6-1.3c0.2-0.1,0.4-0.2,0.6-0.2c0.3,0,0.6,0.1,0.8,0.4c0.3,0.4,0.3,1.1-0.2,1.4c-0.5,0.4-1,0.8-1.6,1.2
			C127.8,123.7,127.5,123.8,127.3,123.8 M299.4,118.3c-0.2,0-0.4-0.1-0.6-0.2c-0.5-0.4-1.1-0.8-1.6-1.1c-0.5-0.3-0.6-0.9-0.3-1.4
			c0.2-0.3,0.5-0.4,0.8-0.4c0.2,0,0.4,0.1,0.6,0.2c0.6,0.4,1.1,0.8,1.7,1.2c0.5,0.3,0.6,0.9,0.2,1.4
			C300,118.2,299.7,118.3,299.4,118.3 M138.7,115.5c-0.3,0-0.6-0.2-0.8-0.5c-0.3-0.5-0.2-1.1,0.3-1.4c0.6-0.4,1.1-0.7,1.7-1.1
			c0.2-0.1,0.4-0.2,0.5-0.2c0.3,0,0.7,0.2,0.8,0.5c0.3,0.5,0.2,1.1-0.3,1.4c-0.6,0.4-1.1,0.7-1.7,1.1
			C139.1,115.5,138.9,115.5,138.7,115.5 M287.5,110.8c-0.2,0-0.3,0-0.5-0.1c-0.6-0.3-1.2-0.7-1.7-1c-0.5-0.3-0.7-0.9-0.4-1.4
			c0.2-0.3,0.5-0.5,0.9-0.5c0.2,0,0.3,0,0.5,0.1c0.6,0.3,1.2,0.7,1.8,1c0.5,0.3,0.6,0.9,0.4,1.4
			C288.2,110.6,287.9,110.8,287.5,110.8 M150.8,108.4c-0.4,0-0.7-0.2-0.9-0.5c-0.3-0.5-0.1-1.1,0.4-1.3c0.6-0.3,1.2-0.6,1.8-0.9
			c0.1-0.1,0.3-0.1,0.4-0.1c0.4,0,0.7,0.2,0.9,0.5c0.2,0.5,0.1,1.1-0.4,1.3c-0.6,0.3-1.2,0.6-1.8,0.9
			C151.1,108.4,151,108.4,150.8,108.4 M275,104.5c-0.1,0-0.3,0-0.4-0.1c-0.6-0.3-1.2-0.5-1.8-0.8c-0.5-0.2-0.7-0.8-0.5-1.3
			c0.2-0.4,0.5-0.6,0.9-0.6c0.1,0,0.3,0,0.4,0.1c0.6,0.3,1.2,0.5,1.9,0.8c0.5,0.2,0.7,0.8,0.5,1.3
			C275.7,104.3,275.4,104.5,275,104.5 M163.6,102.6c-0.4,0-0.8-0.2-0.9-0.6c-0.2-0.5,0-1.1,0.6-1.3c0.6-0.3,1.3-0.5,1.9-0.7
			c0.1,0,0.2-0.1,0.4-0.1c0.4,0,0.8,0.2,0.9,0.6c0.2,0.5-0.1,1.1-0.6,1.3c-0.6,0.2-1.2,0.5-1.9,0.7
			C163.8,102.5,163.7,102.6,163.6,102.6 M261.9,99.4c-0.1,0-0.2,0-0.3-0.1c-0.6-0.2-1.3-0.4-1.9-0.6c-0.5-0.2-0.8-0.7-0.7-1.3
			c0.1-0.4,0.5-0.7,1-0.7c0.1,0,0.2,0,0.3,0c0.6,0.2,1.3,0.4,1.9,0.6c0.5,0.2,0.8,0.7,0.6,1.3C262.7,99.2,262.3,99.4,261.9,99.4
			 M176.8,98c-0.4,0-0.8-0.3-1-0.7c-0.2-0.5,0.1-1.1,0.7-1.2c0.6-0.2,1.3-0.4,1.9-0.6c0.1,0,0.2,0,0.3,0c0.4,0,0.8,0.3,1,0.7
			c0.1,0.5-0.2,1.1-0.7,1.2c-0.6,0.2-1.3,0.4-1.9,0.5C177,97.9,176.9,98,176.8,98 M248.3,95.7l-0.2,0c-0.6-0.1-1.3-0.3-1.9-0.4
			c-0.5-0.1-0.9-0.6-0.8-1.2c0.1-0.5,0.5-0.8,1-0.8c0.1,0,0.1,0,0.2,0c0.7,0.1,1.3,0.3,2,0.4c0.5,0.1,0.9,0.7,0.8,1.2
			C249.2,95.4,248.8,95.7,248.3,95.7 M190.5,94.7c-0.5,0-0.9-0.3-1-0.8c-0.1-0.5,0.3-1.1,0.8-1.2c0.7-0.1,1.3-0.2,2-0.4
			c0.1,0,0.1,0,0.2,0c0.5,0,0.9,0.3,1,0.8c0.1,0.5-0.3,1.1-0.8,1.2c-0.7,0.1-1.3,0.2-2,0.4L190.5,94.7 M213.5,76.1
			c2.7-2,5.8-2.9,9-2.9c2,0,4,0.4,5.8,1.2c2.3,0.9,4.3,2.4,6,4.5l0,0l6.2,10.3l19.4,32c13.3,5,25.7,12.4,36.6,21.9
			c21.8,19,36.2,45.1,40.3,73.6c0.9,5.8,1.3,11.8,1.3,17.8c0,22.7-6.3,44.9-18.3,64.1c-10.7,17.1-25.6,31.4-43.2,41.4
			c-10.4,5.9-21.6,10.2-33.2,12.8v14h-41.9v-12.1c-27.2-3.5-52.5-16.1-71.7-36c-17.9-18.6-29.3-41.8-32.8-67.3
			c-0.8-5.6-1.2-11.2-1.2-16.9c0-24.6,7.3-48.3,21.2-68.6c14-20.4,33.6-35.8,56.6-44.7c4.6-1.8,9.3-3.2,14-4.4l16.8-27.7l6.2-10.3
			l0,0C211.5,77.8,212.5,76.9,213.5,76.1C213.5,76.1,213.5,76.1,213.5,76.1C213.5,76.1,213.5,76.1,213.5,76.1 M217,61.7
			c-21.3,0-42.1,3.8-61.7,11.4c-16.3,6.2-31.6,14.9-45.3,25.8c-13.6,10.8-25.5,23.5-35.4,37.8c-2,2.9-3.9,5.8-5.7,8.8
			c3.3-3.1,7.8-4.9,12.7-4.9c7.7,0,14.3,4.7,17.2,11.3c0.1-0.2,0.2-0.3,0.3-0.5c0.2-0.3,0.5-0.4,0.8-0.4c0.2,0,0.4,0.1,0.6,0.2
			c0.5,0.3,0.6,0.9,0.2,1.4c-0.3,0.5-0.7,1-1,1.4l-0.1,0.2c0,0,0,0,0,0c0.5,1.6,0.7,3.3,0.7,5.1l0,0l0,0l0,0c0,8.5-5.7,15.8-13.5,18
			c-0.2,0.4-0.4,0.9-0.6,1.3c-0.2,0.4-0.5,0.6-0.9,0.6c-0.1,0-0.3,0-0.4-0.1c-0.5-0.2-0.7-0.8-0.5-1.3c0,0,0,0,0,0
			c-0.9,0.1-1.8,0.2-2.8,0.2c-6.9,0-13-3.8-16.2-9.4v0c-0.3-0.5-0.5-1-0.8-1.5l0,0c-1.1-2.4-1.7-5-1.7-7.9c0-1.2,0.1-2.4,0.3-3.5
			c-8.1,15.9-13.7,32.9-16.6,50.5c12.6,14.4,14,34.1,13,48c4.3,2.2,7.2,6.6,7.2,11.8l0,0l0,0l0,0c0,6.7-5,12.3-11.5,13.1
			c-0.8,3.1-1.6,6.2-2.4,9.2c2.5,7.6,5.5,15,9.1,22.2c7.9,16.1,18.3,30.8,30.7,43.7c15.5,16,33.7,28.8,53.7,37.7
			c6.7-0.8,13.3-1.2,19.9-1.2c14.5,0,28.8,1.6,42.5,3.4c11.8,1.5,24.1,3.3,36.3,6.3c11.1-5,23.4-6.3,35.9-6.3c0.4,0,0.8,0,1.3,0
			c6.7-2.8,13.3-5.9,19.7-9.5c8.2-4.6,15.9-9.9,23.2-15.8c-0.7-0.9-1.4-1.9-2-3v0c-0.4-0.8-0.8-1.5-1.2-2.3l0,0
			c-1.7-3.7-2.6-7.7-2.6-12.1c0-15.9,12.9-28.8,28.8-28.8c5.4,0,10.4,1.5,14.7,4c0.2-0.4,0.5-0.8,0.7-1.1
			c9.2-14.7,16-30.6,20.4-47.1c-11.5-19.9-14.7-44.9-14.4-68.4c0.2-14.4,1.7-29.4,6.7-42.7c-10.2-24.2-25.8-46-45.9-63.5
			c-2.5-2.2-5-4.3-7.6-6.3c-7.3-3.9-14.3-8.5-20.7-13.8C276.2,69.5,247,61.7,217,61.7 M264.4,52c-5.3,2.2-10.5,4.5-16,6
			c-2.3,0.6-4.5,1.1-6.9,1.4c16.9,2.4,33.4,7.2,48.8,14.2c-0.7-0.6-1.4-1.3-2-1.9c-5.9-5.6-12-11.4-18.7-16.2
			C267.9,54.3,266.1,53.1,264.4,52 M154.7,47c-1.5,0.6-3,1.2-4.4,1.8c-35.7,14.9-65.4,40.3-93.7,65.8c0,2.3,0,4.5,0,6.7
			c-0.5,27.1-6,54.1-16.1,79.2c0.9,0.8,1.8,1.5,2.7,2.4c4.4-24.4,13.9-47.6,28.2-68.3c10.1-14.6,22.2-27.7,36.2-38.7
			c14.1-11.1,29.7-20,46.4-26.4c17-6.5,34.8-10.3,53.1-11.4C189.4,55,172.1,50.1,154.7,47 M293.8,45.3c-5.6,0-11.2,0.7-16.8,2.2
			c-3.9,1.1-7.7,2.5-11.5,4.1c1.6,1,3.1,2.1,4.7,3.2C276.9,59.6,283,65.4,289,71c1.4,1.3,2.8,2.7,4.3,4
			c14.3,6.8,27.6,15.6,39.7,26.1c0.4,0.4,0.8,0.7,1.2,1.1c6.6,2.7,13.4,4.9,20.3,6.5c4.6,1.1,9.4,1.9,14,2.7
			c11.6,2,23.6,4.1,33.9,10c2.1,1.2,4,2.5,5.9,3.9c29.3-43.5-29.9-50.5-59.1-64.3C331.9,52.8,312.7,45.3,293.8,45.3 M127.8,44.4
			C100,44.4,69.4,57,60.2,83.2c-3.4,9.6-3.6,19.8-3.6,30c28.2-25.3,57.7-50.5,93.3-65.3c0.9-0.4,1.9-0.8,2.8-1.2
			c-7.8-1.3-15.6-2.2-23.4-2.3C128.8,44.4,128.3,44.4,127.8,44.4"/>
		<path class="st1" d="M166.4,390.9c-6.6,0-13.3,0.3-19.9,1.2c0.6,0.3,1.2,0.5,1.8,0.8c6.1-0.7,12.1-1,18.1-1
			c14.4,0,28.7,1.6,42.4,3.4c11.4,1.5,23.2,3.1,34.9,6c2.8,0.7,5.6,1.4,8.4,2.3c0.7-0.1,1.3-0.3,2-0.4c-3-0.9-6-1.8-9-2.5
			c-12.2-3-24.5-4.8-36.3-6.3C195.2,392.5,180.9,390.9,166.4,390.9 M50.5,293.7c-2.3,8.7-4.6,17.6-6,26.6c-0.4,2.8-0.8,5.6-1,8.3
			c-1.5,15.6-0.7,31.1,0.2,44.7c0.6,9.2,1.8,18.6,8.1,24.9c4.2,4.1,10.4,6.5,18.9,7.3c2.3,0.2,4.6,0.3,6.8,0.3
			c3.8,0,7.6-0.3,11.4-0.7c9.6-1.2,19.2-3.6,28.6-6c7.7-1.9,15.6-4,23.4-5.3c-0.5-0.2-1-0.5-1.5-0.7c-7.4,1.3-14.9,3.2-22.1,5
			c-9.3,2.4-18.7,4.8-28.3,5.9c-3.8,0.5-7.6,0.7-11.5,0.7c-2.2,0-4.5-0.1-6.7-0.3c-8.3-0.8-14.2-3.1-18.2-7
			c-6.1-6-7.2-15.3-7.8-24.2c-0.9-13.4-1.7-28.7-0.3-44c0.3-3,0.6-5.9,1.1-8.9c1.3-8.4,3.4-16.9,5.6-25.1
			C50.9,294.8,50.7,294.2,50.5,293.7 M384.1,292c-0.3,1-0.7,2-1.1,3c0,5.5,0.3,11,0.6,16.5l3.7,68.8c0.2,3.9,0.3,8.2,0,12.6
			c-0.7,10.5-3.7,21-13,25.6c-4.3,2.1-9.4,2.4-13.9,2.7c-9.8,0.6-19.7,1.3-29.6,1.3c-12.9,0-25.7-1.1-38.2-4.8
			c-6.6-2-13.1-4.6-19.4-7.3c-3.9-1.6-8-3.3-12-4.8c-0.6,0.1-1.2,0.3-1.7,0.4c4.5,1.6,9,3.5,13.4,5.3c6.3,2.6,12.8,5.3,19.5,7.3
			c12.5,3.7,25.8,4.8,38.8,4.8c10,0,20-0.7,29.3-1.3c4.6-0.3,9.8-0.6,14.3-2.8c9.8-4.8,12.9-15.8,13.6-26.7c0.3-4.3,0.2-8.6,0-12.4
			l-3.7-68.8C384.2,305,383.9,298.4,384.1,292 M55.3,279.2c-0.3,0-0.7,0.1-1.1,0.1c-0.6,2.5-1.2,4.9-1.9,7.4
			c0.2,0.6,0.4,1.2,0.6,1.8C53.7,285.4,54.5,282.3,55.3,279.2 M46.5,206.4c-0.1,0.4-0.1,0.9-0.2,1.3c11.7,14,13.2,32.8,12.2,46.3
			c0.3,0.1,0.7,0.3,1,0.4C60.5,240.4,59.1,220.8,46.5,206.4 M334.2,102.2c0.7,0.6,1.5,1.3,2.2,2c5.8,2.3,11.8,4.2,17.9,5.6
			c4.6,1.1,9.4,1.9,14.1,2.7c11.5,2,23.4,4.1,33.6,9.9c2,1.2,4,2.5,5.8,3.9c12.5,9.6,21,25.4,22.6,42.6c1.7,17.5-3.3,36.6-14.1,54
			c-3.3,5.4-7.2,10.6-11,15.7c-4.7,6.3-9.4,12.7-13.3,19.6c-0.1,1-0.3,1.9-0.4,2.9c4-7.7,9.3-14.9,14.5-21.9
			c3.8-5.1,7.6-10.3,11-15.8c10.9-17.6,16-37,14.3-54.6c-1.7-17.5-10.3-33.6-23-43.4c-1.9-1.5-3.9-2.8-5.9-3.9
			c-10.4-5.9-22.3-8-33.9-10c-4.6-0.8-9.4-1.6-14-2.7C347.6,107.1,340.8,104.9,334.2,102.2 M302,84.1c6.4,5.3,13.4,9.9,20.7,13.8
			c-2.5-2-5.1-3.8-7.7-5.7c-1.6-1-3.2-2.1-4.8-3.2C307.5,87.3,304.7,85.6,302,84.1 M207.9,36L207.9,36c-19.7,0-39.1,4.4-55.2,10.7
			c-1,0.4-1.9,0.8-2.8,1.2c-35.6,14.9-65.1,40-93.3,65.3c-2.8,2.5-5.5,5-8.3,7.5l0.3,0.4l-0.3-0.4c-2.7,2.4-5.9,5-9.3,7.8
			c-12.2,9.9-27.4,22.1-28.5,36.1c-0.5,6.6,2.2,13.2,8,19.5c3.9,4.3,8.7,7.7,13.3,11.1c2.7,2,5.6,4,8.2,6.3c1,0.8,1.9,1.7,2.9,2.6
			c0.1-0.4,0.1-0.8,0.2-1.2c-0.9-0.8-1.8-1.6-2.7-2.4c-2.6-2.2-5.3-4.1-8-6.1c-4.6-3.3-9.3-6.8-13.2-11c-5.7-6.2-8.2-12.4-7.8-18.8
			c1-13.6,16-25.7,28.1-35.4c3.4-2.8,6.6-5.4,9.4-7.8c2.5-2.3,5-4.6,7.6-6.8c28.3-25.5,58-50.8,93.7-65.8c1.4-0.6,2.9-1.2,4.4-1.8
			c15.7-6,34.3-10,53.3-10c19.4,0,39.1,4.2,56.5,15c1.8,1.1,3.5,2.3,5.2,3.5c6.7,4.8,12.8,10.6,18.7,16.2c0.7,0.6,1.4,1.3,2,1.9
			c1,0.4,1.9,0.9,2.9,1.4c-1.4-1.3-2.9-2.7-4.3-4c-5.9-5.6-12-11.4-18.8-16.3c-1.5-1.1-3.1-2.2-4.7-3.2
			C247.8,40.4,227.7,36,207.9,36"/>
	</g>
	<g>
		<defs>
			<polyline id="SVGID_3_" points="9.5,7.8 435.4,7.8 435.4,449.4 9.5,449.4 9.5,7.8 			"/>
		</defs>
		<clipPath id="SVGID_4_">
			<use xlink:href="#SVGID_3_"  style="overflow:visible;"/>
		</clipPath>
		<path class="st2" d="M427.4,318.4c0,3-2.4,5.4-5.4,5.4c-3,0-5.4-2.4-5.4-5.4c0-3,2.4-5.4,5.4-5.4C425,313,427.4,315.4,427.4,318.4
			"/>
		<path class="st3" d="M394.1,119.5c0,1.5-1.2,2.7-2.7,2.7c-1.5,0-2.7-1.2-2.7-2.7c0-1.5,1.2-2.7,2.7-2.7
			C392.9,116.9,394.1,118.1,394.1,119.5"/>
		<path class="st2" d="M335.1,30.9c-2.1,0-3.7,1.7-3.7,3.7c0,2.1,1.7,3.8,3.7,3.8c2.1,0,3.8-1.7,3.8-3.8
			C338.8,32.6,337.1,30.9,335.1,30.9"/>
	</g>
	<path class="st4" d="M330.9,415c0,0-6.4,8.7-13.2,8.2c-6.7-0.5-6.4,5.7-8.5,10c-2,4.3-10.8,4.4-15.2,2l0.7-6.4
		c0,0,8.1,3.4,10.4-2.7c2.4-6,4.1-12.4,12.4-10c8.3,2.4,10.1-7.8,10.1-7.8L330.9,415z"/>
	<polygon class="st4" points="339.8,403.2 319.2,407.9 333.6,423.3 	"/>
	<path class="st5" d="M375.4,55.7L375.4,55.7c-1.8-0.8-2.7-2.9-1.9-4.7l9.2-22c0.8-1.8,2.9-2.7,4.7-1.9c1.8,0.8,2.7,2.9,1.9,4.7
		l-9.2,22C379.3,55.6,377.2,56.5,375.4,55.7"/>
	<path class="st5" d="M367.6,35.7L367.6,35.7c0.8-1.8,2.9-2.7,4.7-1.9l22,9.2c1.8,0.8,2.7,2.9,1.9,4.7c-0.8,1.8-2.9,2.7-4.7,1.9
		l-22-9.2C367.7,39.6,366.8,37.5,367.6,35.7"/>
	<path class="st6" d="M401.7,216L401.7,216c-1.4-0.6-2-2.2-1.4-3.5l6.9-16.6c0.6-1.4,2.2-2,3.5-1.4c1.4,0.6,2,2.2,1.4,3.5l-6.9,16.6
		C404.6,215.9,403,216.5,401.7,216"/>
	<path class="st6" d="M395.8,200.9L395.8,200.9c0.6-1.4,2.2-2,3.5-1.4l16.6,6.9c1.4,0.6,2,2.2,1.4,3.5c-0.6,1.4-2.2,2-3.5,1.4
		l-16.6-6.9C395.9,203.8,395.2,202.2,395.8,200.9"/>
	<path class="st7" d="M42.9,419.6L42.9,419.6c-1,0.6-2.3,0.3-3-0.7l-7.5-12.3c-0.6-1-0.3-2.3,0.7-3c1-0.6,2.3-0.3,3,0.7l7.5,12.3
		C44.3,417.7,44,419,42.9,419.6"/>
	<path class="st7" d="M30.4,416.4L30.4,416.4c-0.6-1-0.3-2.3,0.7-3l12.3-7.5c1-0.6,2.3-0.3,3,0.7c0.6,1,0.3,2.3-0.7,3l-12.3,7.5
		C32.3,417.7,31,417.4,30.4,416.4"/>
	<path class="st7" d="M259.9,121.1l3.5,5.7c11,4.8,21.3,11.2,30.5,19.2c21.1,18.4,35,43.7,39,71.2c0.8,5.6,1.3,11.4,1.3,17.2
		c0,22-6.1,43.4-17.7,62c-10.3,16.6-24.8,30.4-41.8,40c-9.8,5.5-20.3,9.6-31.2,12.1v4.1c11.6-2.6,22.8-6.9,33.2-12.8
		c17.6-10,32.5-24.3,43.2-41.4c12-19.2,18.3-41.4,18.3-64.1c0-6-0.4-12-1.3-17.8c-4.2-28.5-18.5-54.6-40.3-73.6
		C285.6,133.5,273.2,126.1,259.9,121.1 M187.7,116.8c-4.7,1.2-9.4,2.7-14,4.4c-23,8.8-42.6,24.3-56.6,44.7
		c-13.9,20.2-21.2,43.9-21.2,68.6c0,5.6,0.4,11.3,1.2,16.9c3.5,25.5,14.9,48.7,32.8,67.3c19.2,19.9,44.5,32.6,71.7,36v-4
		c-26.1-3.5-50.4-15.7-68.9-34.8c-17.3-18-28.3-40.5-31.8-65.1c-0.8-5.4-1.1-10.9-1.1-16.3c0-23.8,7.1-46.7,20.5-66.3
		c13.6-19.7,32.5-34.7,54.8-43.2c3.2-1.2,6.4-2.3,9.6-3.2L187.7,116.8"/>
	<path class="st7" d="M114.7,335.6c-0.3,0-0.5-0.1-0.7-0.3c-0.2-0.2-0.5-0.5-0.7-0.7c-0.2-0.2-0.5-0.5-0.7-0.7c-0.4-0.4-0.4-1,0-1.4
		c0.4-0.4,1-0.4,1.4,0c0.2,0.2,0.5,0.5,0.7,0.7c0.2,0.2,0.5,0.5,0.7,0.7c0.4,0.4,0.4,1,0,1.4C115.2,335.5,114.9,335.6,114.7,335.6z"
		/>
	<path class="st7" d="M213.6,376.5L213.6,376.5c-0.6,0-1,0.4-1,1c0,0.6,0.4,1,1,1c0.7,0,1.3,0,2,0h0c0.5,0,1-0.4,1-1
		c0-0.6-0.4-1-1-1C214.9,376.6,214.3,376.5,213.6,376.5 M229.6,376C229.6,376,229.6,376,229.6,376c-0.8,0.1-1.4,0.1-2.1,0.2
		c-0.5,0-1,0.5-0.9,1.1c0,0.5,0.5,0.9,1,0.9l0.1,0c0.7,0,1.3-0.1,2-0.2c0.5,0,1-0.5,0.9-1.1C230.6,376.4,230.1,376,229.6,376
		 M199.6,375.5c-0.5,0-0.9,0.4-1,0.9c-0.1,0.5,0.3,1,0.9,1.1c0.7,0.1,1.3,0.2,2,0.2l0.1,0c0.5,0,0.9-0.4,1-0.9
		c0.1-0.5-0.3-1-0.9-1.1c-0.7-0.1-1.3-0.1-2-0.2C199.6,375.5,199.6,375.5,199.6,375.5 M243.6,374.1c-0.1,0-0.1,0-0.2,0
		c-0.7,0.1-1.3,0.2-2,0.4c-0.5,0.1-0.9,0.6-0.8,1.2c0.1,0.5,0.5,0.8,1,0.8l0.2,0c0.7-0.1,1.3-0.2,2-0.4c0.5-0.1,0.9-0.6,0.8-1.2
		C244.4,374.4,244,374.1,243.6,374.1 M185.7,373.1c-0.5,0-0.9,0.3-1,0.8c-0.1,0.5,0.2,1.1,0.8,1.2c0.7,0.1,1.3,0.3,2,0.4l0.2,0
		c0.5,0,0.9-0.3,1-0.8c0.1-0.5-0.2-1.1-0.8-1.2c-0.7-0.1-1.3-0.3-2-0.4C185.9,373.2,185.8,373.1,185.7,373.1 M257.2,370.8
		c-0.1,0-0.2,0-0.3,0c-0.6,0.2-1.3,0.4-1.9,0.5c-0.5,0.1-0.8,0.7-0.7,1.2c0.1,0.4,0.5,0.7,1,0.7l0.3,0c0.6-0.2,1.3-0.4,1.9-0.6
		c0.5-0.2,0.8-0.7,0.7-1.2C258,371.1,257.6,370.8,257.2,370.8 M172.2,369.4c-0.4,0-0.8,0.3-0.9,0.7c-0.2,0.5,0.1,1.1,0.6,1.3
		c0.6,0.2,1.3,0.4,1.9,0.6c0.1,0,0.2,0,0.3,0c0.4,0,0.8-0.3,1-0.7c0.2-0.5-0.1-1.1-0.7-1.3c-0.6-0.2-1.3-0.4-1.9-0.6
		C172.4,369.4,172.3,369.4,172.2,369.4 M270.5,366.2c-0.1,0-0.3,0-0.4,0.1c-0.6,0.2-1.2,0.5-1.8,0.7c-0.5,0.2-0.8,0.8-0.6,1.3
		c0.2,0.4,0.5,0.6,0.9,0.6c0.1,0,0.2,0,0.4-0.1c0.6-0.2,1.3-0.5,1.9-0.7c0.5-0.2,0.8-0.8,0.6-1.3
		C271.2,366.5,270.9,366.2,270.5,366.2 M159.1,364.4c-0.4,0-0.7,0.2-0.9,0.6c-0.2,0.5,0,1.1,0.5,1.3c0.6,0.3,1.2,0.5,1.9,0.8
		c0.1,0.1,0.3,0.1,0.4,0.1c0.4,0,0.8-0.2,0.9-0.6c0.2-0.5,0-1.1-0.5-1.3c-0.6-0.3-1.2-0.5-1.8-0.8
		C159.3,364.4,159.2,364.4,159.1,364.4 M283.2,360.4c-0.2,0-0.3,0-0.5,0.1c-0.6,0.3-1.2,0.6-1.8,0.9c-0.5,0.2-0.7,0.8-0.4,1.3
		c0.2,0.3,0.5,0.5,0.9,0.5c0.2,0,0.3,0,0.4-0.1c0.6-0.3,1.2-0.6,1.8-0.9c0.5-0.3,0.7-0.9,0.4-1.3
		C283.9,360.6,283.6,360.4,283.2,360.4 M146.5,358c-0.3,0-0.7,0.2-0.9,0.5c-0.3,0.5-0.1,1.1,0.4,1.4c0.6,0.3,1.2,0.7,1.8,1
		c0.2,0.1,0.3,0.1,0.5,0.1c0.4,0,0.7-0.2,0.9-0.5c0.3-0.5,0.1-1.1-0.4-1.4c-0.6-0.3-1.2-0.6-1.7-1C146.8,358.1,146.7,358,146.5,358
		 M295.3,353.3c-0.2,0-0.4,0.1-0.5,0.2c-0.6,0.4-1.1,0.7-1.7,1.1c-0.5,0.3-0.6,0.9-0.3,1.4c0.2,0.3,0.5,0.5,0.8,0.5
		c0.2,0,0.4,0,0.5-0.2c0.6-0.4,1.1-0.7,1.7-1.1c0.5-0.3,0.6-0.9,0.3-1.4C296,353.4,295.6,353.3,295.3,353.3 M134.6,350.5
		c-0.3,0-0.6,0.1-0.8,0.4c-0.3,0.5-0.2,1.1,0.2,1.4c0.6,0.4,1.1,0.8,1.7,1.2c0.2,0.1,0.4,0.2,0.6,0.2c0.3,0,0.6-0.2,0.8-0.4
		c0.3-0.5,0.2-1.1-0.3-1.4c-0.5-0.4-1.1-0.8-1.6-1.1C135,350.6,134.8,350.5,134.6,350.5 M306.7,345c-0.2,0-0.4,0.1-0.6,0.2
		c-0.5,0.4-1,0.8-1.6,1.2c-0.4,0.3-0.5,1-0.2,1.4c0.2,0.3,0.5,0.4,0.8,0.4c0.2,0,0.4-0.1,0.6-0.2c0.5-0.4,1.1-0.8,1.6-1.3
		c0.4-0.3,0.5-1,0.2-1.4C307.3,345.1,307,345,306.7,345 M123.6,341.9c-0.3,0-0.6,0.1-0.8,0.3c-0.4,0.4-0.3,1,0.1,1.4
		c0.5,0.4,1,0.9,1.5,1.3c0.2,0.2,0.4,0.2,0.6,0.2c0.3,0,0.6-0.1,0.8-0.4c0.4-0.4,0.3-1.1-0.1-1.4c-0.5-0.4-1-0.9-1.5-1.3
		C124,342,123.8,341.9,123.6,341.9 M317.2,335.7c-0.3,0-0.5,0.1-0.7,0.3c-0.5,0.5-1,0.9-1.4,1.4c-0.4,0.4-0.4,1,0,1.4
		c0.2,0.2,0.5,0.3,0.7,0.3c0.2,0,0.5-0.1,0.7-0.3c0.5-0.5,1-0.9,1.5-1.4c0.4-0.4,0.4-1,0-1.4C317.7,335.8,317.4,335.7,317.2,335.7
		 M326.7,325.3c-0.3,0-0.6,0.1-0.8,0.4c-0.4,0.5-0.9,1-1.3,1.5c-0.4,0.4-0.3,1,0.1,1.4c0.2,0.2,0.4,0.2,0.7,0.2
		c0.3,0,0.6-0.1,0.8-0.3c0.4-0.5,0.9-1,1.3-1.5c0.4-0.4,0.3-1.1-0.1-1.4C327.2,325.4,326.9,325.3,326.7,325.3 M104.1,321.5
		c-0.2,0-0.4,0.1-0.6,0.2c-0.4,0.3-0.5,1-0.2,1.4c0.4,0.5,0.8,1.1,1.3,1.6c0.2,0.2,0.5,0.4,0.8,0.4c0.2,0,0.4-0.1,0.6-0.2
		c0.4-0.3,0.5-1,0.2-1.4c-0.4-0.5-0.8-1-1.2-1.6C104.7,321.6,104.4,321.5,104.1,321.5 M335.2,314.1c-0.3,0-0.6,0.2-0.8,0.4
		c-0.4,0.5-0.8,1.1-1.1,1.6c-0.3,0.5-0.2,1.1,0.2,1.4c0.2,0.1,0.4,0.2,0.6,0.2c0.3,0,0.6-0.1,0.8-0.4c0.4-0.6,0.8-1.1,1.2-1.7
		c0.3-0.5,0.2-1.1-0.3-1.4C335.6,314.2,335.4,314.1,335.2,314.1 M96,310c-0.2,0-0.4,0.1-0.5,0.2c-0.5,0.3-0.6,0.9-0.3,1.4
		c0.4,0.6,0.7,1.1,1.1,1.7c0.2,0.3,0.5,0.5,0.8,0.5c0.2,0,0.4-0.1,0.5-0.2c0.5-0.3,0.6-0.9,0.3-1.4c-0.4-0.6-0.7-1.1-1.1-1.7
		C96.7,310.2,96.4,310,96,310 M342.6,302.2c-0.4,0-0.7,0.2-0.9,0.5c-0.3,0.6-0.6,1.2-1,1.7c-0.3,0.5-0.1,1.1,0.4,1.4
		c0.2,0.1,0.3,0.1,0.5,0.1c0.3,0,0.7-0.2,0.9-0.5c0.3-0.6,0.7-1.2,1-1.8c0.3-0.5,0.1-1.1-0.4-1.4
		C342.9,302.2,342.7,302.2,342.6,302.2 M89.1,297.8c-0.2,0-0.3,0-0.4,0.1c-0.5,0.2-0.7,0.8-0.4,1.3c0.3,0.6,0.6,1.2,0.9,1.8
		c0.2,0.3,0.5,0.5,0.9,0.5c0.2,0,0.3,0,0.5-0.1c0.5-0.3,0.7-0.9,0.4-1.3c-0.3-0.6-0.6-1.2-0.9-1.8C89.8,298,89.5,297.8,89.1,297.8
		 M348.7,289.5c-0.4,0-0.8,0.2-0.9,0.6c-0.3,0.6-0.5,1.2-0.8,1.8c-0.2,0.5,0,1.1,0.5,1.3c0.1,0.1,0.3,0.1,0.4,0.1
		c0.4,0,0.7-0.2,0.9-0.6c0.3-0.6,0.5-1.2,0.8-1.9c0.2-0.5,0-1.1-0.5-1.3C349,289.6,348.8,289.5,348.7,289.5 M83.4,285
		c-0.1,0-0.2,0-0.4,0.1c-0.5,0.2-0.8,0.8-0.6,1.3c0.2,0.6,0.5,1.3,0.7,1.9c0.2,0.4,0.5,0.6,0.9,0.6c0.1,0,0.3,0,0.4-0.1
		c0.5-0.2,0.8-0.8,0.6-1.3c-0.2-0.6-0.5-1.2-0.7-1.9C84.2,285.2,83.8,285,83.4,285 M353.6,276.4c-0.4,0-0.8,0.3-0.9,0.7
		c-0.2,0.6-0.4,1.3-0.6,1.9c-0.2,0.5,0.1,1.1,0.6,1.3c0.1,0,0.2,0.1,0.3,0.1c0.4,0,0.8-0.3,0.9-0.7c0.2-0.6,0.4-1.3,0.6-1.9
		c0.2-0.5-0.1-1.1-0.7-1.3C353.8,276.4,353.7,276.4,353.6,276.4 M79,271.6c-0.1,0-0.2,0-0.3,0c-0.5,0.1-0.8,0.7-0.7,1.2
		c0.2,0.6,0.4,1.3,0.6,1.9c0.1,0.4,0.5,0.7,1,0.7c0.1,0,0.2,0,0.3,0c0.5-0.2,0.8-0.7,0.7-1.2c-0.2-0.6-0.4-1.3-0.5-1.9
		C79.8,271.9,79.4,271.6,79,271.6 M357.1,262.8c-0.5,0-0.9,0.3-1,0.8c-0.1,0.7-0.3,1.3-0.4,2c-0.1,0.5,0.2,1.1,0.8,1.2l0.2,0
		c0.5,0,0.9-0.3,1-0.8c0.1-0.7,0.3-1.3,0.4-2c0.1-0.5-0.2-1.1-0.8-1.2C357.3,262.8,357.2,262.8,357.1,262.8 M75.9,257.9
		c-0.1,0-0.1,0-0.2,0c-0.5,0.1-0.9,0.6-0.8,1.2c0.1,0.7,0.2,1.3,0.4,2c0.1,0.5,0.5,0.8,1,0.8l0.2,0c0.5-0.1,0.9-0.6,0.8-1.2
		c-0.1-0.7-0.2-1.3-0.4-2C76.8,258.3,76.4,257.9,75.9,257.9 M359.3,248.9c-0.5,0-0.9,0.4-1,0.9c-0.1,0.7-0.1,1.3-0.2,2
		c-0.1,0.5,0.3,1,0.9,1.1l0.1,0c0.5,0,0.9-0.4,1-0.9c0.1-0.7,0.2-1.3,0.2-2c0.1-0.5-0.3-1-0.9-1.1
		C359.4,248.9,359.3,248.9,359.3,248.9 M74.2,244C74.2,244,74.2,244,74.2,244c-0.6,0-1,0.5-1,1.1c0,0.7,0.1,1.3,0.2,2
		c0,0.5,0.5,0.9,1,0.9l0.1,0c0.5,0,1-0.5,0.9-1.1c-0.1-0.7-0.1-1.3-0.2-2C75.2,244.4,74.7,244,74.2,244 M360.1,234.8L360.1,234.8
		c-0.6,0-1,0.4-1,1c0,0.7,0,1.3,0,2c0,0.6,0.4,1,1,1h0c0.5,0,1-0.4,1-1c0-0.7,0-1.3,0-2C361.1,235.3,360.7,234.8,360.1,234.8
		 M73.9,229.9c-0.5,0-1,0.4-1,1c0,0.7,0,1.4,0,2c0,0.6,0.4,1,1,1h0c0.5,0,1-0.4,1-1c0-0.7,0-1.3,0-2
		C74.9,230.4,74.4,229.9,73.9,229.9L73.9,229.9 M359.6,220.8C359.6,220.8,359.5,220.8,359.6,220.8c-0.6,0.1-1,0.5-1,1.1
		c0.1,0.7,0.1,1.3,0.2,2c0,0.5,0.5,0.9,1,0.9l0.1,0c0.5,0,1-0.5,0.9-1.1c0-0.7-0.1-1.3-0.2-2C360.5,221.2,360.1,220.8,359.6,220.8
		 M74.9,215.9c-0.5,0-0.9,0.4-1,0.9c-0.1,0.7-0.2,1.3-0.2,2c-0.1,0.5,0.3,1,0.9,1.1l0.1,0c0.5,0,0.9-0.4,1-0.9
		c0.1-0.7,0.1-1.3,0.2-2c0.1-0.5-0.3-1-0.9-1.1C75,215.9,74.9,215.9,74.9,215.9 M357.7,206.9c-0.1,0-0.1,0-0.2,0
		c-0.5,0.1-0.9,0.6-0.8,1.2c0.1,0.7,0.2,1.3,0.4,2c0.1,0.5,0.5,0.8,1,0.8l0.2,0c0.5-0.1,0.9-0.6,0.8-1.2c-0.1-0.7-0.2-1.3-0.4-2
		C358.6,207.2,358.2,206.9,357.7,206.9 M77.3,202.1c-0.5,0-0.9,0.3-1,0.8c-0.1,0.7-0.3,1.3-0.4,2c-0.1,0.5,0.2,1.1,0.8,1.2l0.2,0
		c0.5,0,0.9-0.3,1-0.8c0.1-0.7,0.3-1.3,0.4-2c0.1-0.5-0.2-1.1-0.8-1.2C77.4,202.1,77.3,202.1,77.3,202.1 M355.9,196.4
		c-0.6,0.1-1.2,0.2-1.9,0.2c0.2,0.3,0.5,0.5,0.9,0.5l0.3,0C355.6,197,355.9,196.7,355.9,196.4 M81,188.5c-0.4,0-0.8,0.3-0.9,0.7
		c-0.2,0.6-0.4,1.3-0.6,1.9c-0.2,0.5,0.1,1.1,0.7,1.3c0.1,0,0.2,0,0.3,0c0.4,0,0.8-0.3,1-0.7c0.2-0.6,0.4-1.3,0.6-1.9
		c0.2-0.5-0.1-1.1-0.6-1.3C81.2,188.5,81.1,188.5,81,188.5 M86.8,177.3c-0.8,0.2-1.6,0.4-2.4,0.5c0,0,0,0,0,0
		c-0.2,0.5,0,1.1,0.5,1.3c0.1,0.1,0.3,0.1,0.4,0.1c0.4,0,0.8-0.2,0.9-0.6C86.4,178.2,86.6,177.8,86.8,177.3 M343.9,167.2
		c-0.2,0-0.3,0-0.5,0.1c-0.5,0.3-0.7,0.9-0.4,1.3c0.3,0.6,0.6,1.2,0.9,1.8c0.2,0.3,0.5,0.5,0.9,0.5c0.2,0,0.3,0,0.4-0.1
		c0.5-0.2,0.7-0.8,0.4-1.3c-0.3-0.6-0.6-1.2-0.9-1.8C344.6,167.4,344.3,167.2,343.9,167.2 M336.8,155.1c-0.2,0-0.4,0.1-0.5,0.2
		c-0.5,0.3-0.6,0.9-0.3,1.4c0.4,0.6,0.7,1.1,1.1,1.7c0.2,0.3,0.5,0.5,0.8,0.5c0.2,0,0.4,0,0.5-0.2c0.5-0.3,0.6-0.9,0.3-1.4
		c-0.4-0.6-0.7-1.1-1.1-1.7C337.5,155.3,337.2,155.1,336.8,155.1 M99.9,151c-0.3,0-0.6,0.1-0.8,0.4c-0.1,0.2-0.2,0.3-0.3,0.5
		c0.3,0.7,0.6,1.5,0.8,2.3c0,0,0,0,0,0l0.1-0.2c0.3-0.5,0.7-1,1-1.4c0.3-0.5,0.2-1.1-0.2-1.4C100.3,151,100.1,151,99.9,151
		 M328.6,143.7c-0.2,0-0.4,0.1-0.6,0.2c-0.4,0.3-0.5,1-0.2,1.4c0.4,0.5,0.8,1,1.2,1.6c0.2,0.3,0.5,0.4,0.8,0.4
		c0.2,0,0.4-0.1,0.6-0.2c0.4-0.3,0.5-1,0.2-1.4c-0.4-0.5-0.8-1.1-1.3-1.6C329.2,143.9,328.9,143.7,328.6,143.7 M108.6,139.9
		c-0.3,0-0.6,0.1-0.8,0.3c-0.4,0.5-0.9,1-1.3,1.5c-0.4,0.4-0.3,1.1,0.1,1.4c0.2,0.2,0.4,0.2,0.6,0.2c0.3,0,0.6-0.1,0.8-0.4
		c0.4-0.5,0.9-1,1.3-1.5c0.4-0.4,0.3-1-0.1-1.4C109,140,108.8,139.9,108.6,139.9 M319.2,133.2c-0.3,0-0.5,0.1-0.7,0.3
		c-0.4,0.4-0.4,1,0,1.4c0.5,0.5,0.9,1,1.4,1.4c0.2,0.2,0.5,0.3,0.7,0.3c0.2,0,0.5-0.1,0.7-0.3c0.4-0.4,0.4-1,0-1.4
		c-0.5-0.5-0.9-1-1.4-1.5C319.8,133.3,319.5,133.2,319.2,133.2 M118.3,129.7c-0.2,0-0.5,0.1-0.7,0.3c-0.5,0.5-1,0.9-1.5,1.4
		c-0.4,0.4-0.4,1,0,1.4c0.2,0.2,0.5,0.3,0.7,0.3c0.3,0,0.5-0.1,0.7-0.3c0.5-0.5,1-0.9,1.4-1.4c0.4-0.4,0.4-1,0-1.4
		C118.8,129.8,118.5,129.7,118.3,129.7 M308.9,123.7c-0.3,0-0.6,0.1-0.8,0.4c-0.4,0.4-0.3,1.1,0.1,1.4c0.5,0.4,1,0.9,1.5,1.3
		c0.2,0.2,0.4,0.2,0.7,0.2c0.3,0,0.6-0.1,0.8-0.3c0.4-0.4,0.3-1-0.1-1.4c-0.5-0.4-1-0.9-1.5-1.3
		C309.4,123.8,309.2,123.7,308.9,123.7 M128.9,120.6c-0.2,0-0.4,0.1-0.6,0.2c-0.5,0.4-1.1,0.8-1.6,1.3c-0.4,0.3-0.5,1-0.2,1.4
		c0.2,0.2,0.5,0.4,0.8,0.4c0.2,0,0.4-0.1,0.6-0.2c0.5-0.4,1-0.8,1.6-1.2c0.4-0.3,0.5-1,0.2-1.4C129.5,120.7,129.2,120.6,128.9,120.6
		 M297.7,115.2c-0.3,0-0.6,0.2-0.8,0.4c-0.3,0.5-0.2,1.1,0.3,1.4c0.5,0.4,1.1,0.8,1.6,1.1c0.2,0.1,0.4,0.2,0.6,0.2
		c0.3,0,0.6-0.1,0.8-0.4c0.3-0.5,0.2-1.1-0.2-1.4c-0.6-0.4-1.1-0.8-1.7-1.2C298.1,115.3,297.9,115.2,297.7,115.2 M140.4,112.5
		c-0.2,0-0.4,0.1-0.5,0.2c-0.6,0.4-1.1,0.7-1.7,1.1c-0.5,0.3-0.6,0.9-0.3,1.4c0.2,0.3,0.5,0.5,0.8,0.5c0.2,0,0.4-0.1,0.5-0.2
		c0.6-0.4,1.1-0.7,1.7-1.1c0.5-0.3,0.6-0.9,0.3-1.4C141,112.6,140.7,112.5,140.4,112.5 M285.8,107.8c-0.4,0-0.7,0.2-0.9,0.5
		c-0.3,0.5-0.1,1.1,0.4,1.4c0.6,0.3,1.2,0.6,1.7,1c0.2,0.1,0.3,0.1,0.5,0.1c0.3,0,0.7-0.2,0.9-0.5c0.3-0.5,0.1-1.1-0.4-1.4
		c-0.6-0.3-1.2-0.7-1.8-1C286.1,107.9,285.9,107.8,285.8,107.8 M152.6,105.5c-0.2,0-0.3,0-0.4,0.1c-0.6,0.3-1.2,0.6-1.8,0.9
		c-0.5,0.3-0.7,0.9-0.4,1.3c0.2,0.3,0.5,0.5,0.9,0.5c0.2,0,0.3,0,0.5-0.1c0.6-0.3,1.2-0.6,1.8-0.9c0.5-0.2,0.7-0.8,0.4-1.3
		C153.3,105.7,153,105.5,152.6,105.5 M273.1,101.7c-0.4,0-0.8,0.2-0.9,0.6c-0.2,0.5,0,1.1,0.5,1.3c0.6,0.3,1.2,0.5,1.8,0.8
		c0.1,0.1,0.3,0.1,0.4,0.1c0.4,0,0.7-0.2,0.9-0.6c0.2-0.5,0-1.1-0.5-1.3c-0.6-0.3-1.2-0.5-1.9-0.8
		C273.4,101.7,273.3,101.7,273.1,101.7 M165.4,99.8c-0.1,0-0.2,0-0.4,0.1c-0.6,0.2-1.3,0.5-1.9,0.7c-0.5,0.2-0.8,0.8-0.6,1.3
		c0.2,0.4,0.5,0.6,0.9,0.6c0.1,0,0.2,0,0.4-0.1c0.6-0.2,1.2-0.5,1.9-0.7c0.5-0.2,0.8-0.8,0.6-1.3C166.2,100.1,165.8,99.8,165.4,99.8
		 M259.9,96.8c-0.4,0-0.8,0.3-1,0.7c-0.2,0.5,0.1,1.1,0.7,1.3c0.6,0.2,1.3,0.4,1.9,0.6c0.1,0,0.2,0.1,0.3,0.1c0.4,0,0.8-0.3,0.9-0.7
		c0.2-0.5-0.1-1.1-0.6-1.3c-0.6-0.2-1.3-0.4-1.9-0.6C260.1,96.8,260,96.8,259.9,96.8 M178.8,95.4c-0.1,0-0.2,0-0.3,0
		c-0.6,0.2-1.3,0.4-1.9,0.6c-0.5,0.2-0.8,0.7-0.7,1.2c0.1,0.4,0.5,0.7,1,0.7c0.1,0,0.2,0,0.3,0c0.6-0.2,1.3-0.4,1.9-0.5
		c0.5-0.1,0.8-0.7,0.7-1.2C179.6,95.7,179.2,95.4,178.8,95.4 M246.4,93.3c-0.5,0-0.9,0.3-1,0.8c-0.1,0.5,0.2,1.1,0.8,1.2
		c0.7,0.1,1.3,0.3,1.9,0.4l0.2,0c0.5,0,0.9-0.3,1-0.8c0.1-0.5-0.2-1.1-0.8-1.2c-0.7-0.1-1.3-0.3-2-0.4
		C246.5,93.3,246.4,93.3,246.4,93.3 M192.5,92.3c-0.1,0-0.1,0-0.2,0c-0.7,0.1-1.3,0.2-2,0.4c-0.5,0.1-0.9,0.6-0.8,1.2
		c0.1,0.5,0.5,0.8,1,0.8l0.2,0c0.7-0.1,1.3-0.2,2-0.4c0.5-0.1,0.9-0.6,0.8-1.2C193.4,92.7,193,92.3,192.5,92.3"/>
	<path class="st8" d="M45.3,276.4c1.4,5.9,3.1,11.6,5.2,17.3c0.2,0.6,0.4,1.1,0.6,1.7c2.1,5.8,4.6,11.5,7.3,17.1
		c8.1,16.4,18.7,31.5,31.5,44.7c14.4,14.9,31.2,27,49.4,36c0.5,0.3,1,0.5,1.5,0.7c19.3,9.2,40.2,14.9,61.9,16.6
		c4.7,0.4,9.5,0.6,14.3,0.6c4.2,0,8.4-0.2,12.6-0.5c10.1-0.7,20.1-2.3,29.9-4.7c0.6-0.1,1.2-0.3,1.7-0.4
		c10.5-2.7,20.7-6.4,30.5-10.9c4.2-1.9,8.2-4,12.3-6.3c8.4-4.8,16.4-10.2,23.9-16.3c-0.9-0.9-1.8-1.9-2.6-3
		c-7.3,5.9-15.1,11.2-23.2,15.8c-6.4,3.6-12.9,6.8-19.7,9.5c-9.1,3.7-18.6,6.7-28.3,8.8c-0.7,0.1-1.3,0.3-2,0.4
		c-5.5,1.1-11,2-16.6,2.6c-6.1,0.7-12.3,1-18.5,1c-4.6,0-9.3-0.2-13.9-0.6c-19.1-1.5-37.5-6.2-54.8-13.7c-0.6-0.3-1.2-0.5-1.8-0.8
		c-20-8.9-38.2-21.7-53.7-37.7c-12.5-12.9-22.8-27.6-30.7-43.7c-3.6-7.2-6.6-14.6-9.1-22.2c-0.2-0.6-0.4-1.2-0.6-1.8
		c-0.8-2.6-1.6-5.2-2.3-7.8C48.3,278.4,46.7,277.5,45.3,276.4 M217,57.7c-3.4,0-6.8,0.1-10.1,0.3c-18.3,1-36.1,4.8-53.1,11.4
		c-16.7,6.4-32.3,15.3-46.4,26.4c-13.9,11-26.1,24.1-36.2,38.7c-14.2,20.7-23.7,43.9-28.2,68.3c-0.1,0.4-0.1,0.8-0.2,1.2
		c-1.7,10-2.6,20.1-2.6,30.4c0,8.2,0.6,16.5,1.7,24.6c0,0.2,0.1,0.4,0.1,0.7c0.9-1.6,2.1-2.9,3.5-4c-0.9-7-1.3-14.2-1.3-21.3
		c0-9,0.7-18,2.1-26.8c0.1-0.4,0.1-0.9,0.2-1.3c2.9-17.6,8.5-34.6,16.6-50.5c0.8-4,2.8-7.6,5.7-10.3c1.8-3,3.7-5.9,5.7-8.8
		c9.8-14.3,21.7-27,35.4-37.8c13.8-10.9,29-19.6,45.3-25.8c19.7-7.5,40.5-11.4,61.7-11.4c30,0,59.2,7.8,85,22.3
		c2.8,1.6,5.5,3.2,8.2,4.9c1.6,1,3.2,2.1,4.8,3.2c2.6,1.8,5.2,3.7,7.7,5.7c2.6,2,5.1,4.1,7.6,6.3c20.1,17.5,35.8,39.3,45.9,63.5
		c5.5,13.2,9.5,27.1,11.6,41.4c1.2,8.3,1.9,16.9,1.9,25.4c0,15-1.9,29.9-5.7,44.2c-4.4,16.6-11.2,32.5-20.4,47.1
		c-0.2,0.4-0.5,0.8-0.7,1.1c1.1,0.7,2.2,1.4,3.3,2.3c0.3-0.4,0.5-0.9,0.8-1.3c6.5-10.4,11.9-21.5,16.1-33c0.4-1,0.7-2,1.1-3
		c1-2.9,1.9-5.8,2.7-8.7c2.1-7.3,3.7-14.7,4.9-22.3c0.1-1,0.3-1.9,0.4-2.9c1.1-7.8,1.6-15.7,1.6-23.7c0-8.7-0.6-17.5-1.9-26
		c-2.3-15.9-6.9-31.4-13.4-45.9c-9.8-22-24.1-41.9-42.1-58.4c-0.7-0.7-1.4-1.3-2.2-2c-0.4-0.4-0.8-0.7-1.2-1.1
		c-12.1-10.5-25.5-19.3-39.7-26.1c-1-0.5-1.9-0.9-2.9-1.4c-15.5-7-31.9-11.8-48.8-14.2C233.4,58.3,225.2,57.7,217,57.7"/>
	<path class="st9" d="M348.2,322.9c-15.9,0-28.8,12.9-28.8,28.8c0,4.3,0.9,8.4,2.6,12.1l0,0c0.4,0.8,0.8,1.6,1.2,2.3v0
		c0.6,1,1.3,2,2,3c0.8,1.1,1.7,2.1,2.6,3c5.2,5.2,12.4,8.4,20.3,8.4c15.9,0,28.8-12.9,28.8-28.8l0,0l0,0c0,15.9-12.9,28.8-28.8,28.8
		c-10.6,0-19.9-5.8-24.9-14.4v0c-0.7-1.4-1.2-2.2-1.2-2.3v0c0.2,0.2,7.4,5.6,18.9,5.6c9.6,0,22.1-3.8,36-17.7l0,0
		c0-9.1-4.2-17.2-10.8-22.4c-1-0.8-2.1-1.6-3.3-2.3C358.6,324.3,353.5,322.9,348.2,322.9"/>
	<path class="st10" d="M376.9,351.6c-13.9,13.9-26.4,17.7-36,17.7c-11.5,0-18.7-5.5-18.9-5.6v0c0,0.1,0.5,0.9,1.2,2.3v0
		c5,8.6,14.3,14.4,24.9,14.4C364,380.4,376.9,367.5,376.9,351.6"/>
	<path class="st11" d="M81.6,140.6c-4.9,0-9.3,1.9-12.7,4.9c-2.9,2.7-5,6.3-5.7,10.3c-0.2,1.1-0.3,2.3-0.3,3.5
		c0,2.8,0.6,5.5,1.7,7.9l0,0c0.2,0.5,0.5,1,0.8,1.5v0c3.2,5.6,9.3,9.4,16.2,9.4c0.9,0,1.9-0.1,2.8-0.2c0.8-0.1,1.6-0.3,2.4-0.5
		c7.8-2.3,13.5-9.5,13.5-18l0,0l0,0c0,10.3-8.4,18.7-18.7,18.7c-6.9,0-13-3.8-16.2-9.4v0c-0.5-0.9-0.8-1.5-0.8-1.5v0
		c0.1,0.1,4.8,3.7,12.3,3.7c6.2,0,14.4-2.5,23.4-11.5l0,0c0-1.8-0.2-3.5-0.7-5.1c-0.2-0.8-0.5-1.6-0.8-2.3
		C95.9,145.2,89.3,140.6,81.6,140.6"/>
	<path class="st12" d="M100.3,159.3c-9,9-17.2,11.5-23.4,11.5c-7.5,0-12.2-3.6-12.3-3.7v0c0,0.1,0.3,0.6,0.8,1.5v0
		c3.2,5.6,9.3,9.4,16.2,9.4C91.9,178,100.3,169.7,100.3,159.3"/>
	<path class="st11" d="M353.3,170.3c-7.3,0-13.2,5.9-13.2,13.2c0,2,0.4,3.8,1.2,5.5l0,0c0.2,0.4,0.4,0.7,0.6,1.1v0
		c2.3,3.9,6.5,6.6,11.4,6.6c0.3,0,0.5,0,0.8,0c0.6,0,1.3-0.1,1.9-0.2c6-1.2,10.5-6.5,10.5-12.9l0,0l0,0c0,7.3-5.9,13.2-13.2,13.2
		c-4.9,0-9.1-2.7-11.4-6.6v0c-0.3-0.6-0.5-1-0.6-1.1v0c0.1,0.1,3.4,2.6,8.7,2.6c4.4,0,10.1-1.7,16.5-8.1l0,0
		C366.5,176.2,360.6,170.3,353.3,170.3"/>
	<path class="st12" d="M366.5,183.4c-6.4,6.4-12.1,8.1-16.5,8.1c-5.3,0-8.6-2.5-8.7-2.6v0c0,0,0.2,0.4,0.6,1.1v0
		c2.3,3.9,6.5,6.6,11.4,6.6C360.6,196.6,366.5,190.7,366.5,183.4"/>
	<path class="st9" d="M53.6,253c-3,0-5.8,1-8,2.7c-1.4,1.1-2.6,2.5-3.5,4c-1.1,1.9-1.7,4.1-1.7,6.4c0,2,0.4,3.8,1.2,5.5l0,0
		c0.2,0.4,0.4,0.7,0.6,1.1v0c0.8,1.4,1.9,2.6,3.1,3.7c1.4,1.1,3,2,4.7,2.4c1.1,0.3,2.3,0.5,3.5,0.5c0.2,0,0.4,0,0.6,0
		c0.4,0,0.7,0,1.1-0.1c6.5-0.8,11.5-6.4,11.5-13.1l0,0l0,0c0,7.3-5.9,13.2-13.2,13.2c-4.9,0-9.1-2.7-11.4-6.6v0
		c-0.3-0.6-0.5-1-0.6-1.1v0c0.1,0.1,3.4,2.6,8.7,2.6c4.4,0,10.1-1.7,16.5-8.1l0,0c0-5.1-2.9-9.6-7.2-11.8c-0.3-0.2-0.6-0.3-1-0.4
		C57,253.3,55.4,253,53.6,253"/>
	<path class="st10" d="M66.8,266.1c-6.4,6.4-12.1,8.1-16.5,8.1c-5.3,0-8.6-2.5-8.7-2.6v0c0,0,0.2,0.4,0.6,1.1v0
		c2.3,3.9,6.5,6.6,11.4,6.6C60.9,279.3,66.8,273.4,66.8,266.1"/>
	<path class="st13" d="M160.1,209.7l-23.9,21.7v65.1l24.5-34.8c-0.4-0.3-0.6-0.7-0.6-1.2V209.7 M180.1,191.6l-17.4,15.7
		c0.3,0.3,0.4,0.6,0.4,1.1v50.1c4.3-4.8,10.4-7.6,16.9-7.6V191.6"/>
	<path class="st13" d="M210.7,78.9l-6.2,10.3l-16.8,27.7l-3,4.9l-3.6,6h61.7l-14.4-38.6h-23.9L210.7,78.9 M213.5,76.1
		c-1,0.8-2,1.7-2.8,2.7C211.5,77.8,212.5,76.9,213.5,76.1 M213.5,76.1C213.5,76.1,213.5,76.1,213.5,76.1
		C213.5,76.1,213.5,76.1,213.5,76.1 M228.3,74.4c0.1,0.1,0.3,0.1,0.4,0.2c2.1,0.9,4,2.4,5.6,4.3C232.7,76.8,230.6,75.3,228.3,74.4"
		/>
	<path class="st8" d="M180.1,130.8v60.8v59.2v14.1h63.4v-12.2h-63.4v-7.4h63.4v-43.2c-5.4,5.2-12.8,8.4-21,8.4
		c-1.4,0-2.9-0.1-4.4-0.3c-13.1-1.8-23.7-12.3-25.6-25.3c-2.1-14,5.4-26.5,16.9-32.1c4-1.9,8.4-3,13.1-3c1.2,0,2.4,0.1,3.6,0.2
		c6.7,0.8,12.7,3.8,17.3,8.2v-27.6H180.1C180.1,130.8,180.1,130.8,180.1,130.8"/>
	<path class="st13" d="M222.5,149.9c-4.7,0-9.2,1.1-13.1,3c-11.5,5.5-19,18.1-16.9,32.1c2,13,12.6,23.5,25.6,25.3
		c1.5,0.2,2.9,0.3,4.4,0.3c8.1,0,15.5-3.2,21-8.4v-8.8c-0.4,0.6-0.8,1.2-1.2,1.7c-4.5,6-11.7,9.9-19.8,9.9c-1,0-2-0.1-3-0.2
		c-10.9-1.3-19.9-9.9-21.5-20.8c-1.7-11.4,4.4-21.6,13.7-26l0,0l0,0c3.2-1.6,6.9-2.4,10.7-2.4c1,0,2.1,0.1,3.1,0.2
		c7.4,0.9,13.9,5.3,17.8,11.4v-8.7c-4.6-4.5-10.7-7.5-17.3-8.2C224.9,150,223.7,149.9,222.5,149.9"/>
	<path class="st6" d="M242.7,127.7H181h-0.9c-0.8,0-1.5,0.7-1.5,1.5c0,0.8,0.7,1.5,1.5,1.5c0,0,0,0,0,0h63.4v-1.1l-0.2-0.4
		L242.7,127.7 M264.9,127.7H264l0.9,1.5v0v1.5c0.8,0,1.5-0.7,1.5-1.5S265.7,127.7,264.9,127.7"/>
	<path class="st6" d="M222.5,73.2c-3.2,0-6.3,1-9,2.9c0,0,0,0,0,0c0,0,0,0,0,0c-1,0.8-2,1.7-2.8,2.7l0,0l-6.2,10.3h23.9L222.5,73.2
		L222.5,73.2C222.5,73.2,222.5,73.2,222.5,73.2c2.1,0,4.3,0.4,6.3,1.3c-0.1-0.1-0.3-0.1-0.4-0.2C226.5,73.6,224.5,73.2,222.5,73.2"
		/>
	<path class="st14" d="M211.8,158L211.8,158c-9.3,4.5-15.4,14.7-13.7,26c1.6,10.9,10.6,19.5,21.5,20.8c1,0.1,2,0.2,3,0.2
		c8.1,0,15.3-3.9,19.8-9.9c0.4-0.6,0.8-1.1,1.2-1.7l0,0c-0.4,0.6-0.8,1.2-1.2,1.7C212.3,180.3,211.8,158,211.8,158"/>
	<path class="st9" d="M222.5,155.5c-3.8,0-7.5,0.9-10.7,2.4l0,0c0,0,0.5,22.4,30.5,37.1c0.4-0.6,0.8-1.1,1.2-1.7v-26.2
		c-3.9-6.1-10.4-10.5-17.8-11.4C224.6,155.6,223.5,155.5,222.5,155.5"/>
	<path class="st13" d="M243.5,274.7h-51.4l0,0c-0.5,1.1-1.3,2.1-2.3,3c-2.1,1.9-3.4,4.4-3.4,7.2v21h72.2h-72.2v-10.7h57.1V274.7"/>
	<polyline class="st9" points="243.5,295.2 186.4,295.2 186.4,305.8 258.6,305.8 243.5,305.8 243.5,295.2 	"/>
	<polyline class="st9" points="243.5,245.4 180.1,245.4 180.1,252.7 243.5,252.7 243.5,245.4 	"/>
	<path class="st9" d="M243.5,264.9h-63.4H177c-1.4,0-2.6,0.5-3.5,1.4c-1.2,1.2-1.7,2.9-1.3,4.7c0.6,2.2,2.7,3.6,5,3.6h14.8h51.4
		V264.9"/>
	<path class="st6" d="M142.9,302.6L142.9,302.6c-3.7,0-6.7-3-6.7-6.7v-64.5l6.7-5.8V302.6z"/>
	<path class="st15" d="M281.9,258.5v1.9c0,0.8,0.7,1.5,1.5,1.5c0.3,0,0.6-0.1,0.9-0.3l-0.9-1.3C282.9,259.8,282.4,259.1,281.9,258.5
		 M283.4,206.8c-0.5,0-0.9,0.2-1.1,0.5l1.1,1l1.5,1.4v-1.4C285,207.5,284.3,206.8,283.4,206.8"/>
	<path class="st15" d="M163.2,258.4c-0.6,0.6-1.1,1.3-1.6,2l-0.9,1.2c0.3,0.2,0.6,0.3,0.9,0.3c0.8,0,1.5-0.7,1.5-1.5V258.4
		 M161.6,206.8c-0.8,0-1.5,0.7-1.5,1.5v1.3l2.6-2.4C162.5,207,162.1,206.8,161.6,206.8"/>
	<path class="st14" d="M162.7,207.3l-2.6,2.4v50.7c0,0.5,0.2,0.9,0.6,1.2l0.9-1.2c0.5-0.7,1-1.4,1.6-2v-50.1
		C163.2,208,163,207.6,162.7,207.3"/>
	<polyline class="st13" points="243.5,305.8 201.5,305.8 201.5,350.6 201.5,354.6 201.5,366.7 243.5,366.7 243.5,352.7 243.5,348.6 
		243.5,305.8 	"/>
	<path class="st8" d="M123.1,394.2h199c-0.2-1.5-0.8-2.8-1.4-4.2c-0.5-1.3-1-2.6-1.5-3.9c-0.8-1.7-1.7-3-2.9-4.4
		c-2.1-2.5-5-4.3-8.1-5.3c-1.3-0.4-2.6-0.6-3.9-0.7c-0.4-1.3-0.8-2.5-1.4-3.8c-2.6-5.9-8.2-10.5-14.3-12.3
		c-4.9-1.5-10.4-1.3-15.4-0.8c-2.1,0.2-3.9,0.5-5.8,1h0c-1.3-3-3.3-5.6-6.5-7.5c-5.1-3-12.1-2.8-17.6-1.2c-1.8,0.5-3.5,1.2-5.2,2.1
		c-1.9-2.4-3.9-4.8-6.2-6.8c-3.5-3.1-7.1-5.3-11.4-7c-8.3-3.4-18.2-2.4-26.1,1.7c-4.1,2.1-7.4,5.3-9.9,9c-0.6-0.2-1.2-0.3-1.9-0.4
		c-7.2-1.3-14.4,0-20.7,3.7c-5,2.9-9.3,7.6-12.2,12.7c-5.5-0.4-11.3,1-16,3.8C125.3,375,121.2,384.5,123.1,394.2L123.1,394.2z"/>
	<path class="st16" d="M240.5,89.1h-12.2l14.4,38.6H264L240.5,89.1 M228.7,74.5c2.1,0.9,4,2.4,5.6,4.3l0,0
		C232.8,76.9,230.8,75.5,228.7,74.5"/>
	<path class="st17" d="M264.9,252.7h-21.4v12.2h21.4V252.7 M264.9,130.8h-21.4v27.6c5.1,4.9,8.6,11.6,9.2,19
		c0.7,7.9-1.6,15.3-5.9,21.1c-1,1.3-2.1,2.6-3.3,3.7v43.2h21.4V130.8"/>
	<path class="st16" d="M243.5,158.4v8.7c1.7,2.7,2.9,5.7,3.4,8.9c0.2,1.4,0.3,2.8,0.3,4.2c0,4.8-1.4,9.3-3.8,13.1v8.8
		c1.2-1.1,2.3-2.4,3.3-3.7c4.3-5.8,6.7-13.1,5.9-21.1C252,170,248.6,163.3,243.5,158.4"/>
	<polyline class="st18" points="264,127.7 264,127.7 242.7,127.7 243.3,129.3 243.5,129.7 243.5,130.8 264.9,130.8 264.9,130.8 
		264.9,129.3 264.9,129.3 264,127.7 	"/>
	<path class="st18" d="M222.5,73.2C222.5,73.2,222.5,73.2,222.5,73.2L222.5,73.2l5.9,15.9h12.2l-6.2-10.3l0,0
		c-1.6-1.9-3.5-3.4-5.6-4.3C226.8,73.6,224.6,73.2,222.5,73.2"/>
	<path class="st19" d="M243.5,167.1v26.2c2.4-3.8,3.8-8.3,3.8-13.1c0-1.4-0.1-2.8-0.3-4.2C246.3,172.8,245.2,169.8,243.5,167.1"/>
	<path class="st16" d="M252.9,274.7h-9.4v20.5h15.1v-10.4c0-2.8-1.4-5.3-3.5-7.1C254.2,276.8,253.4,275.8,252.9,274.7L252.9,274.7"
		/>
	<polyline class="st19" points="258.6,295.2 258.6,295.2 243.5,295.2 243.5,305.8 258.6,305.8 258.6,295.2 	"/>
	<polyline class="st19" points="264.9,245.4 264.9,245.4 243.5,245.4 243.5,252.7 264.9,252.7 264.9,245.4 	"/>
	<path class="st19" d="M267.7,264.9h-2.8h-21.4v9.8h9.4l0,0H268c1.4,0,2.6-0.5,3.5-1.4c0.9-0.9,1.4-2.1,1.4-3.5
		c0-0.4-0.1-0.9-0.2-1.3C272.2,266.3,270,264.9,267.7,264.9"/>
	<path class="st16" d="M308.8,295.9c0,0.2,0,0.3,0,0.5l0,0V295.9 M285,209.8v50.7c0,0.5-0.3,1-0.6,1.3l17.8,25.3v-61.4l6.7,5.8
		L285,209.8 M264.9,191.6v59.2l0,0c6.5,0,12.7,2.8,17,7.7v-50.1c0-0.4,0.2-0.8,0.4-1L264.9,191.6"/>
	<path class="st18" d="M302.1,225.6V287v15.7c3.5,0,6.4-2.7,6.7-6.2l0,0c0-0.2,0-0.3,0-0.5l0,0v-64.5L302.1,225.6"/>
	<path class="st20" d="M282.3,207.4c-0.2,0.3-0.4,0.6-0.4,1v50.1c0.5,0.6,1.1,1.3,1.5,1.9l0.9,1.3c0.4-0.3,0.6-0.7,0.6-1.3v-50.7
		l-1.5-1.4L282.3,207.4"/>
</g>
</svg>
